<svg xmlns="http://www.w3.org/2000/svg" version="1.1" xmlns:xlink="http://www.w3.org/1999/xlink" xmlns:svgjs="http://svgjs.dev/svgjs" viewBox="0 0 650 600" width="100%"><g id="top"><g><circle r="6.043097551272041" cx="213.92265295027062" cy="498.6493532083746" fill="#900c00" stroke-width="2.0143658504240136" stroke="#900c00"></circle></g><g><circle r="6.043097551272041" cx="183.06912116013206" cy="473.1797723064785" fill="#900c00" stroke-width="2.0143658504240136" stroke="#900c00"></circle></g><g><circle r="6.043097551272041" cx="164.86600813638756" cy="437.5527228708586" fill="#900c00" stroke-width="2.0143658504240136" stroke="#900c00"></circle></g><g><circle r="6.043097551272041" cx="162.30661131791976" cy="397.626672938904" fill="#ba2108" stroke-width="2.0143658504240136" stroke="#ba2108"></circle></g><g><circle r="6.043097551272041" cx="175.81179475868532" cy="359.9670128836859" fill="#a81604" stroke-width="2.0143658504240136" stroke="#a81604"></circle></g><g><circle r="6.043097551272041" cx="203.16078276212326" cy="330.7664507241807" fill="#900c00" stroke-width="2.0143658504240136" stroke="#900c00"></circle></g><g><circle r="6.043097551272041" cx="239.8563414957599" cy="314.82669086182614" fill="#ae1a05" stroke-width="2.0143658504240136" stroke="#ae1a05"></circle></g><g><circle r="6.043097551272041" cx="239.8563414957599" cy="288.10310799637966" fill="#910b00" stroke-width="2.0143658504240136" stroke="#910b00"></circle></g><g><circle r="6.043097551272041" cx="239.8563414957599" cy="261.37952513093325" fill="#910c00" stroke-width="2.0143658504240136" stroke="#910c00"></circle></g><g><circle r="6.043097551272041" cx="239.8563414957599" cy="234.65594226548677" fill="#920c00" stroke-width="2.0143658504240136" stroke="#920c00"></circle></g><g><circle r="6.043097551272041" cx="239.8563414957599" cy="207.9323594000403" fill="#930c00" stroke-width="2.0143658504240136" stroke="#930c00"></circle></g><g><circle r="6.043097551272041" cx="239.85634149575992" cy="181.20877653459382" fill="#920c00" stroke-width="2.0143658504240136" stroke="#920c00"></circle></g><g><circle r="6.043097551272041" cx="239.8563414957599" cy="154.48519366914735" fill="#a71503" stroke-width="2.0143658504240136" stroke="#a71503"></circle></g><g><circle r="6.043097551272041" cx="221.2020659907781" cy="120.8041506228563" fill="#900c00" stroke-width="2.0143658504240136" stroke="#900c00"></circle></g><g><circle r="6.043097551272041" cx="240.74906070277433" cy="87.633234852696" fill="#900c00" stroke-width="2.0143658504240136" stroke="#900c00"></circle></g><g><circle r="6.043097551272041" cx="279.2509392972257" cy="87.633234852696" fill="#900c00" stroke-width="2.0143658504240136" stroke="#900c00"></circle></g><g><circle r="6.043097551272041" cx="298.797934009222" cy="120.80415062285627" fill="#900c00" stroke-width="2.0143658504240136" stroke="#900c00"></circle></g><g><circle r="6.043097551272041" cx="280.1436585042401" cy="154.48519366914738" fill="#a71503" stroke-width="2.0143658504240136" stroke="#a71503"></circle></g><g><circle r="6.043097551272041" cx="280.1436585042401" cy="181.20877653459385" fill="#920c00" stroke-width="2.0143658504240136" stroke="#920c00"></circle></g><g><circle r="6.043097551272041" cx="280.1436585042401" cy="207.93235940004033" fill="#930c00" stroke-width="2.0143658504240136" stroke="#930c00"></circle></g><g><circle r="6.043097551272041" cx="280.1436585042401" cy="234.65594226548677" fill="#920c00" stroke-width="2.0143658504240136" stroke="#920c00"></circle></g><g><circle r="6.043097551272041" cx="280.1436585042401" cy="261.37952513093325" fill="#910c00" stroke-width="2.0143658504240136" stroke="#910c00"></circle></g><g><circle r="6.043097551272041" cx="280.1436585042401" cy="288.10310799637966" fill="#910b00" stroke-width="2.0143658504240136" stroke="#910b00"></circle></g><g><circle r="6.043097551272041" cx="280.1436585042401" cy="314.82669086182614" fill="#ae1a05" stroke-width="2.0143658504240136" stroke="#ae1a05"></circle></g><g><circle r="6.043097551272041" cx="316.8392172378768" cy="330.7664507241808" fill="#900c00" stroke-width="2.0143658504240136" stroke="#900c00"></circle></g><g><circle r="6.043097551272041" cx="344.1882052413147" cy="359.9670128836859" fill="#960d00" stroke-width="2.0143658504240136" stroke="#960d00"></circle></g><g><circle r="6.043097551272041" cx="357.6933886820801" cy="397.6266729389041" fill="#ae1a05" stroke-width="2.0143658504240136" stroke="#ae1a05"></circle></g><g><circle r="6.043097551272041" cx="355.1339918636123" cy="437.5527228708587" fill="#a11201" stroke-width="2.0143658504240136" stroke="#a11201"></circle></g><g><circle r="6.043097551272041" cx="336.9308788398679" cy="473.1797723064785" fill="#900c00" stroke-width="2.0143658504240136" stroke="#900c00"></circle></g><g><circle r="6.043097551272041" cx="306.0773470497294" cy="498.64935320837446" fill="#900c00" stroke-width="2.0143658504240136" stroke="#900c00"></circle></g><g><circle r="6.043097551272041" cx="267.64691318055895" cy="509.7732791282391" fill="#900c00" stroke-width="2.0143658504240136" stroke="#900c00"></circle></g></g><g><g></g><g></g><g></g><g></g><g></g><g></g><g></g><g></g><g></g><g></g><g></g><g></g><g><line x1="239.8563414957599" y1="314.82669086182614" x2="260" y2="314.82669086182614" stroke-linecap="round" stroke-width="2.0143658504240136" stroke="black" fill="black"></line><g></g></g><g></g><g><line x1="239.8563414957599" y1="288.10310799637966" x2="260" y2="288.10310799637966" stroke-linecap="round" stroke-width="2.0143658504240136" stroke="black" fill="black"></line><g></g></g><g></g><g><line x1="239.8563414957599" y1="261.37952513093325" x2="260" y2="261.37952513093325" stroke-linecap="round" stroke-width="2.0143658504240136" stroke="black" fill="black"></line><g></g></g><g></g><g><line x1="239.8563414957599" y1="234.65594226548677" x2="260" y2="234.65594226548677" stroke-linecap="round" stroke-width="2.0143658504240136" stroke="black" fill="black"></line><g></g></g><g></g><g><line x1="239.8563414957599" y1="207.9323594000403" x2="260" y2="207.9323594000403" stroke-linecap="round" stroke-width="2.0143658504240136" stroke="black" fill="black"></line><g></g></g><g></g><g><line x1="239.85634149575992" y1="181.20877653459382" x2="260" y2="181.20877653459382" stroke-linecap="round" stroke-width="2.0143658504240136" stroke="black" fill="black"></line><g></g></g><g></g><g><line x1="239.8563414957599" y1="154.48519366914735" x2="260" y2="154.48519366914735" stroke-linecap="round" stroke-width="2.0143658504240136" stroke="black" fill="black"></line><g></g></g><g></g><g></g><g></g><g></g><g></g><g></g><g></g><g></g><g></g><g><line x1="280.14365850424014" y1="154.48519366914738" x2="260" y2="154.48519366914735" stroke-linecap="round" stroke-width="2.0143658504240136" stroke="black" fill="black"></line><g></g></g><g></g><g><line x1="280.14365850424014" y1="181.20877653459385" x2="260" y2="181.20877653459382" stroke-linecap="round" stroke-width="2.0143658504240136" stroke="black" fill="black"></line><g></g></g><g></g><g><line x1="280.14365850424014" y1="207.93235940004033" x2="260" y2="207.9323594000403" stroke-linecap="round" stroke-width="2.0143658504240136" stroke="black" fill="black"></line><g></g></g><g></g><g><line x1="280.14365850424014" y1="234.65594226548677" x2="260" y2="234.65594226548677" stroke-linecap="round" stroke-width="2.0143658504240136" stroke="black" fill="black"></line><g></g></g><g></g><g><line x1="280.14365850424014" y1="261.37952513093325" x2="260" y2="261.37952513093325" stroke-linecap="round" stroke-width="2.0143658504240136" stroke="black" fill="black"></line><g></g></g><g></g><g><line x1="280.14365850424014" y1="288.1031079963797" x2="260" y2="288.10310799637966" stroke-linecap="round" stroke-width="2.0143658504240136" stroke="black" fill="black"></line><g></g></g><g></g><g><line x1="280.1436585042401" y1="314.82669086182614" x2="260" y2="314.82669086182614" stroke-linecap="round" stroke-width="2.0143658504240136" stroke="black" fill="black"></line><g></g></g><g></g><g></g><g></g><g></g><g></g><g></g><g></g><g></g><g></g><g></g><g></g><g></g><g></g><g></g><g></g></g><g><line x1="239.8563414957599" y1="314.82669086182614" x2="239.8563414957599" y2="301.46489942910296" stroke-linecap="round" stroke-opacity="1" stroke-width="4.028731700848027" stroke="black" fill="black"></line><line x1="239.8563414957599" y1="288.10310799637966" x2="239.8563414957599" y2="301.46489942910296" stroke-linecap="round" stroke-opacity="1" stroke-width="4.028731700848027" stroke="black" fill="black"></line><line x1="239.8563414957599" y1="288.10310799637966" x2="239.8563414957599" y2="274.7413165636565" stroke-linecap="round" stroke-opacity="1" stroke-width="4.028731700848027" stroke="black" fill="black"></line><line x1="239.8563414957599" y1="261.37952513093325" x2="239.8563414957599" y2="274.7413165636565" stroke-linecap="round" stroke-opacity="1" stroke-width="4.028731700848027" stroke="black" fill="black"></line><line x1="239.8563414957599" y1="261.37952513093325" x2="239.8563414957599" y2="248.01773369821" stroke-linecap="round" stroke-opacity="1" stroke-width="4.028731700848027" stroke="black" fill="black"></line><line x1="239.8563414957599" y1="234.65594226548677" x2="239.8563414957599" y2="248.01773369821" stroke-linecap="round" stroke-opacity="1" stroke-width="4.028731700848027" stroke="black" fill="black"></line><line x1="239.8563414957599" y1="234.65594226548677" x2="239.8563414957599" y2="221.29415083276353" stroke-linecap="round" stroke-opacity="1" stroke-width="4.028731700848027" stroke="black" fill="black"></line><line x1="239.8563414957599" y1="207.9323594000403" x2="239.8563414957599" y2="221.29415083276353" stroke-linecap="round" stroke-opacity="1" stroke-width="4.028731700848027" stroke="black" fill="black"></line><line x1="239.8563414957599" y1="207.9323594000403" x2="239.85634149575992" y2="194.57056796731706" stroke-linecap="round" stroke-opacity="1" stroke-width="4.028731700848027" stroke="black" fill="black"></line><line x1="239.85634149575992" y1="181.20877653459382" x2="239.85634149575992" y2="194.57056796731706" stroke-linecap="round" stroke-opacity="1" stroke-width="4.028731700848027" stroke="black" fill="black"></line><line x1="239.85634149575992" y1="181.20877653459382" x2="239.85634149575992" y2="167.8469851018706" stroke-linecap="round" stroke-opacity="1" stroke-width="4.028731700848027" stroke="black" fill="black"></line><line x1="239.8563414957599" y1="154.48519366914735" x2="239.85634149575992" y2="167.8469851018706" stroke-linecap="round" stroke-opacity="1" stroke-width="4.028731700848027" stroke="black" fill="black"></line><line x1="280.14365850424014" y1="154.48519366914738" x2="280.14365850424014" y2="167.84698510187062" stroke-linecap="round" stroke-opacity="1" stroke-width="4.028731700848027" stroke="black" fill="black"></line><line x1="280.14365850424014" y1="181.20877653459385" x2="280.14365850424014" y2="167.84698510187062" stroke-linecap="round" stroke-opacity="1" stroke-width="4.028731700848027" stroke="black" fill="black"></line><line x1="280.14365850424014" y1="181.20877653459385" x2="280.14365850424014" y2="194.57056796731712" stroke-linecap="round" stroke-opacity="1" stroke-width="4.028731700848027" stroke="black" fill="black"></line><line x1="280.14365850424014" y1="207.93235940004033" x2="280.14365850424014" y2="194.57056796731712" stroke-linecap="round" stroke-opacity="1" stroke-width="4.028731700848027" stroke="black" fill="black"></line><line x1="280.14365850424014" y1="207.93235940004033" x2="280.14365850424014" y2="221.29415083276353" stroke-linecap="round" stroke-opacity="1" stroke-width="4.028731700848027" stroke="black" fill="black"></line><line x1="280.14365850424014" y1="234.65594226548677" x2="280.14365850424014" y2="221.29415083276353" stroke-linecap="round" stroke-opacity="1" stroke-width="4.028731700848027" stroke="black" fill="black"></line><line x1="280.14365850424014" y1="234.65594226548677" x2="280.14365850424014" y2="248.01773369821" stroke-linecap="round" stroke-opacity="1" stroke-width="4.028731700848027" stroke="black" fill="black"></line><line x1="280.14365850424014" y1="261.37952513093325" x2="280.14365850424014" y2="248.01773369821" stroke-linecap="round" stroke-opacity="1" stroke-width="4.028731700848027" stroke="black" fill="black"></line><line x1="280.14365850424014" y1="261.37952513093325" x2="280.14365850424014" y2="274.7413165636565" stroke-linecap="round" stroke-opacity="1" stroke-width="4.028731700848027" stroke="black" fill="black"></line><line x1="280.14365850424014" y1="288.1031079963797" x2="280.14365850424014" y2="274.7413165636565" stroke-linecap="round" stroke-opacity="1" stroke-width="4.028731700848027" stroke="black" fill="black"></line><line x1="280.14365850424014" y1="288.1031079963797" x2="280.14365850424014" y2="301.46489942910296" stroke-linecap="round" stroke-opacity="1" stroke-width="4.028731700848027" stroke="black" fill="black"></line><line x1="280.1436585042401" y1="314.82669086182614" x2="280.14365850424014" y2="301.46489942910296" stroke-linecap="round" stroke-opacity="1" stroke-width="4.028731700848027" stroke="black" fill="black"></line></g><g><path d="M 197.19131591128416 487.49490392661903 A 98.66082104101599 98.66082104101599 0 0 0 213.92265295027062 498.6493532083745" fill="none" stroke-linejoin="round" stroke-linecap="round" stroke-width="4.028731700848027" stroke="black"></path><path d="M 183.06912116013206 473.1797723064785 A 98.66082104101599 98.66082104101599 0 0 0 197.19131591128416 487.49490392661903" fill="none" stroke-linejoin="round" stroke-linecap="round" stroke-width="4.028731700848027" stroke="black"></path><path d="M 172.14272030489803 456.29862476722167 A 98.66082104101599 98.66082104101599 0 0 0 183.06912116013206 473.1797723064785" fill="none" stroke-linejoin="round" stroke-linecap="round" stroke-width="4.028731700848027" stroke="black"></path><path d="M 164.86600813638756 437.55272287085864 A 98.66082104101599 98.66082104101599 0 0 0 172.14272030489803 456.29862476722167" fill="none" stroke-linejoin="round" stroke-linecap="round" stroke-width="4.028731700848027" stroke="black"></path><path d="M 161.54126733590067 417.7207921403172 A 98.66082104101599 98.66082104101599 0 0 0 164.86600813638756 437.55272287085864" fill="none" stroke-linejoin="round" stroke-linecap="round" stroke-width="4.028731700848027" stroke="black"></path><path d="M 162.30661131791976 397.626672938904 A 98.66082104101599 98.66082104101599 0 0 0 161.54126733590067 417.7207921403172" fill="none" stroke-linejoin="round" stroke-linecap="round" stroke-width="4.028731700848027" stroke="black"></path><path d="M 167.13024684593307 378.10509722933836 A 98.66082104101599 98.66082104101599 0 0 0 162.30661131791976 397.626672938904" fill="none" stroke-linejoin="round" stroke-linecap="round" stroke-width="4.028731700848027" stroke="black"></path><path d="M 175.81179475868532 359.9670128836859 A 98.66082104101599 98.66082104101599 0 0 0 167.13024684593307 378.10509722933836" fill="none" stroke-linejoin="round" stroke-linecap="round" stroke-width="4.028731700848027" stroke="black"></path><path d="M 187.99061394242509 343.96589601075516 A 98.66082104101599 98.66082104101599 0 0 0 175.81179475868532 359.9670128836859" fill="none" stroke-linejoin="round" stroke-linecap="round" stroke-width="4.028731700848027" stroke="black"></path><path d="M 203.16078276212326 330.76645072418074 A 98.66082104101599 98.66082104101599 0 0 0 187.99061394242509 343.96589601075516" fill="none" stroke-linejoin="round" stroke-linecap="round" stroke-width="4.028731700848027" stroke="black"></path><path d="M 220.69211560642157 320.91699659748707 A 98.66082104101599 98.66082104101599 0 0 0 203.16078276212326 330.76645072418074" fill="none" stroke-linejoin="round" stroke-linecap="round" stroke-width="4.028731700848027" stroke="black"></path><path d="M 239.85634149576006 314.82669086182614 A 98.66082104101599 98.66082104101599 0 0 0 220.69211560642157 320.91699659748707" fill="none" stroke-linejoin="round" stroke-linecap="round" stroke-width="4.028731700848027" stroke="black"></path><path d="M 226.05694478722816 140.12163672756026 A 38.80139309019457 38.80139309019457 0 0 0 239.8563414957599 154.48519366914735" fill="none" stroke-linejoin="round" stroke-linecap="round" stroke-width="4.028731700848027" stroke="black"></path><path d="M 221.2020659907781 120.8041506228563 A 38.80139309019457 38.80139309019457 0 0 0 226.05694478722816 140.12163672756026" fill="none" stroke-linejoin="round" stroke-linecap="round" stroke-width="4.028731700848027" stroke="black"></path><path d="M 226.57104045449861 101.6231905128522 A 38.80139309019457 38.80139309019457 0 0 0 221.2020659907781 120.8041506228563" fill="none" stroke-linejoin="round" stroke-linecap="round" stroke-width="4.028731700848027" stroke="black"></path><path d="M 240.74906070277433 87.633234852696 A 38.80139309019457 38.80139309019457 0 0 0 226.57104045449861 101.6231905128522" fill="none" stroke-linejoin="round" stroke-linecap="round" stroke-width="4.028731700848027" stroke="black"></path><path d="M 260 82.5208524620505 A 38.80139309019457 38.80139309019457 0 0 0 240.74906070277433 87.633234852696" fill="none" stroke-linejoin="round" stroke-linecap="round" stroke-width="4.028731700848027" stroke="black"></path><path d="M 279.2509392972257 87.633234852696 A 38.80139309019457 38.80139309019457 0 0 0 260 82.5208524620505" fill="none" stroke-linejoin="round" stroke-linecap="round" stroke-width="4.028731700848027" stroke="black"></path><path d="M 293.4289595455014 101.62319051285218 A 38.80139309019457 38.80139309019457 0 0 0 279.2509392972257 87.633234852696" fill="none" stroke-linejoin="round" stroke-linecap="round" stroke-width="4.028731700848027" stroke="black"></path><path d="M 298.797934009222 120.80415062285627 A 38.80139309019457 38.80139309019457 0 0 0 293.4289595455014 101.62319051285218" fill="none" stroke-linejoin="round" stroke-linecap="round" stroke-width="4.028731700848027" stroke="black"></path><path d="M 293.9430552127719 140.12163672756026 A 38.80139309019457 38.80139309019457 0 0 0 298.797934009222 120.80415062285627" fill="none" stroke-linejoin="round" stroke-linecap="round" stroke-width="4.028731700848027" stroke="black"></path><path d="M 280.1436585042402 154.48519366914735 A 38.80139309019457 38.80139309019457 0 0 0 293.9430552127719 140.12163672756026" fill="none" stroke-linejoin="round" stroke-linecap="round" stroke-width="4.028731700848027" stroke="black"></path><path d="M 299.30788439357855 320.9169965974871 A 98.66082104101599 98.66082104101599 0 0 0 280.1436585042401 314.82669086182614" fill="none" stroke-linejoin="round" stroke-linecap="round" stroke-width="4.028731700848027" stroke="black"></path><path d="M 316.8392172378768 330.7664507241808 A 98.66082104101599 98.66082104101599 0 0 0 299.30788439357855 320.9169965974871" fill="none" stroke-linejoin="round" stroke-linecap="round" stroke-width="4.028731700848027" stroke="black"></path><path d="M 332.009386057575 343.9658960107553 A 98.66082104101599 98.66082104101599 0 0 0 316.8392172378768 330.7664507241808" fill="none" stroke-linejoin="round" stroke-linecap="round" stroke-width="4.028731700848027" stroke="black"></path><path d="M 344.1882052413147 359.967012883686 A 98.66082104101599 98.66082104101599 0 0 0 332.009386057575 343.9658960107553" fill="none" stroke-linejoin="round" stroke-linecap="round" stroke-width="4.028731700848027" stroke="black"></path><path d="M 352.8697531540669 378.1050972293384 A 98.66082104101599 98.66082104101599 0 0 0 344.1882052413147 359.967012883686" fill="none" stroke-linejoin="round" stroke-linecap="round" stroke-width="4.028731700848027" stroke="black"></path><path d="M 357.6933886820802 397.6266729389041 A 98.66082104101599 98.66082104101599 0 0 0 352.8697531540669 378.1050972293384" fill="none" stroke-linejoin="round" stroke-linecap="round" stroke-width="4.028731700848027" stroke="black"></path><path d="M 358.4587326640993 417.72079214031726 A 98.66082104101599 98.66082104101599 0 0 0 357.6933886820802 397.6266729389041" fill="none" stroke-linejoin="round" stroke-linecap="round" stroke-width="4.028731700848027" stroke="black"></path><path d="M 355.1339918636124 437.5527228708587 A 98.66082104101599 98.66082104101599 0 0 0 358.4587326640993 417.72079214031726" fill="none" stroke-linejoin="round" stroke-linecap="round" stroke-width="4.028731700848027" stroke="black"></path><path d="M 347.85727969510197 456.29862476722167 A 98.66082104101599 98.66082104101599 0 0 0 355.1339918636124 437.5527228708587" fill="none" stroke-linejoin="round" stroke-linecap="round" stroke-width="4.028731700848027" stroke="black"></path><path d="M 336.9308788398679 473.1797723064785 A 98.66082104101599 98.66082104101599 0 0 0 347.85727969510197 456.29862476722167" fill="none" stroke-linejoin="round" stroke-linecap="round" stroke-width="4.028731700848027" stroke="black"></path><path d="M 322.8086840887158 487.49490392661903 A 98.66082104101599 98.66082104101599 0 0 0 336.9308788398679 473.1797723064785" fill="none" stroke-linejoin="round" stroke-linecap="round" stroke-width="4.028731700848027" stroke="black"></path><path d="M 306.0773470497294 498.6493532083745 A 98.66082104101599 98.66082104101599 0 0 0 322.8086840887158 487.49490392661903" fill="none" stroke-linejoin="round" stroke-linecap="round" stroke-width="4.028731700848027" stroke="black"></path><path d="M 287.4319059908457 506.1797519767738 A 98.66082104101599 98.66082104101599 0 0 0 306.0773470497294 498.6493532083745" fill="none" stroke-linejoin="round" stroke-linecap="round" stroke-width="4.028731700848027" stroke="black"></path><path d="M 267.64691318055895 509.7732791282391 A 98.66082104101599 98.66082104101599 0 0 0 287.4319059908457 506.1797519767738" fill="none" stroke-linejoin="round" stroke-linecap="round" stroke-width="4.028731700848027" stroke="black"></path></g><g id="letters"></g><g id="strands"></g><g></g><g></g><g></g><g></g><g></g><g></g><g></g><g></g><g></g><g></g><g></g><g></g><g></g><g></g><g></g><g></g><g></g><g></g><g></g><g></g><g></g><g></g><g></g><g></g><g></g><g></g><g></g><g></g><g></g><g></g><g></g><g><rect width="15" height="15" fill="#900c00" x="530" y="50"></rect><rect width="15" height="15" fill="#900c00" x="530" y="55"></rect><rect width="15" height="15" fill="#920c00" x="530" y="60"></rect><rect width="15" height="15" fill="#950c00" x="530" y="65"></rect><rect width="15" height="15" fill="#980e00" x="530" y="70"></rect><rect width="15" height="15" fill="#9d1000" x="530" y="75"></rect><rect width="15" height="15" fill="#a21202" x="530" y="80"></rect><rect width="15" height="15" fill="#a71503" x="530" y="85"></rect><rect width="15" height="15" fill="#ad1905" x="530" y="90"></rect><rect width="15" height="15" fill="#b41d07" x="530" y="95"></rect><rect width="15" height="15" fill="#ba2208" x="530" y="100"></rect><rect width="15" height="15" fill="#c1260a" x="530" y="105"></rect><rect width="15" height="15" fill="#c72c0c" x="530" y="110"></rect><rect width="15" height="15" fill="#ce310d" x="530" y="115"></rect><rect width="15" height="15" fill="#d5370f" x="530" y="120"></rect><rect width="15" height="15" fill="#db3d11" x="530" y="125"></rect><rect width="15" height="15" fill="#e14412" x="530" y="130"></rect><rect width="15" height="15" fill="#e74a13" x="530" y="135"></rect><rect width="15" height="15" fill="#ec5115" x="530" y="140"></rect><rect width="15" height="15" fill="#f15816" x="530" y="145"></rect><rect width="15" height="15" fill="#f65f18" x="530" y="150"></rect><rect width="15" height="15" fill="#fa6619" x="530" y="155"></rect><rect width="15" height="15" fill="#fd6d1a" x="530" y="160"></rect><rect width="15" height="15" fill="#ff741b" x="530" y="165"></rect><rect width="15" height="15" fill="#ff7b1c" x="530" y="170"></rect><rect width="15" height="15" fill="#ff821d" x="530" y="175"></rect><rect width="15" height="15" fill="#ff891e" x="530" y="180"></rect><rect width="15" height="15" fill="#ff9020" x="530" y="185"></rect><rect width="15" height="15" fill="#ff9721" x="530" y="190"></rect><rect width="15" height="15" fill="#ff9e22" x="530" y="195"></rect><rect width="15" height="15" fill="#ffa423" x="530" y="200"></rect><rect width="15" height="15" fill="#ffab24" x="530" y="205"></rect><rect width="15" height="15" fill="#ffb125" x="530" y="210"></rect><rect width="15" height="15" fill="#ffb727" x="530" y="215"></rect><rect width="15" height="15" fill="#fcbd28" x="530" y="220"></rect><rect width="15" height="15" fill="#f8c32a" x="530" y="225"></rect><rect width="15" height="15" fill="#f4c92b" x="530" y="230"></rect><rect width="15" height="15" fill="#efce2d" x="530" y="235"></rect><rect width="15" height="15" fill="#ead32e" x="530" y="240"></rect><rect width="15" height="15" fill="#e4d830" x="530" y="245"></rect><rect width="15" height="15" fill="#dedd32" x="530" y="250"></rect><rect width="15" height="15" fill="#d8e135" x="530" y="255"></rect><rect width="15" height="15" fill="#d1e537" x="530" y="260"></rect><rect width="15" height="15" fill="#cae93a" x="530" y="265"></rect><rect width="15" height="15" fill="#c3ec3c" x="530" y="270"></rect><rect width="15" height="15" fill="#bbf03f" x="530" y="275"></rect><rect width="15" height="15" fill="#b4f242" x="530" y="280"></rect><rect width="15" height="15" fill="#acf545" x="530" y="285"></rect><rect width="15" height="15" fill="#a4f749" x="530" y="290"></rect><rect width="15" height="15" fill="#9cf94d" x="530" y="295"></rect><rect width="15" height="15" fill="#95fb51" x="530" y="300"></rect><rect width="15" height="15" fill="#8dfc55" x="530" y="305"></rect><rect width="15" height="15" fill="#85fd59" x="530" y="310"></rect><rect width="15" height="15" fill="#7dfd5e" x="530" y="315"></rect><rect width="15" height="15" fill="#76fe63" x="530" y="320"></rect><rect width="15" height="15" fill="#6efe68" x="530" y="325"></rect><rect width="15" height="15" fill="#67fd6d" x="530" y="330"></rect><rect width="15" height="15" fill="#60fc72" x="530" y="335"></rect><rect width="15" height="15" fill="#59fb78" x="530" y="340"></rect><rect width="15" height="15" fill="#53fa7e" x="530" y="345"></rect><rect width="15" height="15" fill="#4df884" x="530" y="350"></rect><rect width="15" height="15" fill="#47f68a" x="530" y="355"></rect><rect width="15" height="15" fill="#42f490" x="530" y="360"></rect><rect width="15" height="15" fill="#3df196" x="530" y="365"></rect><rect width="15" height="15" fill="#38ee9d" x="530" y="370"></rect><rect width="15" height="15" fill="#34eba3" x="530" y="375"></rect><rect width="15" height="15" fill="#31e8aa" x="530" y="380"></rect><rect width="15" height="15" fill="#2de4b0" x="530" y="385"></rect><rect width="15" height="15" fill="#2be0b7" x="530" y="390"></rect><rect width="15" height="15" fill="#29dbbd" x="530" y="395"></rect><rect width="15" height="15" fill="#27d7c4" x="530" y="400"></rect><rect width="15" height="15" fill="#26d2ca" x="530" y="405"></rect><rect width="15" height="15" fill="#25cdd0" x="530" y="410"></rect><rect width="15" height="15" fill="#25c7d6" x="530" y="415"></rect><rect width="15" height="15" fill="#25c2dc" x="530" y="420"></rect><rect width="15" height="15" fill="#26bce1" x="530" y="425"></rect><rect width="15" height="15" fill="#27b6e6" x="530" y="430"></rect><rect width="15" height="15" fill="#29b0eb" x="530" y="435"></rect><rect width="15" height="15" fill="#2aaaef" x="530" y="440"></rect><rect width="15" height="15" fill="#2da4f2" x="530" y="445"></rect><rect width="15" height="15" fill="#2f9df5" x="530" y="450"></rect><rect width="15" height="15" fill="#3296f7" x="530" y="455"></rect><rect width="15" height="15" fill="#3590f8" x="530" y="460"></rect><rect width="15" height="15" fill="#3889f9" x="530" y="465"></rect><rect width="15" height="15" fill="#3b82f8" x="530" y="470"></rect><rect width="15" height="15" fill="#3e7bf7" x="530" y="475"></rect><rect width="15" height="15" fill="#4174f4" x="530" y="480"></rect><rect width="15" height="15" fill="#436df1" x="530" y="485"></rect><rect width="15" height="15" fill="#4666eb" x="530" y="490"></rect><rect width="15" height="15" fill="#485fe5" x="530" y="495"></rect><rect width="15" height="15" fill="#4a58dd" x="530" y="500"></rect><rect width="15" height="15" fill="#4b51d3" x="530" y="505"></rect><rect width="15" height="15" fill="#4b4ac7" x="530" y="510"></rect><rect width="15" height="15" fill="#4a43ba" x="530" y="515"></rect><rect width="15" height="15" fill="#493caa" x="530" y="520"></rect><rect width="15" height="15" fill="#463699" x="530" y="525"></rect><rect width="15" height="15" fill="#422f85" x="530" y="530"></rect><rect width="15" height="15" fill="#3d296e" x="530" y="535"></rect><rect width="15" height="15" fill="#362356" x="530" y="540"></rect><text font-weight="500" font-family="Avenir Next, Helvetica, Arial" font-size="13" x="547" y="62.681339263916016"><tspan dy="0" x="547">1.0</tspan></text><text font-weight="500" font-family="Avenir Next, Helvetica, Arial" font-size="13" x="547" y="112.68133926391602"><tspan dy="0" x="547">0.9</tspan></text><text font-weight="500" font-family="Avenir Next, Helvetica, Arial" font-size="13" x="547" y="162.68133926391602"><tspan dy="0" x="547">0.8</tspan></text><text font-weight="500" font-family="Avenir Next, Helvetica, Arial" font-size="13" x="547" y="212.68133926391602"><tspan dy="0" x="547">0.7</tspan></text><text font-weight="500" font-family="Avenir Next, Helvetica, Arial" font-size="13" x="547" y="262.681339263916"><tspan dy="0" x="547">0.6</tspan></text><text font-weight="500" font-family="Avenir Next, Helvetica, Arial" font-size="13" x="547" y="312.681339263916"><tspan dy="0" x="547">0.5</tspan></text><text font-weight="500" font-family="Avenir Next, Helvetica, Arial" font-size="13" x="547" y="362.681339263916"><tspan dy="0" x="547">0.4</tspan></text><text font-weight="500" font-family="Avenir Next, Helvetica, Arial" font-size="13" x="547" y="412.681339263916"><tspan dy="0" x="547">0.3</tspan></text><text font-weight="500" font-family="Avenir Next, Helvetica, Arial" font-size="13" x="547" y="462.681339263916"><tspan dy="0" x="547">0.2</tspan></text><text font-weight="500" font-family="Avenir Next, Helvetica, Arial" font-size="13" x="547" y="512.681339263916"><tspan dy="0" x="547">0.1</tspan></text><text font-weight="500" font-family="Avenir Next, Helvetica, Arial" font-size="13" x="547" y="562.681339263916"><tspan dy="0" x="547">0.0</tspan></text><text font-weight="500" font-family="Avenir Next, Helvetica, Arial" font-size="15" x="547" y="315.3987693786621" transform="matrix(6.123233995736766e-17,1,-1,6.123233995736766e-17,936.1090517044067,-315.2754240036011)"><tspan dy="0" x="547">Equilibrium Probability</tspan></text></g><g><text font-weight="500" font-family="Avenir Next, Helvetica, Arial" font-size="15" x="163.58078002929688" y="29.981955528259277"><tspan dy="0" x="163.58078002929688">MFE proxy structure at 40°C</tspan></text><text font-weight="500" font-family="Avenir Next, Helvetica, Arial" x="74.00466918945312" font-size="15" y="564.9819555282593"><tspan dy="0" x="74.00466918945312">Free energy of the secondary structure: -6.31 kcal/mol</tspan></text></g><g><line x1="267.64691318055895" y1="509.7732791282391" x2="254.25820493554508" y2="510.81413003606275" stroke-linecap="round" stroke-opacity="1" stroke-width="4.028731700848027" stroke="black"></line><line x1="267.64691318055895" y1="509.7732791282391" x2="254.25820493554508" y2="510.81413003606275" stroke-linecap="round" stroke-opacity="1" stroke-width="4.028731700848027" stroke="black" marker-end="url(#arrowblack)"></line></g><defs><marker markerWidth="3" markerHeight="3" refX="10" refY="10" viewBox="0 0 20 20" orient="auto" id="arrowblack" markerUnits="strokeWidth"><path d="M0 0 10 0 20 10 10 20 0 20 10 10Z" fill="black"></path></marker></defs><style>@font-face{font-family:Avenir Next, Helvetica, Arial;src:https://fonts.googleapis.com/css?family=Avenir+Next:300,400,500,600,700&amp;amp;lang=en;}</style><g></g><use xlink:href="#top"></use></svg>