<svg xmlns="http://www.w3.org/2000/svg" version="1.1" xmlns:xlink="http://www.w3.org/1999/xlink" xmlns:svgjs="http://svgjs.dev/svgjs" viewBox="0 0 650 600" width="100%"><g id="top"><g><circle r="5.551484742860635" cx="166.60547949930876" cy="326.52494836264134" fill="#900c00" stroke-width="1.8504949142868783" stroke="#900c00"></circle></g><g><circle r="5.551484742860635" cx="161.91975830823839" cy="290.91066745863964" fill="#910c00" stroke-width="1.8504949142868783" stroke="#910c00"></circle></g><g><circle r="5.551484742860635" cx="185.42051114704856" cy="263.74363590569396" fill="#be2409" stroke-width="1.8504949142868783" stroke="#be2409"></circle></g><g><circle r="5.551484742860635" cx="185.42051114704856" cy="239.19404667709213" fill="#950c00" stroke-width="1.8504949142868783" stroke="#950c00"></circle></g><g><circle r="5.551484742860635" cx="185.42051114704856" cy="214.6444574484903" fill="#950c00" stroke-width="1.8504949142868783" stroke="#950c00"></circle></g><g><circle r="5.551484742860635" cx="185.42051114704856" cy="190.0948682198885" fill="#980e00" stroke-width="1.8504949142868783" stroke="#980e00"></circle></g><g><circle r="5.551484742860635" cx="185.42051114704856" cy="165.54527899128666" fill="#ca2e0c" stroke-width="1.8504949142868783" stroke="#ca2e0c"></circle></g><g><circle r="5.551484742860635" cx="163.43245026146835" cy="137.3028849461302" fill="#900c00" stroke-width="1.8504949142868783" stroke="#900c00"></circle></g><g><circle r="5.551484742860635" cx="171.64129866077445" cy="102.46436530382795" fill="#900c00" stroke-width="1.8504949142868783" stroke="#900c00"></circle></g><g><circle r="5.551484742860635" cx="203.9254602899174" cy="87.00989828573762" fill="#900c00" stroke-width="1.8504949142868783" stroke="#900c00"></circle></g><g><circle r="5.551484742860635" cx="236.20962191906034" cy="102.46436530382803" fill="#900c00" stroke-width="1.8504949142868783" stroke="#900c00"></circle></g><g><circle r="5.551484742860635" cx="244.4184703183664" cy="137.30288494613026" fill="#900c00" stroke-width="1.8504949142868783" stroke="#900c00"></circle></g><g><circle r="5.551484742860635" cx="222.43040943278618" cy="165.54527899128666" fill="#ca2e0c" stroke-width="1.8504949142868783" stroke="#ca2e0c"></circle></g><g><circle r="5.551484742860635" cx="222.43040943278618" cy="190.0948682198885" fill="#980e00" stroke-width="1.8504949142868783" stroke="#980e00"></circle></g><g><circle r="5.551484742860635" cx="222.43040943278618" cy="214.6444574484903" fill="#950c00" stroke-width="1.8504949142868783" stroke="#950c00"></circle></g><g><circle r="5.551484742860635" cx="222.43040943278615" cy="239.19404667709216" fill="#950c00" stroke-width="1.8504949142868783" stroke="#950c00"></circle></g><g><circle r="5.551484742860635" cx="222.43040943278615" cy="263.74363590569396" fill="#be2409" stroke-width="1.8504949142868783" stroke="#be2409"></circle></g><g><circle r="5.551484742860635" cx="245.9311622715963" cy="290.91066745863964" fill="#900c00" stroke-width="1.8504949142868783" stroke="#900c00"></circle></g><g><circle r="5.551484742860635" cx="241.24544108052592" cy="326.52494836264134" fill="#25c9d5" stroke-width="1.8504949142868783" stroke="#25c9d5"></circle></g><g><circle r="5.551484742860635" cx="254.74737525210134" cy="347.02812140779525" fill="#b4f242" stroke-width="1.8504949142868783" stroke="#b4f242"></circle></g><g><circle r="5.551484742860635" cx="268.2493094236768" cy="367.53129445294917" fill="#dcde33" stroke-width="1.8504949142868783" stroke="#dcde33"></circle></g><g><circle r="5.551484742860635" cx="281.7512435952522" cy="388.03446749810314" fill="#c0ee3d" stroke-width="1.8504949142868783" stroke="#c0ee3d"></circle></g><g><circle r="5.551484742860635" cx="295.2531777668276" cy="408.537640543257" fill="#33eaa4" stroke-width="1.8504949142868783" stroke="#33eaa4"></circle></g><g><circle r="5.551484742860635" cx="331.2518575209434" cy="412.93607694929585" fill="#9a0f00" stroke-width="1.8504949142868783" stroke="#9a0f00"></circle></g><g><circle r="5.551484742860635" cx="356.0450550302096" cy="439.4039545393837" fill="#cd310d" stroke-width="1.8504949142868783" stroke="#cd310d"></circle></g><g><circle r="5.551484742860635" cx="358.08449355582934" cy="475.6129572508306" fill="#a01101" stroke-width="1.8504949142868783" stroke="#a01101"></circle></g><g><circle r="5.551484742860635" cx="336.4202350965902" cy="504.6975079997874" fill="#a51403" stroke-width="1.8504949142868783" stroke="#a51403"></circle></g><g><circle r="5.551484742860635" cx="301.1431463886042" cy="513.1104860186724" fill="#b41d07" stroke-width="1.8504949142868783" stroke="#b41d07"></circle></g><g><circle r="5.551484742860635" cx="268.68473380722475" cy="496.93326006505777" fill="#c0260a" stroke-width="1.8504949142868783" stroke="#c0260a"></circle></g><g><circle r="5.551484742860635" cx="254.16360925604835" cy="463.70092447716104" fill="#990e00" stroke-width="1.8504949142868783" stroke="#990e00"></circle></g><g><circle r="5.551484742860635" cx="264.34348140205304" cy="428.89257217561783" fill="#33eaa4" stroke-width="1.8504949142868783" stroke="#33eaa4"></circle></g><g><circle r="5.551484742860635" cx="250.84154723047757" cy="408.3893991304639" fill="#c0ee3d" stroke-width="1.8504949142868783" stroke="#c0ee3d"></circle></g><g><circle r="5.551484742860635" cx="237.33961305890216" cy="387.88622608531" fill="#dcde33" stroke-width="1.8504949142868783" stroke="#dcde33"></circle></g><g><circle r="5.551484742860635" cx="223.83767888732672" cy="367.383053040156" fill="#b4f242" stroke-width="1.8504949142868783" stroke="#b4f242"></circle></g><g><circle r="5.551484742860635" cx="210.3357447157513" cy="346.8798799950021" fill="#25c9d5" stroke-width="1.8504949142868783" stroke="#25c9d5"></circle></g></g><g><g></g><g></g><g></g><g></g><g><line x1="185.42051114704856" y1="263.74363590569396" x2="203.92546028991734" y2="263.74363590569396" stroke-linecap="round" stroke-width="1.8504949142868783" stroke="black" fill="black"></line><g></g></g><g></g><g><line x1="185.42051114704856" y1="239.19404667709213" x2="203.92546028991734" y2="239.19404667709213" stroke-linecap="round" stroke-width="1.8504949142868783" stroke="black" fill="black"></line><g></g></g><g></g><g><line x1="185.42051114704856" y1="214.6444574484903" x2="203.92546028991737" y2="214.6444574484903" stroke-linecap="round" stroke-width="1.8504949142868783" stroke="black" fill="black"></line><g></g></g><g></g><g><line x1="185.42051114704856" y1="190.0948682198885" x2="203.92546028991737" y2="190.0948682198885" stroke-linecap="round" stroke-width="1.8504949142868783" stroke="black" fill="black"></line><g></g></g><g></g><g><line x1="185.42051114704856" y1="165.54527899128666" x2="203.92546028991737" y2="165.54527899128666" stroke-linecap="round" stroke-width="1.8504949142868783" stroke="black" fill="black"></line><g></g></g><g></g><g></g><g></g><g></g><g></g><g></g><g></g><g></g><g></g><g></g><g></g><g><line x1="222.43040943278618" y1="165.54527899128666" x2="203.92546028991737" y2="165.54527899128666" stroke-linecap="round" stroke-width="1.8504949142868783" stroke="black" fill="black"></line><g></g></g><g></g><g><line x1="222.43040943278618" y1="190.0948682198885" x2="203.92546028991737" y2="190.0948682198885" stroke-linecap="round" stroke-width="1.8504949142868783" stroke="black" fill="black"></line><g></g></g><g></g><g><line x1="222.43040943278618" y1="214.6444574484903" x2="203.92546028991737" y2="214.6444574484903" stroke-linecap="round" stroke-width="1.8504949142868783" stroke="black" fill="black"></line><g></g></g><g></g><g><line x1="222.43040943278615" y1="239.19404667709216" x2="203.92546028991734" y2="239.19404667709213" stroke-linecap="round" stroke-width="1.8504949142868783" stroke="black" fill="black"></line><g></g></g><g></g><g><line x1="222.43040943278615" y1="263.74363590569396" x2="203.92546028991734" y2="263.74363590569396" stroke-linecap="round" stroke-width="1.8504949142868783" stroke="black" fill="black"></line><g></g></g><g></g><g></g><g></g><g><line x1="241.24544108052592" y1="326.52494836264134" x2="225.7905928981386" y2="336.7024141788217" stroke-linecap="round" stroke-width="1.8504949142868783" stroke="black" fill="black"></line><g></g></g><g></g><g><line x1="254.74737525210134" y1="347.02812140779525" x2="239.29252706971403" y2="357.20558722397567" stroke-linecap="round" stroke-width="1.8504949142868783" stroke="black" fill="black"></line><g></g></g><g></g><g><line x1="268.2493094236768" y1="367.53129445294917" x2="252.79446124128947" y2="377.7087602691296" stroke-linecap="round" stroke-width="1.8504949142868783" stroke="black" fill="black"></line><g></g></g><g></g><g><line x1="281.7512435952522" y1="388.03446749810314" x2="266.2963954128649" y2="398.2119333142835" stroke-linecap="round" stroke-width="1.8504949142868783" stroke="black" fill="black"></line><g></g></g><g></g><g><line x1="295.2531777668276" y1="408.537640543257" x2="279.7983295844403" y2="418.7151063594374" stroke-linecap="round" stroke-width="1.8504949142868783" stroke="black" fill="black"></line><g></g></g><g></g><g></g><g></g><g></g><g></g><g></g><g></g><g></g><g></g><g></g><g></g><g></g><g></g><g></g><g></g><g><line x1="264.34348140205304" y1="428.89257217561783" x2="279.7983295844403" y2="418.7151063594374" stroke-linecap="round" stroke-width="1.8504949142868783" stroke="black" fill="black"></line><g></g></g><g></g><g><line x1="250.84154723047757" y1="408.3893991304639" x2="266.2963954128649" y2="398.2119333142835" stroke-linecap="round" stroke-width="1.8504949142868783" stroke="black" fill="black"></line><g></g></g><g></g><g><line x1="237.33961305890216" y1="387.88622608531" x2="252.79446124128947" y2="377.7087602691296" stroke-linecap="round" stroke-width="1.8504949142868783" stroke="black" fill="black"></line><g></g></g><g></g><g><line x1="223.83767888732672" y1="367.383053040156" x2="239.29252706971403" y2="357.20558722397567" stroke-linecap="round" stroke-width="1.8504949142868783" stroke="black" fill="black"></line><g></g></g><g></g><g><line x1="210.3357447157513" y1="346.8798799950021" x2="225.7905928981386" y2="336.7024141788217" stroke-linecap="round" stroke-width="1.8504949142868783" stroke="black" fill="black"></line><g></g></g><g></g></g><g><line x1="185.42051114704856" y1="263.74363590569396" x2="185.42051114704856" y2="251.46884129139306" stroke-linecap="round" stroke-opacity="1" stroke-width="3.7009898285737566" stroke="black" fill="black"></line><line x1="185.42051114704856" y1="239.19404667709213" x2="185.42051114704856" y2="251.46884129139306" stroke-linecap="round" stroke-opacity="1" stroke-width="3.7009898285737566" stroke="black" fill="black"></line><line x1="185.42051114704856" y1="239.19404667709213" x2="185.42051114704856" y2="226.9192520627912" stroke-linecap="round" stroke-opacity="1" stroke-width="3.7009898285737566" stroke="black" fill="black"></line><line x1="185.42051114704856" y1="214.6444574484903" x2="185.42051114704856" y2="226.9192520627912" stroke-linecap="round" stroke-opacity="1" stroke-width="3.7009898285737566" stroke="black" fill="black"></line><line x1="185.42051114704856" y1="214.6444574484903" x2="185.42051114704856" y2="202.3696628341894" stroke-linecap="round" stroke-opacity="1" stroke-width="3.7009898285737566" stroke="black" fill="black"></line><line x1="185.42051114704856" y1="190.0948682198885" x2="185.42051114704856" y2="202.3696628341894" stroke-linecap="round" stroke-opacity="1" stroke-width="3.7009898285737566" stroke="black" fill="black"></line><line x1="185.42051114704856" y1="190.0948682198885" x2="185.42051114704856" y2="177.8200736055876" stroke-linecap="round" stroke-opacity="1" stroke-width="3.7009898285737566" stroke="black" fill="black"></line><line x1="185.42051114704856" y1="165.54527899128666" x2="185.42051114704856" y2="177.8200736055876" stroke-linecap="round" stroke-opacity="1" stroke-width="3.7009898285737566" stroke="black" fill="black"></line><line x1="222.43040943278618" y1="165.54527899128666" x2="222.43040943278618" y2="177.8200736055876" stroke-linecap="round" stroke-opacity="1" stroke-width="3.7009898285737566" stroke="black" fill="black"></line><line x1="222.43040943278618" y1="190.0948682198885" x2="222.43040943278618" y2="177.8200736055876" stroke-linecap="round" stroke-opacity="1" stroke-width="3.7009898285737566" stroke="black" fill="black"></line><line x1="222.43040943278618" y1="190.0948682198885" x2="222.43040943278618" y2="202.3696628341894" stroke-linecap="round" stroke-opacity="1" stroke-width="3.7009898285737566" stroke="black" fill="black"></line><line x1="222.43040943278618" y1="214.6444574484903" x2="222.43040943278618" y2="202.3696628341894" stroke-linecap="round" stroke-opacity="1" stroke-width="3.7009898285737566" stroke="black" fill="black"></line><line x1="222.43040943278618" y1="214.6444574484903" x2="222.43040943278615" y2="226.91925206279123" stroke-linecap="round" stroke-opacity="1" stroke-width="3.7009898285737566" stroke="black" fill="black"></line><line x1="222.43040943278615" y1="239.19404667709216" x2="222.43040943278615" y2="226.91925206279123" stroke-linecap="round" stroke-opacity="1" stroke-width="3.7009898285737566" stroke="black" fill="black"></line><line x1="222.43040943278615" y1="239.19404667709216" x2="222.43040943278615" y2="251.46884129139306" stroke-linecap="round" stroke-opacity="1" stroke-width="3.7009898285737566" stroke="black" fill="black"></line><line x1="222.43040943278615" y1="263.74363590569396" x2="222.43040943278615" y2="251.46884129139306" stroke-linecap="round" stroke-opacity="1" stroke-width="3.7009898285737566" stroke="black" fill="black"></line><line x1="241.24544108052592" y1="326.52494836264134" x2="247.99640816631364" y2="336.77653488521827" stroke-linecap="round" stroke-opacity="1" stroke-width="3.7009898285737566" stroke="black" fill="black"></line><line x1="254.74737525210134" y1="347.02812140779525" x2="247.99640816631364" y2="336.77653488521827" stroke-linecap="round" stroke-opacity="1" stroke-width="3.7009898285737566" stroke="black" fill="black"></line><line x1="254.74737525210134" y1="347.02812140779525" x2="261.4983423378891" y2="357.27970793037224" stroke-linecap="round" stroke-opacity="1" stroke-width="3.7009898285737566" stroke="black" fill="black"></line><line x1="268.2493094236768" y1="367.53129445294917" x2="261.4983423378891" y2="357.27970793037224" stroke-linecap="round" stroke-opacity="1" stroke-width="3.7009898285737566" stroke="black" fill="black"></line><line x1="268.2493094236768" y1="367.53129445294917" x2="275.00027650946447" y2="377.78288097552615" stroke-linecap="round" stroke-opacity="1" stroke-width="3.7009898285737566" stroke="black" fill="black"></line><line x1="281.7512435952522" y1="388.03446749810314" x2="275.00027650946447" y2="377.78288097552615" stroke-linecap="round" stroke-opacity="1" stroke-width="3.7009898285737566" stroke="black" fill="black"></line><line x1="281.7512435952522" y1="388.03446749810314" x2="288.5022106810399" y2="398.28605402068007" stroke-linecap="round" stroke-opacity="1" stroke-width="3.7009898285737566" stroke="black" fill="black"></line><line x1="295.2531777668276" y1="408.537640543257" x2="288.5022106810399" y2="398.28605402068007" stroke-linecap="round" stroke-opacity="1" stroke-width="3.7009898285737566" stroke="black" fill="black"></line><line x1="264.34348140205304" y1="428.89257217561783" x2="257.5925143162653" y2="418.64098565304084" stroke-linecap="round" stroke-opacity="1" stroke-width="3.7009898285737566" stroke="black" fill="black"></line><line x1="250.84154723047757" y1="408.3893991304639" x2="257.5925143162653" y2="418.64098565304084" stroke-linecap="round" stroke-opacity="1" stroke-width="3.7009898285737566" stroke="black" fill="black"></line><line x1="250.84154723047757" y1="408.3893991304639" x2="244.09058014468988" y2="398.13781260788693" stroke-linecap="round" stroke-opacity="1" stroke-width="3.7009898285737566" stroke="black" fill="black"></line><line x1="237.33961305890216" y1="387.88622608531" x2="244.09058014468988" y2="398.13781260788693" stroke-linecap="round" stroke-opacity="1" stroke-width="3.7009898285737566" stroke="black" fill="black"></line><line x1="237.33961305890216" y1="387.88622608531" x2="230.58864597311444" y2="377.634639562733" stroke-linecap="round" stroke-opacity="1" stroke-width="3.7009898285737566" stroke="black" fill="black"></line><line x1="223.83767888732672" y1="367.383053040156" x2="230.58864597311444" y2="377.634639562733" stroke-linecap="round" stroke-opacity="1" stroke-width="3.7009898285737566" stroke="black" fill="black"></line><line x1="223.83767888732672" y1="367.383053040156" x2="217.08671180153902" y2="357.1314665175791" stroke-linecap="round" stroke-opacity="1" stroke-width="3.7009898285737566" stroke="black" fill="black"></line><line x1="210.3357447157513" y1="346.8798799950021" x2="217.08671180153902" y2="357.1314665175791" stroke-linecap="round" stroke-opacity="1" stroke-width="3.7009898285737566" stroke="black" fill="black"></line></g><g><path d="M 160.44862464264784 309.2196098080352 A 43.8515196077087 43.8515196077087 0 0 0 166.60547949930876 326.52494836264134" fill="none" stroke-linejoin="round" stroke-linecap="round" stroke-width="3.7009898285737566" stroke="black"></path><path d="M 161.91975830823839 290.91066745863964 A 43.8515196077087 43.8515196077087 0 0 0 160.44862464264784 309.2196098080352" fill="none" stroke-linejoin="round" stroke-linecap="round" stroke-width="3.7009898285737566" stroke="black"></path><path d="M 170.7607708487531 274.81041586203446 A 43.8515196077087 43.8515196077087 0 0 0 161.91975830823839 290.91066745863964" fill="none" stroke-linejoin="round" stroke-linecap="round" stroke-width="3.7009898285737566" stroke="black"></path><path d="M 185.4205111470485 263.74363590569396 A 43.8515196077087 43.8515196077087 0 0 0 170.7607708487531 274.81041586203446" fill="none" stroke-linejoin="round" stroke-linecap="round" stroke-width="3.7009898285737566" stroke="black"></path><path d="M 171.2207511191329 153.91989649447927 A 41.447810571864295 41.447810571864295 0 0 0 185.42051114704856 165.54527899128664" fill="none" stroke-linejoin="round" stroke-linecap="round" stroke-width="3.7009898285737566" stroke="black"></path><path d="M 163.43245026146835 137.3028849461302 A 41.447810571864295 41.447810571864295 0 0 0 171.2207511191329 153.91989649447927" fill="none" stroke-linejoin="round" stroke-linecap="round" stroke-width="3.7009898285737566" stroke="black"></path><path d="M 163.5824337384002 118.95185750884175 A 41.447810571864295 41.447810571864295 0 0 0 163.43245026146835 137.3028849461302" fill="none" stroke-linejoin="round" stroke-linecap="round" stroke-width="3.7009898285737566" stroke="black"></path><path d="M 171.64129866077445 102.46436530382795 A 41.447810571864295 41.447810571864295 0 0 0 163.5824337384002 118.95185750884175" fill="none" stroke-linejoin="round" stroke-linecap="round" stroke-width="3.7009898285737566" stroke="black"></path><path d="M 186.02917825348686 91.07263041079804 A 41.447810571864295 41.447810571864295 0 0 0 171.64129866077445 102.46436530382795" fill="none" stroke-linejoin="round" stroke-linecap="round" stroke-width="3.7009898285737566" stroke="black"></path><path d="M 203.9254602899174 87.00989828573762 A 41.447810571864295 41.447810571864295 0 0 0 186.02917825348686 91.07263041079804" fill="none" stroke-linejoin="round" stroke-linecap="round" stroke-width="3.7009898285737566" stroke="black"></path><path d="M 221.82174232634796 91.07263041079804 A 41.447810571864295 41.447810571864295 0 0 0 203.9254602899174 87.00989828573762" fill="none" stroke-linejoin="round" stroke-linecap="round" stroke-width="3.7009898285737566" stroke="black"></path><path d="M 236.20962191906034 102.46436530382798 A 41.447810571864295 41.447810571864295 0 0 0 221.82174232634796 91.07263041079804" fill="none" stroke-linejoin="round" stroke-linecap="round" stroke-width="3.7009898285737566" stroke="black"></path><path d="M 244.26848684143457 118.95185750884178 A 41.447810571864295 41.447810571864295 0 0 0 236.20962191906034 102.46436530382798" fill="none" stroke-linejoin="round" stroke-linecap="round" stroke-width="3.7009898285737566" stroke="black"></path><path d="M 244.4184703183664 137.30288494613026 A 41.447810571864295 41.447810571864295 0 0 0 244.26848684143457 118.95185750884178" fill="none" stroke-linejoin="round" stroke-linecap="round" stroke-width="3.7009898285737566" stroke="black"></path><path d="M 236.63016946070184 153.91989649447933 A 41.447810571864295 41.447810571864295 0 0 0 244.4184703183664 137.30288494613026" fill="none" stroke-linejoin="round" stroke-linecap="round" stroke-width="3.7009898285737566" stroke="black"></path><path d="M 222.43040943278618 165.54527899128664 A 41.447810571864295 41.447810571864295 0 0 0 236.63016946070184 153.91989649447933" fill="none" stroke-linejoin="round" stroke-linecap="round" stroke-width="3.7009898285737566" stroke="black"></path><path d="M 237.09014973108157 274.81041586203446 A 43.8515196077087 43.8515196077087 0 0 0 222.43040943278615 263.74363590569396" fill="none" stroke-linejoin="round" stroke-linecap="round" stroke-width="3.7009898285737566" stroke="black"></path><path d="M 245.93116227159632 290.91066745863964 A 43.8515196077087 43.8515196077087 0 0 0 237.09014973108157 274.81041586203446" fill="none" stroke-linejoin="round" stroke-linecap="round" stroke-width="3.7009898285737566" stroke="black"></path><path d="M 247.40229593718686 309.2196098080352 A 43.8515196077087 43.8515196077087 0 0 0 245.93116227159632 290.91066745863964" fill="none" stroke-linejoin="round" stroke-linecap="round" stroke-width="3.7009898285737566" stroke="black"></path><path d="M 241.24544108052592 326.52494836264134 A 43.8515196077087 43.8515196077087 0 0 0 247.40229593718686 309.2196098080352" fill="none" stroke-linejoin="round" stroke-linecap="round" stroke-width="3.7009898285737566" stroke="black"></path><path d="M 313.63936033622315 407.5707731396815 A 53.13883513510053 53.13883513510053 0 0 0 295.2531777668276 408.537640543257" fill="none" stroke-linejoin="round" stroke-linecap="round" stroke-width="3.7009898285737566" stroke="black"></path><path d="M 331.2518575209434 412.93607694929585 A 53.13883513510053 53.13883513510053 0 0 0 313.63936033622315 407.5707731396815" fill="none" stroke-linejoin="round" stroke-linecap="round" stroke-width="3.7009898285737566" stroke="black"></path><path d="M 345.97630737588 423.98945283726323 A 53.13883513510053 53.13883513510053 0 0 0 331.2518575209434 412.93607694929585" fill="none" stroke-linejoin="round" stroke-linecap="round" stroke-width="3.7009898285737566" stroke="black"></path><path d="M 356.0450550302096 439.4039545393837 A 53.13883513510053 53.13883513510053 0 0 0 345.97630737588 423.98945283726323" fill="none" stroke-linejoin="round" stroke-linecap="round" stroke-width="3.7009898285737566" stroke="black"></path><path d="M 360.24935781377377 457.3290871792097 A 53.13883513510053 53.13883513510053 0 0 0 356.0450550302096 439.4039545393837" fill="none" stroke-linejoin="round" stroke-linecap="round" stroke-width="3.7009898285737566" stroke="black"></path><path d="M 358.08449355582934 475.6129572508306 A 53.13883513510053 53.13883513510053 0 0 0 360.24935781377377 457.3290871792097" fill="none" stroke-linejoin="round" stroke-linecap="round" stroke-width="3.7009898285737566" stroke="black"></path><path d="M 349.8103519560206 492.0606051932434 A 53.13883513510053 53.13883513510053 0 0 0 358.08449355582934 475.6129572508306" fill="none" stroke-linejoin="round" stroke-linecap="round" stroke-width="3.7009898285737566" stroke="black"></path><path d="M 336.42023509659015 504.6975079997874 A 53.13883513510053 53.13883513510053 0 0 0 349.8103519560206 492.0606051932434" fill="none" stroke-linejoin="round" stroke-linecap="round" stroke-width="3.7009898285737566" stroke="black"></path><path d="M 319.52161256184513 512.0066186487959 A 53.13883513510053 53.13883513510053 0 0 0 336.42023509659015 504.6975079997874" fill="none" stroke-linejoin="round" stroke-linecap="round" stroke-width="3.7009898285737566" stroke="black"></path><path d="M 301.1431463886042 513.1104860186724 A 53.13883513510053 53.13883513510053 0 0 0 319.52161256184513 512.0066186487959" fill="none" stroke-linejoin="round" stroke-linecap="round" stroke-width="3.7009898285737566" stroke="black"></path><path d="M 283.49115230135595 507.8765919812471 A 53.13883513510053 53.13883513510053 0 0 0 301.1431463886042 513.1104860186724" fill="none" stroke-linejoin="round" stroke-linecap="round" stroke-width="3.7009898285737566" stroke="black"></path><path d="M 268.68473380722475 496.9332600650577 A 53.13883513510053 53.13883513510053 0 0 0 283.49115230135595 507.8765919812471" fill="none" stroke-linejoin="round" stroke-linecap="round" stroke-width="3.7009898285737566" stroke="black"></path><path d="M 258.50138602680585 481.5942258700935 A 53.13883513510053 53.13883513510053 0 0 0 268.68473380722475 496.9332600650577" fill="none" stroke-linejoin="round" stroke-linecap="round" stroke-width="3.7009898285737566" stroke="black"></path><path d="M 254.16360925604835 463.70092447716104 A 53.13883513510053 53.13883513510053 0 0 0 258.50138602680585 481.5942258700935" fill="none" stroke-linejoin="round" stroke-linecap="round" stroke-width="3.7009898285737566" stroke="black"></path><path d="M 256.19214907885623 445.4014280841309 A 53.13883513510053 53.13883513510053 0 0 0 254.16360925604835 463.70092447716104" fill="none" stroke-linejoin="round" stroke-linecap="round" stroke-width="3.7009898285737566" stroke="black"></path><path d="M 264.34348140205304 428.8925721756178 A 53.13883513510053 53.13883513510053 0 0 0 256.19214907885623 445.4014280841309" fill="none" stroke-linejoin="round" stroke-linecap="round" stroke-width="3.7009898285737566" stroke="black"></path></g><g id="letters"></g><g id="strands"></g><g></g><g></g><g></g><g></g><g></g><g></g><g></g><g></g><g></g><g></g><g></g><g></g><g></g><g></g><g></g><g></g><g></g><g></g><g></g><g></g><g></g><g></g><g></g><g></g><g></g><g></g><g></g><g></g><g></g><g></g><g></g><g></g><g></g><g></g><g></g><g><rect width="15" height="15" fill="#900c00" x="530" y="50"></rect><rect width="15" height="15" fill="#900c00" x="530" y="55"></rect><rect width="15" height="15" fill="#920c00" x="530" y="60"></rect><rect width="15" height="15" fill="#950c00" x="530" y="65"></rect><rect width="15" height="15" fill="#980e00" x="530" y="70"></rect><rect width="15" height="15" fill="#9d1000" x="530" y="75"></rect><rect width="15" height="15" fill="#a21202" x="530" y="80"></rect><rect width="15" height="15" fill="#a71503" x="530" y="85"></rect><rect width="15" height="15" fill="#ad1905" x="530" y="90"></rect><rect width="15" height="15" fill="#b41d07" x="530" y="95"></rect><rect width="15" height="15" fill="#ba2208" x="530" y="100"></rect><rect width="15" height="15" fill="#c1260a" x="530" y="105"></rect><rect width="15" height="15" fill="#c72c0c" x="530" y="110"></rect><rect width="15" height="15" fill="#ce310d" x="530" y="115"></rect><rect width="15" height="15" fill="#d5370f" x="530" y="120"></rect><rect width="15" height="15" fill="#db3d11" x="530" y="125"></rect><rect width="15" height="15" fill="#e14412" x="530" y="130"></rect><rect width="15" height="15" fill="#e74a13" x="530" y="135"></rect><rect width="15" height="15" fill="#ec5115" x="530" y="140"></rect><rect width="15" height="15" fill="#f15816" x="530" y="145"></rect><rect width="15" height="15" fill="#f65f18" x="530" y="150"></rect><rect width="15" height="15" fill="#fa6619" x="530" y="155"></rect><rect width="15" height="15" fill="#fd6d1a" x="530" y="160"></rect><rect width="15" height="15" fill="#ff741b" x="530" y="165"></rect><rect width="15" height="15" fill="#ff7b1c" x="530" y="170"></rect><rect width="15" height="15" fill="#ff821d" x="530" y="175"></rect><rect width="15" height="15" fill="#ff891e" x="530" y="180"></rect><rect width="15" height="15" fill="#ff9020" x="530" y="185"></rect><rect width="15" height="15" fill="#ff9721" x="530" y="190"></rect><rect width="15" height="15" fill="#ff9e22" x="530" y="195"></rect><rect width="15" height="15" fill="#ffa423" x="530" y="200"></rect><rect width="15" height="15" fill="#ffab24" x="530" y="205"></rect><rect width="15" height="15" fill="#ffb125" x="530" y="210"></rect><rect width="15" height="15" fill="#ffb727" x="530" y="215"></rect><rect width="15" height="15" fill="#fcbd28" x="530" y="220"></rect><rect width="15" height="15" fill="#f8c32a" x="530" y="225"></rect><rect width="15" height="15" fill="#f4c92b" x="530" y="230"></rect><rect width="15" height="15" fill="#efce2d" x="530" y="235"></rect><rect width="15" height="15" fill="#ead32e" x="530" y="240"></rect><rect width="15" height="15" fill="#e4d830" x="530" y="245"></rect><rect width="15" height="15" fill="#dedd32" x="530" y="250"></rect><rect width="15" height="15" fill="#d8e135" x="530" y="255"></rect><rect width="15" height="15" fill="#d1e537" x="530" y="260"></rect><rect width="15" height="15" fill="#cae93a" x="530" y="265"></rect><rect width="15" height="15" fill="#c3ec3c" x="530" y="270"></rect><rect width="15" height="15" fill="#bbf03f" x="530" y="275"></rect><rect width="15" height="15" fill="#b4f242" x="530" y="280"></rect><rect width="15" height="15" fill="#acf545" x="530" y="285"></rect><rect width="15" height="15" fill="#a4f749" x="530" y="290"></rect><rect width="15" height="15" fill="#9cf94d" x="530" y="295"></rect><rect width="15" height="15" fill="#95fb51" x="530" y="300"></rect><rect width="15" height="15" fill="#8dfc55" x="530" y="305"></rect><rect width="15" height="15" fill="#85fd59" x="530" y="310"></rect><rect width="15" height="15" fill="#7dfd5e" x="530" y="315"></rect><rect width="15" height="15" fill="#76fe63" x="530" y="320"></rect><rect width="15" height="15" fill="#6efe68" x="530" y="325"></rect><rect width="15" height="15" fill="#67fd6d" x="530" y="330"></rect><rect width="15" height="15" fill="#60fc72" x="530" y="335"></rect><rect width="15" height="15" fill="#59fb78" x="530" y="340"></rect><rect width="15" height="15" fill="#53fa7e" x="530" y="345"></rect><rect width="15" height="15" fill="#4df884" x="530" y="350"></rect><rect width="15" height="15" fill="#47f68a" x="530" y="355"></rect><rect width="15" height="15" fill="#42f490" x="530" y="360"></rect><rect width="15" height="15" fill="#3df196" x="530" y="365"></rect><rect width="15" height="15" fill="#38ee9d" x="530" y="370"></rect><rect width="15" height="15" fill="#34eba3" x="530" y="375"></rect><rect width="15" height="15" fill="#31e8aa" x="530" y="380"></rect><rect width="15" height="15" fill="#2de4b0" x="530" y="385"></rect><rect width="15" height="15" fill="#2be0b7" x="530" y="390"></rect><rect width="15" height="15" fill="#29dbbd" x="530" y="395"></rect><rect width="15" height="15" fill="#27d7c4" x="530" y="400"></rect><rect width="15" height="15" fill="#26d2ca" x="530" y="405"></rect><rect width="15" height="15" fill="#25cdd0" x="530" y="410"></rect><rect width="15" height="15" fill="#25c7d6" x="530" y="415"></rect><rect width="15" height="15" fill="#25c2dc" x="530" y="420"></rect><rect width="15" height="15" fill="#26bce1" x="530" y="425"></rect><rect width="15" height="15" fill="#27b6e6" x="530" y="430"></rect><rect width="15" height="15" fill="#29b0eb" x="530" y="435"></rect><rect width="15" height="15" fill="#2aaaef" x="530" y="440"></rect><rect width="15" height="15" fill="#2da4f2" x="530" y="445"></rect><rect width="15" height="15" fill="#2f9df5" x="530" y="450"></rect><rect width="15" height="15" fill="#3296f7" x="530" y="455"></rect><rect width="15" height="15" fill="#3590f8" x="530" y="460"></rect><rect width="15" height="15" fill="#3889f9" x="530" y="465"></rect><rect width="15" height="15" fill="#3b82f8" x="530" y="470"></rect><rect width="15" height="15" fill="#3e7bf7" x="530" y="475"></rect><rect width="15" height="15" fill="#4174f4" x="530" y="480"></rect><rect width="15" height="15" fill="#436df1" x="530" y="485"></rect><rect width="15" height="15" fill="#4666eb" x="530" y="490"></rect><rect width="15" height="15" fill="#485fe5" x="530" y="495"></rect><rect width="15" height="15" fill="#4a58dd" x="530" y="500"></rect><rect width="15" height="15" fill="#4b51d3" x="530" y="505"></rect><rect width="15" height="15" fill="#4b4ac7" x="530" y="510"></rect><rect width="15" height="15" fill="#4a43ba" x="530" y="515"></rect><rect width="15" height="15" fill="#493caa" x="530" y="520"></rect><rect width="15" height="15" fill="#463699" x="530" y="525"></rect><rect width="15" height="15" fill="#422f85" x="530" y="530"></rect><rect width="15" height="15" fill="#3d296e" x="530" y="535"></rect><rect width="15" height="15" fill="#362356" x="530" y="540"></rect><text font-weight="500" font-family="Avenir Next, Helvetica, Arial" font-size="13" x="547" y="62.681339263916016"><tspan dy="0" x="547">1.0</tspan></text><text font-weight="500" font-family="Avenir Next, Helvetica, Arial" font-size="13" x="547" y="112.68133926391602"><tspan dy="0" x="547">0.9</tspan></text><text font-weight="500" font-family="Avenir Next, Helvetica, Arial" font-size="13" x="547" y="162.68133926391602"><tspan dy="0" x="547">0.8</tspan></text><text font-weight="500" font-family="Avenir Next, Helvetica, Arial" font-size="13" x="547" y="212.68133926391602"><tspan dy="0" x="547">0.7</tspan></text><text font-weight="500" font-family="Avenir Next, Helvetica, Arial" font-size="13" x="547" y="262.681339263916"><tspan dy="0" x="547">0.6</tspan></text><text font-weight="500" font-family="Avenir Next, Helvetica, Arial" font-size="13" x="547" y="312.681339263916"><tspan dy="0" x="547">0.5</tspan></text><text font-weight="500" font-family="Avenir Next, Helvetica, Arial" font-size="13" x="547" y="362.681339263916"><tspan dy="0" x="547">0.4</tspan></text><text font-weight="500" font-family="Avenir Next, Helvetica, Arial" font-size="13" x="547" y="412.681339263916"><tspan dy="0" x="547">0.3</tspan></text><text font-weight="500" font-family="Avenir Next, Helvetica, Arial" font-size="13" x="547" y="462.681339263916"><tspan dy="0" x="547">0.2</tspan></text><text font-weight="500" font-family="Avenir Next, Helvetica, Arial" font-size="13" x="547" y="512.681339263916"><tspan dy="0" x="547">0.1</tspan></text><text font-weight="500" font-family="Avenir Next, Helvetica, Arial" font-size="13" x="547" y="562.681339263916"><tspan dy="0" x="547">0.0</tspan></text><text font-weight="500" font-family="Avenir Next, Helvetica, Arial" font-size="15" x="547" y="315.3987693786621" transform="matrix(6.123233995736766e-17,1,-1,6.123233995736766e-17,936.1090517044067,-315.2754240036011)"><tspan dy="0" x="547">Equilibrium Probability</tspan></text></g><g><text font-weight="500" font-family="Avenir Next, Helvetica, Arial" font-size="15" x="163.58078002929688" y="29.981955528259277"><tspan dy="0" x="163.58078002929688">MFE proxy structure at 40°C</tspan></text><text font-weight="500" font-family="Avenir Next, Helvetica, Arial" x="74.00466918945312" font-size="15" y="564.9819555282593"><tspan dy="0" x="74.00466918945312">Free energy of the secondary structure: -3.40 kcal/mol</tspan></text></g><g><line x1="210.3357447157513" y1="346.8798799950021" x2="203.55076750496437" y2="336.5766478734106" stroke-linecap="round" stroke-opacity="1" stroke-width="3.7009898285737566" stroke="black"></line><line x1="210.3357447157513" y1="346.8798799950021" x2="203.55076750496437" y2="336.5766478734106" stroke-linecap="round" stroke-opacity="1" stroke-width="3.7009898285737566" stroke="black" marker-end="url(#arrowblack)"></line></g><defs><marker markerWidth="3" markerHeight="3" refX="10" refY="10" viewBox="0 0 20 20" orient="auto" id="arrowblack" markerUnits="strokeWidth"><path d="M0 0 10 0 20 10 10 20 0 20 10 10Z" fill="black"></path></marker></defs><style>@font-face{font-family:Avenir Next, Helvetica, Arial;src:https://fonts.googleapis.com/css?family=Avenir+Next:300,400,500,600,700&amp;amp;lang=en;}</style><g></g><use xlink:href="#top"></use></svg>