<svg xmlns="http://www.w3.org/2000/svg" version="1.1" xmlns:xlink="http://www.w3.org/1999/xlink" xmlns:svgjs="http://svgjs.dev/svgjs" viewBox="0 0 650 600" width="100%"><g id="top"><g><circle r="3.7635532066622317" cx="280.2445453455875" cy="523.4566507040909" fill="#a01101" stroke-width="1.2545177355540773" stroke="#a01101"></circle></g><g><circle r="3.7635532066622317" cx="255.23384870773705" cy="524.9176668008046" fill="#ac1805" stroke-width="1.2545177355540773" stroke="#ac1805"></circle></g><g><circle r="3.7635532066622317" cx="230.39151007256135" cy="521.6730211374546" fill="#ffae25" stroke-width="1.2545177355540773" stroke="#ffae25"></circle></g><g><circle r="3.7635532066622317" cx="206.59505225835122" cy="513.8373265388911" fill="#da3d10" stroke-width="1.2545177355540773" stroke="#da3d10"></circle></g><g><circle r="3.7635532066622317" cx="184.68505372404843" cy="501.6873685730263" fill="#930c00" stroke-width="1.2545177355540773" stroke="#930c00"></circle></g><g><circle r="3.7635532066622317" cx="165.4354562448184" cy="485.6523284660276" fill="#9a0f00" stroke-width="1.2545177355540773" stroke="#9a0f00"></circle></g><g><circle r="3.7635532066622317" cx="149.5262264405115" cy="466.29862284206024" fill="#9a0e00" stroke-width="1.2545177355540773" stroke="#9a0e00"></circle></g><g><circle r="3.7635532066622317" cx="137.51933685243034" cy="444.3098958037557" fill="#940c00" stroke-width="1.2545177355540773" stroke="#940c00"></circle></g><g><circle r="3.7635532066622317" cx="129.83891500516006" cy="420.462870106755" fill="#fe6e1a" stroke-width="1.2545177355540773" stroke="#fe6e1a"></circle></g><g><circle r="3.7635532066622317" cx="126.75626166164633" cy="395.5999104537057" fill="#ad1905" stroke-width="1.2545177355540773" stroke="#ad1905"></circle></g><g><circle r="3.7635532066622317" cx="128.38026748188454" cy="370.59926807313343" fill="#d0330e" stroke-width="1.2545177355540773" stroke="#d0330e"></circle></g><g><circle r="3.7635532066622317" cx="134.65356660410043" cy="346.34405765416074" fill="#a81604" stroke-width="1.2545177355540773" stroke="#a81604"></circle></g><g><circle r="3.7635532066622317" cx="145.35456301808927" cy="323.69106248590026" fill="#a41302" stroke-width="1.2545177355540773" stroke="#a41302"></circle></g><g><circle r="3.7635532066622317" cx="160.105258151751" cy="303.44046971879334" fill="#be2509" stroke-width="1.2545177355540773" stroke="#be2509"></circle></g><g><circle r="3.7635532066622317" cx="178.38460317165928" cy="286.30760480983577" fill="#c3280b" stroke-width="1.2545177355540773" stroke="#c3280b"></circle></g><g><circle r="3.7635532066622317" cx="199.5469043452738" cy="272.89766359509974" fill="#f76118" stroke-width="1.2545177355540773" stroke="#f76118"></circle></g><g><circle r="3.7635532066622317" cx="222.84463131967124" cy="263.6843345457347" fill="#d3360f" stroke-width="1.2545177355540773" stroke="#d3360f"></circle></g><g><circle r="3.7635532066622317" cx="247.45482264445926" cy="258.9930663480326" fill="#54fa7c" stroke-width="1.2545177355540773" stroke="#54fa7c"></circle></g><g><circle r="3.7635532066622317" cx="235.63727533377676" cy="238.10860134937312" fill="#9a0e00" stroke-width="1.2545177355540773" stroke="#9a0e00"></circle></g><g><circle r="3.7635532066622317" cx="247.45482264445926" cy="217.22413635071368" fill="#ff7d1d" stroke-width="1.2545177355540773" stroke="#ff7d1d"></circle></g><g><circle r="3.7635532066622317" cx="247.45482264445928" cy="200.58107786399702" fill="#f15716" stroke-width="1.2545177355540773" stroke="#f15716"></circle></g><g><circle r="3.7635532066622317" cx="247.45482264445928" cy="183.93801937728034" fill="#fe6d1a" stroke-width="1.2545177355540773" stroke="#fe6d1a"></circle></g><g><circle r="3.7635532066622317" cx="247.45482264445928" cy="167.2949608905637" fill="#feb927" stroke-width="1.2545177355540773" stroke="#feb927"></circle></g><g><circle r="3.7635532066622317" cx="226.0046967151261" cy="154.83726845089768" fill="#fb6719" stroke-width="1.2545177355540773" stroke="#fb6719"></circle></g><g><circle r="3.7635532066622317" cx="213.64615583096048" cy="133.32986343495097" fill="#ff9821" stroke-width="1.2545177355540773" stroke="#ff9821"></circle></g><g><circle r="3.7635532066622317" cx="213.68432495410877" cy="108.52461103906509" fill="#dbdf34" stroke-width="1.2545177355540773" stroke="#dbdf34"></circle></g><g><circle r="3.7635532066622317" cx="226.10899626773536" cy="87.05534123187539" fill="#d5380f" stroke-width="1.2545177355540773" stroke="#d5380f"></circle></g><g><circle r="3.7635532066622317" cx="247.59735911886546" cy="74.66372046283408" fill="#900c00" stroke-width="1.2545177355540773" stroke="#900c00"></circle></g><g><circle r="3.7635532066622317" cx="272.40264088113463" cy="74.66372046283408" fill="#900c00" stroke-width="1.2545177355540773" stroke="#900c00"></circle></g><g><circle r="3.7635532066622317" cx="293.8910037322647" cy="87.05534123187539" fill="#910c00" stroke-width="1.2545177355540773" stroke="#910c00"></circle></g><g><circle r="3.7635532066622317" cx="306.31567504589134" cy="108.52461103906509" fill="#f76118" stroke-width="1.2545177355540773" stroke="#f76118"></circle></g><g><circle r="3.7635532066622317" cx="306.3538441690396" cy="133.32986343495097" fill="#fbbf28" stroke-width="1.2545177355540773" stroke="#fbbf28"></circle></g><g><circle r="3.7635532066622317" cx="293.99530328487396" cy="154.83726845089768" fill="#ff9721" stroke-width="1.2545177355540773" stroke="#ff9721"></circle></g><g><circle r="3.7635532066622317" cx="272.5451773555408" cy="167.2949608905637" fill="#feb927" stroke-width="1.2545177355540773" stroke="#feb927"></circle></g><g><circle r="3.7635532066622317" cx="272.5451773555408" cy="183.93801937728034" fill="#fe6d1a" stroke-width="1.2545177355540773" stroke="#fe6d1a"></circle></g><g><circle r="3.7635532066622317" cx="272.5451773555408" cy="200.58107786399702" fill="#f15716" stroke-width="1.2545177355540773" stroke="#f15716"></circle></g><g><circle r="3.7635532066622317" cx="272.5451773555408" cy="217.2241363507137" fill="#ff7d1d" stroke-width="1.2545177355540773" stroke="#ff7d1d"></circle></g><g><circle r="3.7635532066622317" cx="284.3627246662233" cy="238.10860134937312" fill="#af1a06" stroke-width="1.2545177355540773" stroke="#af1a06"></circle></g><g><circle r="3.7635532066622317" cx="272.5451773555407" cy="258.9930663480326" fill="#54fa7c" stroke-width="1.2545177355540773" stroke="#54fa7c"></circle></g><g><circle r="3.7635532066622317" cx="297.15536868032865" cy="263.68433454573466" fill="#9c0f00" stroke-width="1.2545177355540773" stroke="#9c0f00"></circle></g><g><circle r="3.7635532066622317" cx="320.4530956547261" cy="272.8976635950997" fill="#b11c06" stroke-width="1.2545177355540773" stroke="#b11c06"></circle></g><g><circle r="3.7635532066622317" cx="341.6153968283405" cy="286.30760480983565" fill="#c0260a" stroke-width="1.2545177355540773" stroke="#c0260a"></circle></g><g><circle r="3.7635532066622317" cx="359.8947418482489" cy="303.4404697187932" fill="#f96418" stroke-width="1.2545177355540773" stroke="#f96418"></circle></g><g><circle r="3.7635532066622317" cx="374.6454369819107" cy="323.6910624859002" fill="#a31302" stroke-width="1.2545177355540773" stroke="#a31302"></circle></g><g><circle r="3.7635532066622317" cx="385.34643339589957" cy="346.3440576541607" fill="#ff821d" stroke-width="1.2545177355540773" stroke="#ff821d"></circle></g><g><circle r="3.7635532066622317" cx="391.6197325181155" cy="370.59926807313343" fill="#ad1905" stroke-width="1.2545177355540773" stroke="#ad1905"></circle></g><g><circle r="3.7635532066622317" cx="393.24373833835364" cy="395.5999104537058" fill="#be250a" stroke-width="1.2545177355540773" stroke="#be250a"></circle></g><g><circle r="3.7635532066622317" cx="390.16108499483994" cy="420.4628701067552" fill="#950c00" stroke-width="1.2545177355540773" stroke="#950c00"></circle></g><g><circle r="3.7635532066622317" cx="382.48066314756954" cy="444.3098958037558" fill="#900c00" stroke-width="1.2545177355540773" stroke="#900c00"></circle></g><g><circle r="3.7635532066622317" cx="370.47377355948845" cy="466.29862284206035" fill="#ff851e" stroke-width="1.2545177355540773" stroke="#ff851e"></circle></g><g><circle r="3.7635532066622317" cx="354.5645437551814" cy="485.65232846602777" fill="#940c00" stroke-width="1.2545177355540773" stroke="#940c00"></circle></g><g><circle r="3.7635532066622317" cx="335.31494627595134" cy="501.68736857302645" fill="#c92d0c" stroke-width="1.2545177355540773" stroke="#c92d0c"></circle></g><g><circle r="3.7635532066622317" cx="313.40494774164847" cy="513.8373265388914" fill="#940c00" stroke-width="1.2545177355540773" stroke="#940c00"></circle></g></g><g><g></g><g></g><g></g><g></g><g></g><g></g><g></g><g></g><g></g><g></g><g></g><g></g><g></g><g></g><g></g><g></g><g></g><g></g><g></g><g></g><g></g><g></g><g></g><g></g><g></g><g></g><g></g><g></g><g></g><g></g><g></g><g></g><g></g><g></g><g><line x1="247.45482264445926" y1="258.9930663480326" x2="260" y2="258.9930663480326" stroke-linecap="round" stroke-width="1.2545177355540773" stroke="black" fill="black"></line><g></g></g><g></g><g></g><g></g><g><line x1="247.45482264445926" y1="217.22413635071368" x2="260" y2="217.22413635071368" stroke-linecap="round" stroke-width="1.2545177355540773" stroke="black" fill="black"></line><g></g></g><g></g><g><line x1="247.45482264445928" y1="200.58107786399702" x2="260" y2="200.58107786399702" stroke-linecap="round" stroke-width="1.2545177355540773" stroke="black" fill="black"></line><g></g></g><g></g><g><line x1="247.45482264445928" y1="183.93801937728034" x2="260" y2="183.93801937728034" stroke-linecap="round" stroke-width="1.2545177355540773" stroke="black" fill="black"></line><g></g></g><g></g><g><line x1="247.45482264445928" y1="167.2949608905637" x2="260" y2="167.2949608905637" stroke-linecap="round" stroke-width="1.2545177355540773" stroke="black" fill="black"></line><g></g></g><g></g><g></g><g></g><g></g><g></g><g></g><g></g><g></g><g></g><g></g><g></g><g></g><g></g><g></g><g></g><g></g><g></g><g></g><g></g><g></g><g></g><g><line x1="272.5451773555408" y1="167.2949608905637" x2="260" y2="167.2949608905637" stroke-linecap="round" stroke-width="1.2545177355540773" stroke="black" fill="black"></line><g></g></g><g></g><g><line x1="272.5451773555408" y1="183.93801937728034" x2="260" y2="183.93801937728034" stroke-linecap="round" stroke-width="1.2545177355540773" stroke="black" fill="black"></line><g></g></g><g></g><g><line x1="272.5451773555408" y1="200.58107786399702" x2="260" y2="200.58107786399702" stroke-linecap="round" stroke-width="1.2545177355540773" stroke="black" fill="black"></line><g></g></g><g></g><g><line x1="272.5451773555408" y1="217.2241363507137" x2="260" y2="217.22413635071368" stroke-linecap="round" stroke-width="1.2545177355540773" stroke="black" fill="black"></line><g></g></g><g></g><g></g><g></g><g><line x1="272.5451773555407" y1="258.9930663480326" x2="260" y2="258.9930663480326" stroke-linecap="round" stroke-width="1.2545177355540773" stroke="black" fill="black"></line><g></g></g><g></g><g></g><g></g><g></g><g></g><g></g><g></g><g></g><g></g><g></g><g></g><g></g><g></g><g></g><g></g><g></g><g></g><g></g><g></g><g></g><g></g><g></g><g></g><g></g><g></g><g></g><g></g><g></g><g></g></g><g><line x1="247.45482264445926" y1="217.22413635071368" x2="247.45482264445928" y2="208.90260710735535" stroke-linecap="round" stroke-opacity="1" stroke-width="2.5090354711081546" stroke="black" fill="black"></line><line x1="247.45482264445928" y1="200.58107786399702" x2="247.45482264445928" y2="208.90260710735535" stroke-linecap="round" stroke-opacity="1" stroke-width="2.5090354711081546" stroke="black" fill="black"></line><line x1="247.45482264445928" y1="200.58107786399702" x2="247.45482264445928" y2="192.25954862063867" stroke-linecap="round" stroke-opacity="1" stroke-width="2.5090354711081546" stroke="black" fill="black"></line><line x1="247.45482264445928" y1="183.93801937728034" x2="247.45482264445928" y2="192.25954862063867" stroke-linecap="round" stroke-opacity="1" stroke-width="2.5090354711081546" stroke="black" fill="black"></line><line x1="247.45482264445928" y1="183.93801937728034" x2="247.45482264445928" y2="175.616490133922" stroke-linecap="round" stroke-opacity="1" stroke-width="2.5090354711081546" stroke="black" fill="black"></line><line x1="247.45482264445928" y1="167.2949608905637" x2="247.45482264445928" y2="175.616490133922" stroke-linecap="round" stroke-opacity="1" stroke-width="2.5090354711081546" stroke="black" fill="black"></line><line x1="272.5451773555408" y1="167.2949608905637" x2="272.5451773555408" y2="175.616490133922" stroke-linecap="round" stroke-opacity="1" stroke-width="2.5090354711081546" stroke="black" fill="black"></line><line x1="272.5451773555408" y1="183.93801937728034" x2="272.5451773555408" y2="175.616490133922" stroke-linecap="round" stroke-opacity="1" stroke-width="2.5090354711081546" stroke="black" fill="black"></line><line x1="272.5451773555408" y1="183.93801937728034" x2="272.5451773555408" y2="192.25954862063867" stroke-linecap="round" stroke-opacity="1" stroke-width="2.5090354711081546" stroke="black" fill="black"></line><line x1="272.5451773555408" y1="200.58107786399702" x2="272.5451773555408" y2="192.25954862063867" stroke-linecap="round" stroke-opacity="1" stroke-width="2.5090354711081546" stroke="black" fill="black"></line><line x1="272.5451773555408" y1="200.58107786399702" x2="272.5451773555408" y2="208.90260710735535" stroke-linecap="round" stroke-opacity="1" stroke-width="2.5090354711081546" stroke="black" fill="black"></line><line x1="272.5451773555408" y1="217.2241363507137" x2="272.5451773555408" y2="208.90260710735535" stroke-linecap="round" stroke-opacity="1" stroke-width="2.5090354711081546" stroke="black" fill="black"></line></g><g><path d="M 267.77359714843857 524.7760441261183 A 133.3007360416714 133.3007360416714 0 0 0 280.2445453455875 523.4566507040909" fill="none" stroke-linejoin="round" stroke-linecap="round" stroke-width="2.5090354711081546" stroke="black"></path><path d="M 255.23384870773705 524.9176668008045 A 133.3007360416714 133.3007360416714 0 0 0 267.77359714843857 524.7760441261183" fill="none" stroke-linejoin="round" stroke-linecap="round" stroke-width="2.5090354711081546" stroke="black"></path><path d="M 242.73628310253045 523.8802652962664 A 133.3007360416714 133.3007360416714 0 0 0 255.23384870773705 524.9176668008045" fill="none" stroke-linejoin="round" stroke-linecap="round" stroke-width="2.5090354711081546" stroke="black"></path><path d="M 230.39151007256135 521.6730211374546 A 133.3007360416714 133.3007360416714 0 0 0 242.73628310253045 523.8802652962664" fill="none" stroke-linejoin="round" stroke-linecap="round" stroke-width="2.5090354711081546" stroke="black"></path><path d="M 218.30878706645302 518.3154695450406 A 133.3007360416714 133.3007360416714 0 0 0 230.39151007256135 521.6730211374546" fill="none" stroke-linejoin="round" stroke-linecap="round" stroke-width="2.5090354711081546" stroke="black"></path><path d="M 206.59505225835122 513.8373265388911 A 133.3007360416714 133.3007360416714 0 0 0 218.30878706645302 518.3154695450406" fill="none" stroke-linejoin="round" stroke-linecap="round" stroke-width="2.5090354711081546" stroke="black"></path><path d="M 195.35397809131143 508.27822593635017 A 133.3007360416714 133.3007360416714 0 0 0 206.59505225835122 513.8373265388911" fill="none" stroke-linejoin="round" stroke-linecap="round" stroke-width="2.5090354711081546" stroke="black"></path><path d="M 184.68505372404843 501.6873685730263 A 133.3007360416714 133.3007360416714 0 0 0 195.35397809131143 508.27822593635017" fill="none" stroke-linejoin="round" stroke-linecap="round" stroke-width="2.5090354711081546" stroke="black"></path><path d="M 174.6827045018553 494.12308685065807 A 133.3007360416714 133.3007360416714 0 0 0 184.68505372404843 501.6873685730263" fill="none" stroke-linejoin="round" stroke-linecap="round" stroke-width="2.5090354711081546" stroke="black"></path><path d="M 165.4354562448184 485.6523284660276 A 133.3007360416714 133.3007360416714 0 0 0 174.6827045018553 494.12308685065807" fill="none" stroke-linejoin="round" stroke-linecap="round" stroke-width="2.5090354711081546" stroke="black"></path><path d="M 157.02515174979555 476.35006389018054 A 133.3007360416714 133.3007360416714 0 0 0 165.4354562448184 485.6523284660276" fill="none" stroke-linejoin="round" stroke-linecap="round" stroke-width="2.5090354711081546" stroke="black"></path><path d="M 149.5262264405115 466.2986228420602 A 133.3007360416714 133.3007360416714 0 0 0 157.02515174979555 476.35006389018054" fill="none" stroke-linejoin="round" stroke-linecap="round" stroke-width="2.5090354711081546" stroke="black"></path><path d="M 143.00504957662932 455.5869656290969 A 133.3007360416714 133.3007360416714 0 0 0 149.5262264405115 466.2986228420602" fill="none" stroke-linejoin="round" stroke-linecap="round" stroke-width="2.5090354711081546" stroke="black"></path><path d="M 137.51933685243034 444.3098958037557 A 133.3007360416714 133.3007360416714 0 0 0 143.00504957662932 455.5869656290969" fill="none" stroke-linejoin="round" stroke-linecap="round" stroke-width="2.5090354711081546" stroke="black"></path><path d="M 133.1176395838983 432.56722110442684 A 133.3007360416714 133.3007360416714 0 0 0 137.51933685243034 444.3098958037557" fill="none" stroke-linejoin="round" stroke-linecap="round" stroke-width="2.5090354711081546" stroke="black"></path><path d="M 129.83891500516006 420.462870106755 A 133.3007360416714 133.3007360416714 0 0 0 133.1176395838983 432.56722110442684" fill="none" stroke-linejoin="round" stroke-linecap="round" stroke-width="2.5090354711081546" stroke="black"></path><path d="M 127.71218147737477 408.1039724034866 A 133.3007360416714 133.3007360416714 0 0 0 129.83891500516006 420.462870106755" fill="none" stroke-linejoin="round" stroke-linecap="round" stroke-width="2.5090354711081546" stroke="black"></path><path d="M 126.75626166164633 395.5999104537057 A 133.3007360416714 133.3007360416714 0 0 0 127.71218147737477 408.1039724034866" fill="none" stroke-linejoin="round" stroke-linecap="round" stroke-width="2.5090354711081546" stroke="black"></path><path d="M 126.97961592900796 383.061351493071 A 133.3007360416714 133.3007360416714 0 0 0 126.75626166164633 395.5999104537057" fill="none" stroke-linejoin="round" stroke-linecap="round" stroke-width="2.5090354711081546" stroke="black"></path><path d="M 128.38026748188454 370.59926807313343 A 133.3007360416714 133.3007360416714 0 0 0 126.97961592900796 383.061351493071" fill="none" stroke-linejoin="round" stroke-linecap="round" stroke-width="2.5090354711081546" stroke="black"></path><path d="M 130.94581984974513 358.3239558984543 A 133.3007360416714 133.3007360416714 0 0 0 128.38026748188454 370.59926807313343" fill="none" stroke-linejoin="round" stroke-linecap="round" stroke-width="2.5090354711081546" stroke="black"></path><path d="M 134.65356660410043 346.34405765416074 A 133.3007360416714 133.3007360416714 0 0 0 130.94581984974513 358.3239558984543" fill="none" stroke-linejoin="round" stroke-linecap="round" stroke-width="2.5090354711081546" stroke="black"></path><path d="M 139.47069232181232 334.76560146355314 A 133.3007360416714 133.3007360416714 0 0 0 134.65356660410043 346.34405765416074" fill="none" stroke-linejoin="round" stroke-linecap="round" stroke-width="2.5090354711081546" stroke="black"></path><path d="M 145.35456301808927 323.69106248590026 A 133.3007360416714 133.3007360416714 0 0 0 139.47069232181232 334.76560146355314" fill="none" stroke-linejoin="round" stroke-linecap="round" stroke-width="2.5090354711081546" stroke="black"></path><path d="M 152.25310347868933 313.21845595975196 A 133.3007360416714 133.3007360416714 0 0 0 145.35456301808927 323.69106248590026" fill="none" stroke-linejoin="round" stroke-linecap="round" stroke-width="2.5090354711081546" stroke="black"></path><path d="M 160.105258151751 303.44046971879334 A 133.3007360416714 133.3007360416714 0 0 0 152.25310347868933 313.21845595975196" fill="none" stroke-linejoin="round" stroke-linecap="round" stroke-width="2.5090354711081546" stroke="black"></path><path d="M 168.84153152012777 294.44364385791044 A 133.3007360416714 133.3007360416714 0 0 0 160.105258151751 303.44046971879334" fill="none" stroke-linejoin="round" stroke-linecap="round" stroke-width="2.5090354711081546" stroke="black"></path><path d="M 178.38460317165928 286.30760480983577 A 133.3007360416714 133.3007360416714 0 0 0 168.84153152012777 294.44364385791044" fill="none" stroke-linejoin="round" stroke-linecap="round" stroke-width="2.5090354711081546" stroke="black"></path><path d="M 188.6500121236977 279.1043606111798 A 133.3007360416714 133.3007360416714 0 0 0 178.38460317165928 286.30760480983577" fill="none" stroke-linejoin="round" stroke-linecap="round" stroke-width="2.5090354711081546" stroke="black"></path><path d="M 199.5469043452738 272.89766359509974 A 133.3007360416714 133.3007360416714 0 0 0 188.6500121236977 279.1043606111798" fill="none" stroke-linejoin="round" stroke-linecap="round" stroke-width="2.5090354711081546" stroke="black"></path><path d="M 210.9788368609547 267.7424461510942 A 133.3007360416714 133.3007360416714 0 0 0 199.5469043452738 272.89766359509974" fill="none" stroke-linejoin="round" stroke-linecap="round" stroke-width="2.5090354711081546" stroke="black"></path><path d="M 222.84463131967124 263.6843345457347 A 133.3007360416714 133.3007360416714 0 0 0 210.9788368609547 267.7424461510942" fill="none" stroke-linejoin="round" stroke-linecap="round" stroke-width="2.5090354711081546" stroke="black"></path><path d="M 235.03926947399998 260.7592451072642 A 133.3007360416714 133.3007360416714 0 0 0 222.84463131967124 263.6843345457347" fill="none" stroke-linejoin="round" stroke-linecap="round" stroke-width="2.5090354711081546" stroke="black"></path><path d="M 247.45482264445923 258.9930663480326 A 133.3007360416714 133.3007360416714 0 0 0 235.03926947399998 260.7592451072642" fill="none" stroke-linejoin="round" stroke-linecap="round" stroke-width="2.5090354711081546" stroke="black"></path><path d="M 238.7964972827108 250.10667726512366 A 24.36272466622328 24.36272466622328 0 0 0 247.45482264445926 258.9930663480326" fill="none" stroke-linejoin="round" stroke-linecap="round" stroke-width="2.5090354711081546" stroke="black"></path><path d="M 235.63727533377676 238.10860134937312 A 24.36272466622328 24.36272466622328 0 0 0 238.7964972827108 250.10667726512366" fill="none" stroke-linejoin="round" stroke-linecap="round" stroke-width="2.5090354711081546" stroke="black"></path><path d="M 238.7964972827108 226.1105254336226 A 24.36272466622328 24.36272466622328 0 0 0 235.63727533377676 238.10860134937312" fill="none" stroke-linejoin="round" stroke-linecap="round" stroke-width="2.5090354711081546" stroke="black"></path><path d="M 247.45482264445926 217.22413635071368 A 24.36272466622328 24.36272466622328 0 0 0 238.7964972827108 226.1105254336226" fill="none" stroke-linejoin="round" stroke-linecap="round" stroke-width="2.5090354711081546" stroke="black"></path><path d="M 235.9105290678577 162.47669691750525 A 47.96603519229321 47.96603519229321 0 0 0 247.45482264445928 167.29496089056366" fill="none" stroke-linejoin="round" stroke-linecap="round" stroke-width="2.5090354711081546" stroke="black"></path><path d="M 226.0046967151261 154.83726845089768 A 47.96603519229321 47.96603519229321 0 0 0 235.9105290678577 162.47669691750525" fill="none" stroke-linejoin="round" stroke-linecap="round" stroke-width="2.5090354711081546" stroke="black"></path><path d="M 218.41107729487726 144.89627624703505 A 47.96603519229321 47.96603519229321 0 0 0 226.0046967151261 154.83726845089768" fill="none" stroke-linejoin="round" stroke-linecap="round" stroke-width="2.5090354711081546" stroke="black"></path><path d="M 213.64615583096048 133.32986343495097 A 47.96603519229321 47.96603519229321 0 0 0 218.41107729487726 144.89627624703505" fill="none" stroke-linejoin="round" stroke-linecap="round" stroke-width="2.5090354711081546" stroke="black"></path><path d="M 212.03402159355545 120.92472719638332 A 47.96603519229321 47.96603519229321 0 0 0 213.64615583096048 133.32986343495097" fill="none" stroke-linejoin="round" stroke-linecap="round" stroke-width="2.5090354711081546" stroke="black"></path><path d="M 213.68432495410877 108.52461103906509 A 47.96603519229321 47.96603519229321 0 0 0 212.03402159355545 120.92472719638332" fill="none" stroke-linejoin="round" stroke-linecap="round" stroke-width="2.5090354711081546" stroke="black"></path><path d="M 218.48481944313568 96.97291702659831 A 47.96603519229321 47.96603519229321 0 0 0 213.68432495410877 108.52461103906509" fill="none" stroke-linejoin="round" stroke-linecap="round" stroke-width="2.5090354711081546" stroke="black"></path><path d="M 226.10899626773536 87.05534123187539 A 47.96603519229321 47.96603519229321 0 0 0 218.48481944313568 96.97291702659831" fill="none" stroke-linejoin="round" stroke-linecap="round" stroke-width="2.5090354711081546" stroke="black"></path><path d="M 236.03829202208533 79.44643410144687 A 47.96603519229321 47.96603519229321 0 0 0 226.10899626773536 87.05534123187539" fill="none" stroke-linejoin="round" stroke-linecap="round" stroke-width="2.5090354711081546" stroke="black"></path><path d="M 247.59735911886546 74.66372046283405 A 47.96603519229321 47.96603519229321 0 0 0 236.03829202208533 79.44643410144687" fill="none" stroke-linejoin="round" stroke-linecap="round" stroke-width="2.5090354711081546" stroke="black"></path><path d="M 260.00000000000006 73.03249973269143 A 47.96603519229321 47.96603519229321 0 0 0 247.59735911886546 74.66372046283405" fill="none" stroke-linejoin="round" stroke-linecap="round" stroke-width="2.5090354711081546" stroke="black"></path><path d="M 272.40264088113463 74.66372046283405 A 47.96603519229321 47.96603519229321 0 0 0 260.00000000000006 73.03249973269143" fill="none" stroke-linejoin="round" stroke-linecap="round" stroke-width="2.5090354711081546" stroke="black"></path><path d="M 283.9617079779148 79.44643410144687 A 47.96603519229321 47.96603519229321 0 0 0 272.40264088113463 74.66372046283405" fill="none" stroke-linejoin="round" stroke-linecap="round" stroke-width="2.5090354711081546" stroke="black"></path><path d="M 293.8910037322647 87.05534123187539 A 47.96603519229321 47.96603519229321 0 0 0 283.9617079779148 79.44643410144687" fill="none" stroke-linejoin="round" stroke-linecap="round" stroke-width="2.5090354711081546" stroke="black"></path><path d="M 301.51518055686444 96.97291702659831 A 47.96603519229321 47.96603519229321 0 0 0 293.8910037322647 87.05534123187539" fill="none" stroke-linejoin="round" stroke-linecap="round" stroke-width="2.5090354711081546" stroke="black"></path><path d="M 306.31567504589134 108.52461103906509 A 47.96603519229321 47.96603519229321 0 0 0 301.51518055686444 96.97291702659831" fill="none" stroke-linejoin="round" stroke-linecap="round" stroke-width="2.5090354711081546" stroke="black"></path><path d="M 307.96597840644466 120.92472719638332 A 47.96603519229321 47.96603519229321 0 0 0 306.31567504589134 108.52461103906509" fill="none" stroke-linejoin="round" stroke-linecap="round" stroke-width="2.5090354711081546" stroke="black"></path><path d="M 306.3538441690396 133.32986343495097 A 47.96603519229321 47.96603519229321 0 0 0 307.96597840644466 120.92472719638332" fill="none" stroke-linejoin="round" stroke-linecap="round" stroke-width="2.5090354711081546" stroke="black"></path><path d="M 301.5889227051228 144.89627624703505 A 47.96603519229321 47.96603519229321 0 0 0 306.3538441690396 133.32986343495097" fill="none" stroke-linejoin="round" stroke-linecap="round" stroke-width="2.5090354711081546" stroke="black"></path><path d="M 293.99530328487396 154.83726845089768 A 47.96603519229321 47.96603519229321 0 0 0 301.5889227051228 144.89627624703505" fill="none" stroke-linejoin="round" stroke-linecap="round" stroke-width="2.5090354711081546" stroke="black"></path><path d="M 284.0894709321424 162.47669691750525 A 47.96603519229321 47.96603519229321 0 0 0 293.99530328487396 154.83726845089768" fill="none" stroke-linejoin="round" stroke-linecap="round" stroke-width="2.5090354711081546" stroke="black"></path><path d="M 272.5451773555408 167.2949608905637 A 47.96603519229321 47.96603519229321 0 0 0 284.0894709321424 162.47669691750525" fill="none" stroke-linejoin="round" stroke-linecap="round" stroke-width="2.5090354711081546" stroke="black"></path><path d="M 281.2035027172892 226.11052543362263 A 24.36272466622328 24.36272466622328 0 0 0 272.5451773555408 217.2241363507137" fill="none" stroke-linejoin="round" stroke-linecap="round" stroke-width="2.5090354711081546" stroke="black"></path><path d="M 284.3627246662233 238.10860134937312 A 24.36272466622328 24.36272466622328 0 0 0 281.2035027172892 226.11052543362263" fill="none" stroke-linejoin="round" stroke-linecap="round" stroke-width="2.5090354711081546" stroke="black"></path><path d="M 281.2035027172892 250.10667726512366 A 24.36272466622328 24.36272466622328 0 0 0 284.3627246662233 238.10860134937312" fill="none" stroke-linejoin="round" stroke-linecap="round" stroke-width="2.5090354711081546" stroke="black"></path><path d="M 272.5451773555408 258.9930663480326 A 24.36272466622328 24.36272466622328 0 0 0 281.2035027172892 250.10667726512366" fill="none" stroke-linejoin="round" stroke-linecap="round" stroke-width="2.5090354711081546" stroke="black"></path><path d="M 284.96073052599996 260.7592451072642 A 133.3007360416714 133.3007360416714 0 0 0 272.5451773555407 258.9930663480326" fill="none" stroke-linejoin="round" stroke-linecap="round" stroke-width="2.5090354711081546" stroke="black"></path><path d="M 297.15536868032865 263.68433454573466 A 133.3007360416714 133.3007360416714 0 0 0 284.96073052599996 260.7592451072642" fill="none" stroke-linejoin="round" stroke-linecap="round" stroke-width="2.5090354711081546" stroke="black"></path><path d="M 309.0211631390452 267.74244615109416 A 133.3007360416714 133.3007360416714 0 0 0 297.15536868032865 263.68433454573466" fill="none" stroke-linejoin="round" stroke-linecap="round" stroke-width="2.5090354711081546" stroke="black"></path><path d="M 320.4530956547261 272.8976635950997 A 133.3007360416714 133.3007360416714 0 0 0 309.0211631390452 267.74244615109416" fill="none" stroke-linejoin="round" stroke-linecap="round" stroke-width="2.5090354711081546" stroke="black"></path><path d="M 331.34998787630207 279.1043606111797 A 133.3007360416714 133.3007360416714 0 0 0 320.4530956547261 272.8976635950997" fill="none" stroke-linejoin="round" stroke-linecap="round" stroke-width="2.5090354711081546" stroke="black"></path><path d="M 341.6153968283405 286.30760480983565 A 133.3007360416714 133.3007360416714 0 0 0 331.34998787630207 279.1043606111797" fill="none" stroke-linejoin="round" stroke-linecap="round" stroke-width="2.5090354711081546" stroke="black"></path><path d="M 351.1584684798721 294.4436438579104 A 133.3007360416714 133.3007360416714 0 0 0 341.6153968283405 286.30760480983565" fill="none" stroke-linejoin="round" stroke-linecap="round" stroke-width="2.5090354711081546" stroke="black"></path><path d="M 359.8947418482489 303.4404697187932 A 133.3007360416714 133.3007360416714 0 0 0 351.1584684798721 294.4436438579104" fill="none" stroke-linejoin="round" stroke-linecap="round" stroke-width="2.5090354711081546" stroke="black"></path><path d="M 367.7468965213106 313.21845595975185 A 133.3007360416714 133.3007360416714 0 0 0 359.8947418482489 303.4404697187932" fill="none" stroke-linejoin="round" stroke-linecap="round" stroke-width="2.5090354711081546" stroke="black"></path><path d="M 374.6454369819107 323.6910624859002 A 133.3007360416714 133.3007360416714 0 0 0 367.7468965213106 313.21845595975185" fill="none" stroke-linejoin="round" stroke-linecap="round" stroke-width="2.5090354711081546" stroke="black"></path><path d="M 380.5293076781877 334.76560146355314 A 133.3007360416714 133.3007360416714 0 0 0 374.6454369819107 323.6910624859002" fill="none" stroke-linejoin="round" stroke-linecap="round" stroke-width="2.5090354711081546" stroke="black"></path><path d="M 385.34643339589957 346.3440576541607 A 133.3007360416714 133.3007360416714 0 0 0 380.5293076781877 334.76560146355314" fill="none" stroke-linejoin="round" stroke-linecap="round" stroke-width="2.5090354711081546" stroke="black"></path><path d="M 389.05418015025487 358.3239558984543 A 133.3007360416714 133.3007360416714 0 0 0 385.34643339589957 346.3440576541607" fill="none" stroke-linejoin="round" stroke-linecap="round" stroke-width="2.5090354711081546" stroke="black"></path><path d="M 391.6197325181155 370.59926807313343 A 133.3007360416714 133.3007360416714 0 0 0 389.05418015025487 358.3239558984543" fill="none" stroke-linejoin="round" stroke-linecap="round" stroke-width="2.5090354711081546" stroke="black"></path><path d="M 393.020384070992 383.06135149307113 A 133.3007360416714 133.3007360416714 0 0 0 391.6197325181155 370.59926807313343" fill="none" stroke-linejoin="round" stroke-linecap="round" stroke-width="2.5090354711081546" stroke="black"></path><path d="M 393.24373833835364 395.5999104537058 A 133.3007360416714 133.3007360416714 0 0 0 393.020384070992 383.06135149307113" fill="none" stroke-linejoin="round" stroke-linecap="round" stroke-width="2.5090354711081546" stroke="black"></path><path d="M 392.28781852262523 408.10397240348664 A 133.3007360416714 133.3007360416714 0 0 0 393.24373833835364 395.5999104537058" fill="none" stroke-linejoin="round" stroke-linecap="round" stroke-width="2.5090354711081546" stroke="black"></path><path d="M 390.16108499483994 420.46287010675513 A 133.3007360416714 133.3007360416714 0 0 0 392.28781852262523 408.10397240348664" fill="none" stroke-linejoin="round" stroke-linecap="round" stroke-width="2.5090354711081546" stroke="black"></path><path d="M 386.8823604161017 432.56722110442695 A 133.3007360416714 133.3007360416714 0 0 0 390.16108499483994 420.46287010675513" fill="none" stroke-linejoin="round" stroke-linecap="round" stroke-width="2.5090354711081546" stroke="black"></path><path d="M 382.48066314756954 444.3098958037558 A 133.3007360416714 133.3007360416714 0 0 0 386.8823604161017 432.56722110442695" fill="none" stroke-linejoin="round" stroke-linecap="round" stroke-width="2.5090354711081546" stroke="black"></path><path d="M 376.9949504233706 455.58696562909705 A 133.3007360416714 133.3007360416714 0 0 0 382.48066314756954 444.3098958037558" fill="none" stroke-linejoin="round" stroke-linecap="round" stroke-width="2.5090354711081546" stroke="black"></path><path d="M 370.47377355948845 466.29862284206035 A 133.3007360416714 133.3007360416714 0 0 0 376.9949504233706 455.58696562909705" fill="none" stroke-linejoin="round" stroke-linecap="round" stroke-width="2.5090354711081546" stroke="black"></path><path d="M 362.97484825020433 476.35006389018076 A 133.3007360416714 133.3007360416714 0 0 0 370.47377355948845 466.29862284206035" fill="none" stroke-linejoin="round" stroke-linecap="round" stroke-width="2.5090354711081546" stroke="black"></path><path d="M 354.5645437551814 485.65232846602777 A 133.3007360416714 133.3007360416714 0 0 0 362.97484825020433 476.35006389018076" fill="none" stroke-linejoin="round" stroke-linecap="round" stroke-width="2.5090354711081546" stroke="black"></path><path d="M 345.3172954981444 494.12308685065824 A 133.3007360416714 133.3007360416714 0 0 0 354.5645437551814 485.65232846602777" fill="none" stroke-linejoin="round" stroke-linecap="round" stroke-width="2.5090354711081546" stroke="black"></path><path d="M 335.31494627595134 501.68736857302645 A 133.3007360416714 133.3007360416714 0 0 0 345.3172954981444 494.12308685065824" fill="none" stroke-linejoin="round" stroke-linecap="round" stroke-width="2.5090354711081546" stroke="black"></path><path d="M 324.6460219086882 508.2782259363504 A 133.3007360416714 133.3007360416714 0 0 0 335.31494627595134 501.68736857302645" fill="none" stroke-linejoin="round" stroke-linecap="round" stroke-width="2.5090354711081546" stroke="black"></path><path d="M 313.40494774164847 513.8373265388914 A 133.3007360416714 133.3007360416714 0 0 0 324.6460219086882 508.2782259363504" fill="none" stroke-linejoin="round" stroke-linecap="round" stroke-width="2.5090354711081546" stroke="black"></path></g><g id="letters"></g><g id="strands"></g><g></g><g></g><g></g><g></g><g></g><g></g><g></g><g></g><g></g><g></g><g></g><g></g><g></g><g></g><g></g><g></g><g></g><g></g><g></g><g></g><g></g><g></g><g></g><g></g><g></g><g></g><g></g><g></g><g></g><g></g><g></g><g></g><g></g><g></g><g></g><g></g><g></g><g></g><g></g><g></g><g></g><g></g><g></g><g></g><g></g><g></g><g></g><g></g><g></g><g></g><g></g><g></g><g></g><g><rect width="15" height="15" fill="#900c00" x="530" y="50"></rect><rect width="15" height="15" fill="#900c00" x="530" y="55"></rect><rect width="15" height="15" fill="#920c00" x="530" y="60"></rect><rect width="15" height="15" fill="#950c00" x="530" y="65"></rect><rect width="15" height="15" fill="#980e00" x="530" y="70"></rect><rect width="15" height="15" fill="#9d1000" x="530" y="75"></rect><rect width="15" height="15" fill="#a21202" x="530" y="80"></rect><rect width="15" height="15" fill="#a71503" x="530" y="85"></rect><rect width="15" height="15" fill="#ad1905" x="530" y="90"></rect><rect width="15" height="15" fill="#b41d07" x="530" y="95"></rect><rect width="15" height="15" fill="#ba2208" x="530" y="100"></rect><rect width="15" height="15" fill="#c1260a" x="530" y="105"></rect><rect width="15" height="15" fill="#c72c0c" x="530" y="110"></rect><rect width="15" height="15" fill="#ce310d" x="530" y="115"></rect><rect width="15" height="15" fill="#d5370f" x="530" y="120"></rect><rect width="15" height="15" fill="#db3d11" x="530" y="125"></rect><rect width="15" height="15" fill="#e14412" x="530" y="130"></rect><rect width="15" height="15" fill="#e74a13" x="530" y="135"></rect><rect width="15" height="15" fill="#ec5115" x="530" y="140"></rect><rect width="15" height="15" fill="#f15816" x="530" y="145"></rect><rect width="15" height="15" fill="#f65f18" x="530" y="150"></rect><rect width="15" height="15" fill="#fa6619" x="530" y="155"></rect><rect width="15" height="15" fill="#fd6d1a" x="530" y="160"></rect><rect width="15" height="15" fill="#ff741b" x="530" y="165"></rect><rect width="15" height="15" fill="#ff7b1c" x="530" y="170"></rect><rect width="15" height="15" fill="#ff821d" x="530" y="175"></rect><rect width="15" height="15" fill="#ff891e" x="530" y="180"></rect><rect width="15" height="15" fill="#ff9020" x="530" y="185"></rect><rect width="15" height="15" fill="#ff9721" x="530" y="190"></rect><rect width="15" height="15" fill="#ff9e22" x="530" y="195"></rect><rect width="15" height="15" fill="#ffa423" x="530" y="200"></rect><rect width="15" height="15" fill="#ffab24" x="530" y="205"></rect><rect width="15" height="15" fill="#ffb125" x="530" y="210"></rect><rect width="15" height="15" fill="#ffb727" x="530" y="215"></rect><rect width="15" height="15" fill="#fcbd28" x="530" y="220"></rect><rect width="15" height="15" fill="#f8c32a" x="530" y="225"></rect><rect width="15" height="15" fill="#f4c92b" x="530" y="230"></rect><rect width="15" height="15" fill="#efce2d" x="530" y="235"></rect><rect width="15" height="15" fill="#ead32e" x="530" y="240"></rect><rect width="15" height="15" fill="#e4d830" x="530" y="245"></rect><rect width="15" height="15" fill="#dedd32" x="530" y="250"></rect><rect width="15" height="15" fill="#d8e135" x="530" y="255"></rect><rect width="15" height="15" fill="#d1e537" x="530" y="260"></rect><rect width="15" height="15" fill="#cae93a" x="530" y="265"></rect><rect width="15" height="15" fill="#c3ec3c" x="530" y="270"></rect><rect width="15" height="15" fill="#bbf03f" x="530" y="275"></rect><rect width="15" height="15" fill="#b4f242" x="530" y="280"></rect><rect width="15" height="15" fill="#acf545" x="530" y="285"></rect><rect width="15" height="15" fill="#a4f749" x="530" y="290"></rect><rect width="15" height="15" fill="#9cf94d" x="530" y="295"></rect><rect width="15" height="15" fill="#95fb51" x="530" y="300"></rect><rect width="15" height="15" fill="#8dfc55" x="530" y="305"></rect><rect width="15" height="15" fill="#85fd59" x="530" y="310"></rect><rect width="15" height="15" fill="#7dfd5e" x="530" y="315"></rect><rect width="15" height="15" fill="#76fe63" x="530" y="320"></rect><rect width="15" height="15" fill="#6efe68" x="530" y="325"></rect><rect width="15" height="15" fill="#67fd6d" x="530" y="330"></rect><rect width="15" height="15" fill="#60fc72" x="530" y="335"></rect><rect width="15" height="15" fill="#59fb78" x="530" y="340"></rect><rect width="15" height="15" fill="#53fa7e" x="530" y="345"></rect><rect width="15" height="15" fill="#4df884" x="530" y="350"></rect><rect width="15" height="15" fill="#47f68a" x="530" y="355"></rect><rect width="15" height="15" fill="#42f490" x="530" y="360"></rect><rect width="15" height="15" fill="#3df196" x="530" y="365"></rect><rect width="15" height="15" fill="#38ee9d" x="530" y="370"></rect><rect width="15" height="15" fill="#34eba3" x="530" y="375"></rect><rect width="15" height="15" fill="#31e8aa" x="530" y="380"></rect><rect width="15" height="15" fill="#2de4b0" x="530" y="385"></rect><rect width="15" height="15" fill="#2be0b7" x="530" y="390"></rect><rect width="15" height="15" fill="#29dbbd" x="530" y="395"></rect><rect width="15" height="15" fill="#27d7c4" x="530" y="400"></rect><rect width="15" height="15" fill="#26d2ca" x="530" y="405"></rect><rect width="15" height="15" fill="#25cdd0" x="530" y="410"></rect><rect width="15" height="15" fill="#25c7d6" x="530" y="415"></rect><rect width="15" height="15" fill="#25c2dc" x="530" y="420"></rect><rect width="15" height="15" fill="#26bce1" x="530" y="425"></rect><rect width="15" height="15" fill="#27b6e6" x="530" y="430"></rect><rect width="15" height="15" fill="#29b0eb" x="530" y="435"></rect><rect width="15" height="15" fill="#2aaaef" x="530" y="440"></rect><rect width="15" height="15" fill="#2da4f2" x="530" y="445"></rect><rect width="15" height="15" fill="#2f9df5" x="530" y="450"></rect><rect width="15" height="15" fill="#3296f7" x="530" y="455"></rect><rect width="15" height="15" fill="#3590f8" x="530" y="460"></rect><rect width="15" height="15" fill="#3889f9" x="530" y="465"></rect><rect width="15" height="15" fill="#3b82f8" x="530" y="470"></rect><rect width="15" height="15" fill="#3e7bf7" x="530" y="475"></rect><rect width="15" height="15" fill="#4174f4" x="530" y="480"></rect><rect width="15" height="15" fill="#436df1" x="530" y="485"></rect><rect width="15" height="15" fill="#4666eb" x="530" y="490"></rect><rect width="15" height="15" fill="#485fe5" x="530" y="495"></rect><rect width="15" height="15" fill="#4a58dd" x="530" y="500"></rect><rect width="15" height="15" fill="#4b51d3" x="530" y="505"></rect><rect width="15" height="15" fill="#4b4ac7" x="530" y="510"></rect><rect width="15" height="15" fill="#4a43ba" x="530" y="515"></rect><rect width="15" height="15" fill="#493caa" x="530" y="520"></rect><rect width="15" height="15" fill="#463699" x="530" y="525"></rect><rect width="15" height="15" fill="#422f85" x="530" y="530"></rect><rect width="15" height="15" fill="#3d296e" x="530" y="535"></rect><rect width="15" height="15" fill="#362356" x="530" y="540"></rect><text font-weight="500" font-family="Avenir Next, Helvetica, Arial" font-size="13" x="547" y="62.681339263916016"><tspan dy="0" x="547">1.0</tspan></text><text font-weight="500" font-family="Avenir Next, Helvetica, Arial" font-size="13" x="547" y="112.68133926391602"><tspan dy="0" x="547">0.9</tspan></text><text font-weight="500" font-family="Avenir Next, Helvetica, Arial" font-size="13" x="547" y="162.68133926391602"><tspan dy="0" x="547">0.8</tspan></text><text font-weight="500" font-family="Avenir Next, Helvetica, Arial" font-size="13" x="547" y="212.68133926391602"><tspan dy="0" x="547">0.7</tspan></text><text font-weight="500" font-family="Avenir Next, Helvetica, Arial" font-size="13" x="547" y="262.681339263916"><tspan dy="0" x="547">0.6</tspan></text><text font-weight="500" font-family="Avenir Next, Helvetica, Arial" font-size="13" x="547" y="312.681339263916"><tspan dy="0" x="547">0.5</tspan></text><text font-weight="500" font-family="Avenir Next, Helvetica, Arial" font-size="13" x="547" y="362.681339263916"><tspan dy="0" x="547">0.4</tspan></text><text font-weight="500" font-family="Avenir Next, Helvetica, Arial" font-size="13" x="547" y="412.681339263916"><tspan dy="0" x="547">0.3</tspan></text><text font-weight="500" font-family="Avenir Next, Helvetica, Arial" font-size="13" x="547" y="462.681339263916"><tspan dy="0" x="547">0.2</tspan></text><text font-weight="500" font-family="Avenir Next, Helvetica, Arial" font-size="13" x="547" y="512.681339263916"><tspan dy="0" x="547">0.1</tspan></text><text font-weight="500" font-family="Avenir Next, Helvetica, Arial" font-size="13" x="547" y="562.681339263916"><tspan dy="0" x="547">0.0</tspan></text><text font-weight="500" font-family="Avenir Next, Helvetica, Arial" font-size="15" x="547" y="315.3987693786621" transform="matrix(6.123233995736766e-17,1,-1,6.123233995736766e-17,936.1090517044067,-315.2754240036011)"><tspan dy="0" x="547">Equilibrium Probability</tspan></text></g><g><text font-weight="500" font-family="Avenir Next, Helvetica, Arial" font-size="15" x="163.58078002929688" y="29.981955528259277"><tspan dy="0" x="163.58078002929688">MFE proxy structure at 40°C</tspan></text><text font-weight="500" font-family="Avenir Next, Helvetica, Arial" x="74.00466918945312" font-size="15" y="564.9819555282593"><tspan dy="0" x="74.00466918945312">Free energy of the secondary structure: -2.48 kcal/mol</tspan></text></g><g><line x1="313.40494774164847" y1="513.8373265388914" x2="305.74203797544936" y2="517.1880184204072" stroke-linecap="round" stroke-opacity="1" stroke-width="2.5090354711081546" stroke="black"></line><line x1="313.40494774164847" y1="513.8373265388914" x2="305.74203797544936" y2="517.1880184204072" stroke-linecap="round" stroke-opacity="1" stroke-width="2.5090354711081546" stroke="black" marker-end="url(#arrowblack)"></line></g><defs><marker markerWidth="3" markerHeight="3" refX="10" refY="10" viewBox="0 0 20 20" orient="auto" id="arrowblack" markerUnits="strokeWidth"><path d="M0 0 10 0 20 10 10 20 0 20 10 10Z" fill="black"></path></marker></defs><style>@font-face{font-family:Avenir Next, Helvetica, Arial;src:https://fonts.googleapis.com/css?family=Avenir+Next:300,400,500,600,700&amp;amp;lang=en;}</style><g></g><use xlink:href="#top"></use></svg>