<svg xmlns="http://www.w3.org/2000/svg" version="1.1" xmlns:xlink="http://www.w3.org/1999/xlink" xmlns:svgjs="http://svgjs.dev/svgjs" viewBox="0 0 650 600" width="100%"><g id="top"><g><circle r="3.805009365580508" cx="91.07369701662506" cy="326.07640490915276" fill="#a41403" stroke-width="1.268336455193503" stroke="#a41403"></circle></g><g><circle r="3.805009365580508" cx="97.01006184694987" cy="301.43796379813864" fill="#e84c14" stroke-width="1.268336455193503" stroke="#e84c14"></circle></g><g><circle r="3.805009365580508" cx="106.52071379757484" cy="277.94667376856177" fill="#bd2409" stroke-width="1.268336455193503" stroke="#bd2409"></circle></g><g><circle r="3.805009365580508" cx="119.39699551640976" cy="256.11791803496976" fill="#940c00" stroke-width="1.268336455193503" stroke="#940c00"></circle></g><g><circle r="3.805009365580508" cx="135.3564099819917" cy="236.4306049197831" fill="#940c00" stroke-width="1.268336455193503" stroke="#940c00"></circle></g><g><circle r="3.805009365580508" cx="154.04881829947004" cy="219.3166609245407" fill="#940c00" stroke-width="1.268336455193503" stroke="#940c00"></circle></g><g><circle r="3.805009365580508" cx="175.0641215141187" cy="205.15155455091923" fill="#f05716" stroke-width="1.268336455193503" stroke="#f05716"></circle></g><g><circle r="3.805009365580508" cx="197.94125790851703" cy="194.24605877256369" fill="#ff741b" stroke-width="1.268336455193503" stroke="#ff741b"></circle></g><g><circle r="3.805009365580508" cx="222.1783183887095" cy="186.83943288359592" fill="#980d00" stroke-width="1.268336455193503" stroke="#980d00"></circle></g><g><circle r="3.805009365580508" cx="247.2435580345263" cy="183.094173309491" fill="#d6380f" stroke-width="1.268336455193503" stroke="#d6380f"></circle></g><g><circle r="3.805009365580508" cx="247.2435580345263" cy="166.26778879026597" fill="#a61403" stroke-width="1.268336455193503" stroke="#a61403"></circle></g><g><circle r="3.805009365580508" cx="247.24355803452633" cy="149.44140427104094" fill="#920c00" stroke-width="1.268336455193503" stroke="#920c00"></circle></g><g><circle r="3.805009365580508" cx="247.24355803452633" cy="132.6150197518159" fill="#930c00" stroke-width="1.268336455193503" stroke="#930c00"></circle></g><g><circle r="3.805009365580508" cx="247.24355803452633" cy="115.78863523259085" fill="#990e00" stroke-width="1.268336455193503" stroke="#990e00"></circle></g><g><circle r="3.805009365580508" cx="235.4979768317814" cy="94.58151700450904" fill="#900c00" stroke-width="1.268336455193503" stroke="#900c00"></circle></g><g><circle r="3.805009365580508" cx="247.80565469351677" cy="73.6955981360019" fill="#900c00" stroke-width="1.268336455193503" stroke="#900c00"></circle></g><g><circle r="3.805009365580508" cx="272.0481904794059" cy="73.6955981360019" fill="#900c00" stroke-width="1.268336455193503" stroke="#900c00"></circle></g><g><circle r="3.805009365580508" cx="284.35586834114133" cy="94.58151700450904" fill="#900c00" stroke-width="1.268336455193503" stroke="#900c00"></circle></g><g><circle r="3.805009365580508" cx="272.61028713839636" cy="115.78863523259088" fill="#990e00" stroke-width="1.268336455193503" stroke="#990e00"></circle></g><g><circle r="3.805009365580508" cx="272.61028713839636" cy="132.6150197518159" fill="#930c00" stroke-width="1.268336455193503" stroke="#930c00"></circle></g><g><circle r="3.805009365580508" cx="272.61028713839636" cy="149.44140427104094" fill="#920c00" stroke-width="1.268336455193503" stroke="#920c00"></circle></g><g><circle r="3.805009365580508" cx="272.61028713839636" cy="166.26778879026597" fill="#a61403" stroke-width="1.268336455193503" stroke="#a61403"></circle></g><g><circle r="3.805009365580508" cx="272.61028713839636" cy="183.094173309491" fill="#d6380f" stroke-width="1.268336455193503" stroke="#d6380f"></circle></g><g><circle r="3.805009365580508" cx="297.6755267842127" cy="186.8394328835958" fill="#900c00" stroke-width="1.268336455193503" stroke="#900c00"></circle></g><g><circle r="3.805009365580508" cx="321.91258726440503" cy="194.24605877256352" fill="#89fc57" stroke-width="1.268336455193503" stroke="#89fc57"></circle></g><g><circle r="3.805009365580508" cx="344.78972365880327" cy="205.1515545509189" fill="#78fe61" stroke-width="1.268336455193503" stroke="#78fe61"></circle></g><g><circle r="3.805009365580508" cx="365.80502687345194" cy="219.31666092454017" fill="#63fd70" stroke-width="1.268336455193503" stroke="#63fd70"></circle></g><g><circle r="3.805009365580508" cx="384.49743519093033" cy="236.4306049197825" fill="#ff801d" stroke-width="1.268336455193503" stroke="#ff801d"></circle></g><g><circle r="3.805009365580508" cx="400.4568496565124" cy="256.11791803496914" fill="#c3280b" stroke-width="1.268336455193503" stroke="#c3280b"></circle></g><g><circle r="3.805009365580508" cx="413.3331313753474" cy="277.94667376856114" fill="#b72008" stroke-width="1.268336455193503" stroke="#b72008"></circle></g><g><circle r="3.805009365580508" cx="422.8437833259726" cy="301.437963798138" fill="#950c00" stroke-width="1.268336455193503" stroke="#950c00"></circle></g><g><circle r="3.805009365580508" cx="428.7801481562974" cy="326.07640490915213" fill="#ffad25" stroke-width="1.268336455193503" stroke="#ffad25"></circle></g><g><circle r="3.805009365580508" cx="431.01198598655697" cy="351.32144615845596" fill="#5cfc75" stroke-width="1.268336455193503" stroke="#5cfc75"></circle></g><g><circle r="3.805009365580508" cx="429.49033178529214" cy="376.6192282009869" fill="#a5f749" stroke-width="1.268336455193503" stroke="#a5f749"></circle></g><g><circle r="3.805009365580508" cx="424.24856962943926" cy="401.4147345939021" fill="#a8f647" stroke-width="1.268336455193503" stroke="#a8f647"></circle></g><g><circle r="3.805009365580508" cx="415.4017002799772" cy="425.1639684866654" fill="#b31c07" stroke-width="1.268336455193503" stroke="#b31c07"></circle></g><g><circle r="3.805009365580508" cx="403.14381814203523" cy="447.3458875486391" fill="#ba2209" stroke-width="1.268336455193503" stroke="#ba2209"></circle></g><g><circle r="3.805009365580508" cx="387.7438529632706" cy="467.4738352898388" fill="#c3280b" stroke-width="1.268336455193503" stroke="#c3280b"></circle></g><g><circle r="3.805009365580508" cx="369.5396696948106" cy="485.1062179793096" fill="#af1a06" stroke-width="1.268336455193503" stroke="#af1a06"></circle></g><g><circle r="3.805009365580508" cx="348.9306559598678" cy="499.85619291666353" fill="#b92008" stroke-width="1.268336455193503" stroke="#b92008"></circle></g><g><circle r="3.805009365580508" cx="326.3689597560193" cy="511.40015550257294" fill="#af1a05" stroke-width="1.268336455193503" stroke="#af1a05"></circle></g><g><circle r="3.805009365580508" cx="302.3495696301073" cy="519.4848389075596" fill="#f45c17" stroke-width="1.268336455193503" stroke="#f45c17"></circle></g><g><circle r="3.805009365580508" cx="277.3994549601004" cy="523.9328705770888" fill="#b41d07" stroke-width="1.268336455193503" stroke="#b41d07"></circle></g><g><circle r="3.805009365580508" cx="252.0660045988787" cy="524.646663666957" fill="#bf250a" stroke-width="1.268336455193503" stroke="#bf250a"></circle></g><g><circle r="3.805009365580508" cx="226.90501752837605" cy="521.6105580334809" fill="#920c00" stroke-width="1.268336455193503" stroke="#920c00"></circle></g><g><circle r="3.805009365580508" cx="202.46850900110786" cy="514.8911638065899" fill="#e84c14" stroke-width="1.268336455193503" stroke="#e84c14"></circle></g><g><circle r="3.805009365580508" cx="179.2925996941953" cy="504.6359000080623" fill="#b82008" stroke-width="1.268336455193503" stroke="#b82008"></circle></g><g><circle r="3.805009365580508" cx="157.88575357975841" cy="491.0697602766411" fill="#c4290b" stroke-width="1.268336455193503" stroke="#c4290b"></circle></g><g><circle r="3.805009365580508" cx="138.71762256494642" cy="474.4903766578624" fill="#980e00" stroke-width="1.268336455193503" stroke="#980e00"></circle></g><g><circle r="3.805009365580508" cx="122.20874264275287" cy="455.2614897557502" fill="#900c00" stroke-width="1.268336455193503" stroke="#900c00"></circle></g><g><circle r="3.805009365580508" cx="108.72130761318482" cy="433.8049685068895" fill="#ff9b21" stroke-width="1.268336455193503" stroke="#ff9b21"></circle></g><g><circle r="3.805009365580508" cx="98.5512227931828" cy="410.5915546577033" fill="#970d00" stroke-width="1.268336455193503" stroke="#970d00"></circle></g><g><circle r="3.805009365580508" cx="91.92161305158788" cy="386.1305350049215" fill="#d73910" stroke-width="1.268336455193503" stroke="#d73910"></circle></g><g><circle r="3.805009365580508" cx="88.97792759853348" cy="360.95856798338934" fill="#930c00" stroke-width="1.268336455193503" stroke="#930c00"></circle></g></g><g><g></g><g></g><g></g><g></g><g></g><g></g><g></g><g></g><g></g><g></g><g></g><g></g><g></g><g></g><g></g><g></g><g></g><g></g><g><line x1="247.2435580345263" y1="183.094173309491" x2="259.92692258646133" y2="183.094173309491" stroke-linecap="round" stroke-width="1.268336455193503" stroke="black" fill="black"></line><g></g></g><g></g><g><line x1="247.2435580345263" y1="166.26778879026597" x2="259.92692258646133" y2="166.26778879026597" stroke-linecap="round" stroke-width="1.268336455193503" stroke="black" fill="black"></line><g></g></g><g></g><g><line x1="247.24355803452633" y1="149.44140427104094" x2="259.92692258646133" y2="149.44140427104094" stroke-linecap="round" stroke-width="1.268336455193503" stroke="black" fill="black"></line><g></g></g><g></g><g><line x1="247.24355803452633" y1="132.6150197518159" x2="259.92692258646133" y2="132.6150197518159" stroke-linecap="round" stroke-width="1.268336455193503" stroke="black" fill="black"></line><g></g></g><g></g><g><line x1="247.24355803452633" y1="115.78863523259085" x2="259.92692258646133" y2="115.78863523259088" stroke-linecap="round" stroke-width="1.268336455193503" stroke="black" fill="black"></line><g></g></g><g></g><g></g><g></g><g></g><g></g><g></g><g></g><g></g><g></g><g><line x1="272.61028713839636" y1="115.78863523259088" x2="259.92692258646133" y2="115.78863523259088" stroke-linecap="round" stroke-width="1.268336455193503" stroke="black" fill="black"></line><g></g></g><g></g><g><line x1="272.61028713839636" y1="132.6150197518159" x2="259.92692258646133" y2="132.6150197518159" stroke-linecap="round" stroke-width="1.268336455193503" stroke="black" fill="black"></line><g></g></g><g></g><g><line x1="272.61028713839636" y1="149.44140427104094" x2="259.92692258646133" y2="149.44140427104094" stroke-linecap="round" stroke-width="1.268336455193503" stroke="black" fill="black"></line><g></g></g><g></g><g><line x1="272.61028713839636" y1="166.26778879026597" x2="259.92692258646133" y2="166.26778879026597" stroke-linecap="round" stroke-width="1.268336455193503" stroke="black" fill="black"></line><g></g></g><g></g><g><line x1="272.61028713839636" y1="183.094173309491" x2="259.92692258646133" y2="183.094173309491" stroke-linecap="round" stroke-width="1.268336455193503" stroke="black" fill="black"></line><g></g></g><g></g><g></g><g></g><g></g><g></g><g></g><g></g><g></g><g></g><g></g><g></g><g></g><g></g><g></g><g></g><g></g><g></g><g></g><g></g><g></g><g></g><g></g><g></g><g></g><g></g><g></g><g></g><g></g><g></g><g></g><g></g><g></g><g></g><g></g><g></g><g></g><g></g><g></g><g></g><g></g><g></g><g></g><g></g><g></g><g></g><g></g><g></g><g></g><g></g><g></g><g></g><g></g><g></g><g></g><g></g><g></g><g></g><g></g><g></g><g></g><g></g><g></g><g></g></g><g><line x1="247.2435580345263" y1="183.094173309491" x2="247.2435580345263" y2="174.68098104987848" stroke-linecap="round" stroke-opacity="1" stroke-width="2.536672910387006" stroke="black" fill="black"></line><line x1="247.2435580345263" y1="166.26778879026597" x2="247.2435580345263" y2="174.68098104987848" stroke-linecap="round" stroke-opacity="1" stroke-width="2.536672910387006" stroke="black" fill="black"></line><line x1="247.2435580345263" y1="166.26778879026597" x2="247.24355803452633" y2="157.85459653065345" stroke-linecap="round" stroke-opacity="1" stroke-width="2.536672910387006" stroke="black" fill="black"></line><line x1="247.24355803452633" y1="149.44140427104094" x2="247.24355803452633" y2="157.85459653065345" stroke-linecap="round" stroke-opacity="1" stroke-width="2.536672910387006" stroke="black" fill="black"></line><line x1="247.24355803452633" y1="149.44140427104094" x2="247.24355803452633" y2="141.02821201142842" stroke-linecap="round" stroke-opacity="1" stroke-width="2.536672910387006" stroke="black" fill="black"></line><line x1="247.24355803452633" y1="132.6150197518159" x2="247.24355803452633" y2="141.02821201142842" stroke-linecap="round" stroke-opacity="1" stroke-width="2.536672910387006" stroke="black" fill="black"></line><line x1="247.24355803452633" y1="132.6150197518159" x2="247.24355803452633" y2="124.20182749220336" stroke-linecap="round" stroke-opacity="1" stroke-width="2.536672910387006" stroke="black" fill="black"></line><line x1="247.24355803452633" y1="115.78863523259085" x2="247.24355803452633" y2="124.20182749220336" stroke-linecap="round" stroke-opacity="1" stroke-width="2.536672910387006" stroke="black" fill="black"></line><line x1="272.61028713839636" y1="115.78863523259088" x2="272.61028713839636" y2="124.20182749220339" stroke-linecap="round" stroke-opacity="1" stroke-width="2.536672910387006" stroke="black" fill="black"></line><line x1="272.61028713839636" y1="132.6150197518159" x2="272.61028713839636" y2="124.20182749220339" stroke-linecap="round" stroke-opacity="1" stroke-width="2.536672910387006" stroke="black" fill="black"></line><line x1="272.61028713839636" y1="132.6150197518159" x2="272.61028713839636" y2="141.02821201142842" stroke-linecap="round" stroke-opacity="1" stroke-width="2.536672910387006" stroke="black" fill="black"></line><line x1="272.61028713839636" y1="149.44140427104094" x2="272.61028713839636" y2="141.02821201142842" stroke-linecap="round" stroke-opacity="1" stroke-width="2.536672910387006" stroke="black" fill="black"></line><line x1="272.61028713839636" y1="149.44140427104094" x2="272.61028713839636" y2="157.85459653065345" stroke-linecap="round" stroke-opacity="1" stroke-width="2.536672910387006" stroke="black" fill="black"></line><line x1="272.61028713839636" y1="166.26778879026597" x2="272.61028713839636" y2="157.85459653065345" stroke-linecap="round" stroke-opacity="1" stroke-width="2.536672910387006" stroke="black" fill="black"></line><line x1="272.61028713839636" y1="166.26778879026597" x2="272.61028713839636" y2="174.68098104987848" stroke-linecap="round" stroke-opacity="1" stroke-width="2.536672910387006" stroke="black" fill="black"></line><line x1="272.61028713839636" y1="183.094173309491" x2="272.61028713839636" y2="174.68098104987848" stroke-linecap="round" stroke-opacity="1" stroke-width="2.536672910387006" stroke="black" fill="black"></line></g><g><path d="M 93.58507356005657 313.6471219394284 A 171.10195158530308 171.10195158530308 0 0 0 91.07369701662506 326.07640490915276" fill="none" stroke-linejoin="round" stroke-linecap="round" stroke-width="2.536672910387006" stroke="black"></path><path d="M 97.01006184694987 301.43796379813864 A 171.10195158530308 171.10195158530308 0 0 0 93.58507356005657 313.6471219394284" fill="none" stroke-linejoin="round" stroke-linecap="round" stroke-width="2.536672910387006" stroke="black"></path><path d="M 101.32985055869548 289.5159877551224 A 171.10195158530308 171.10195158530308 0 0 0 97.01006184694987 301.43796379813864" fill="none" stroke-linejoin="round" stroke-linecap="round" stroke-width="2.536672910387006" stroke="black"></path><path d="M 106.52071379757484 277.94667376856177 A 171.10195158530308 171.10195158530308 0 0 0 101.32985055869548 289.5159877551224" fill="none" stroke-linejoin="round" stroke-linecap="round" stroke-width="2.536672910387006" stroke="black"></path><path d="M 112.55414139827778 266.79356484452387 A 171.10195158530308 171.10195158530308 0 0 0 106.52071379757484 277.94667376856177" fill="none" stroke-linejoin="round" stroke-linecap="round" stroke-width="2.536672910387006" stroke="black"></path><path d="M 119.39699551640976 256.11791803496976 A 171.10195158530308 171.10195158530308 0 0 0 112.55414139827778 266.79356484452387" fill="none" stroke-linejoin="round" stroke-linecap="round" stroke-width="2.536672910387006" stroke="black"></path><path d="M 127.01169263394621 245.97836799107927 A 171.10195158530308 171.10195158530308 0 0 0 119.39699551640976 256.11791803496976" fill="none" stroke-linejoin="round" stroke-linecap="round" stroke-width="2.536672910387006" stroke="black"></path><path d="M 135.35640998199167 236.4306049197831 A 171.10195158530308 171.10195158530308 0 0 0 127.01169263394621 245.97836799107927" fill="none" stroke-linejoin="round" stroke-linecap="round" stroke-width="2.536672910387006" stroke="black"></path><path d="M 144.38531524709242 227.52706871228585 A 171.10195158530308 171.10195158530308 0 0 0 135.35640998199167 236.4306049197831" fill="none" stroke-linejoin="round" stroke-linecap="round" stroke-width="2.536672910387006" stroke="black"></path><path d="M 154.04881829947004 219.3166609245407 A 171.10195158530308 171.10195158530308 0 0 0 144.38531524709242 227.52706871228585" fill="none" stroke-linejoin="round" stroke-linecap="round" stroke-width="2.536672910387006" stroke="black"></path><path d="M 164.29384356058978 211.84447619158618 A 171.10195158530308 171.10195158530308 0 0 0 154.04881829947004 219.3166609245407" fill="none" stroke-linejoin="round" stroke-linecap="round" stroke-width="2.536672910387006" stroke="black"></path><path d="M 175.0641215141187 205.15155455091923 A 171.10195158530308 171.10195158530308 0 0 0 164.29384356058978 211.84447619158618" fill="none" stroke-linejoin="round" stroke-linecap="round" stroke-width="2.536672910387006" stroke="black"></path><path d="M 186.30049775918735 199.2746560352362 A 171.10195158530308 171.10195158530308 0 0 0 175.0641215141187 205.15155455091923" fill="none" stroke-linejoin="round" stroke-linecap="round" stroke-width="2.536672910387006" stroke="black"></path><path d="M 197.94125790851703 194.24605877256369 A 171.10195158530308 171.10195158530308 0 0 0 186.30049775918735 199.2746560352362" fill="none" stroke-linejoin="round" stroke-linecap="round" stroke-width="2.536672910387006" stroke="black"></path><path d="M 209.92246654695228 190.09338170268876 A 171.10195158530308 171.10195158530308 0 0 0 197.94125790851703 194.24605877256369" fill="none" stroke-linejoin="round" stroke-linecap="round" stroke-width="2.536672910387006" stroke="black"></path><path d="M 222.1783183887095 186.83943288359592 A 171.10195158530308 171.10195158530308 0 0 0 209.92246654695228 190.09338170268876" fill="none" stroke-linejoin="round" stroke-linecap="round" stroke-width="2.536672910387006" stroke="black"></path><path d="M 234.64149970465624 184.50208422106914 A 171.10195158530308 171.10195158530308 0 0 0 222.1783183887095 186.83943288359592" fill="none" stroke-linejoin="round" stroke-linecap="round" stroke-width="2.536672910387006" stroke="black"></path><path d="M 247.24355803452596 183.09417330949105 A 171.10195158530308 171.10195158530308 0 0 0 234.64149970465624 184.50208422106914" fill="none" stroke-linejoin="round" stroke-linecap="round" stroke-width="2.536672910387006" stroke="black"></path><path d="M 238.55482956872956 106.74468579737388 A 24.431123749555194 24.431123749555194 0 0 0 247.24355803452633 115.78863523259088" fill="none" stroke-linejoin="round" stroke-linecap="round" stroke-width="2.536672910387006" stroke="black"></path><path d="M 235.4979768317814 94.58151700450904 A 24.431123749555194 24.431123749555194 0 0 0 238.55482956872956 106.74468579737388" fill="none" stroke-linejoin="round" stroke-linecap="round" stroke-width="2.536672910387006" stroke="black"></path><path d="M 238.87852760804992 82.5043111940503 A 24.431123749555194 24.431123749555194 0 0 0 235.4979768317814 94.58151700450904" fill="none" stroke-linejoin="round" stroke-linecap="round" stroke-width="2.536672910387006" stroke="black"></path><path d="M 247.80565469351677 73.69559813600193 A 24.431123749555194 24.431123749555194 0 0 0 238.87852760804992 82.5043111940503" fill="none" stroke-linejoin="round" stroke-linecap="round" stroke-width="2.536672910387006" stroke="black"></path><path d="M 259.92692258646133 70.4766094117937 A 24.431123749555194 24.431123749555194 0 0 0 247.80565469351677 73.69559813600193" fill="none" stroke-linejoin="round" stroke-linecap="round" stroke-width="2.536672910387006" stroke="black"></path><path d="M 272.0481904794059 73.6955981360019 A 24.431123749555194 24.431123749555194 0 0 0 259.92692258646133 70.4766094117937" fill="none" stroke-linejoin="round" stroke-linecap="round" stroke-width="2.536672910387006" stroke="black"></path><path d="M 280.97531756487274 82.5043111940503 A 24.431123749555194 24.431123749555194 0 0 0 272.0481904794059 73.6955981360019" fill="none" stroke-linejoin="round" stroke-linecap="round" stroke-width="2.536672910387006" stroke="black"></path><path d="M 284.35586834114133 94.58151700450904 A 24.431123749555194 24.431123749555194 0 0 0 280.97531756487274 82.5043111940503" fill="none" stroke-linejoin="round" stroke-linecap="round" stroke-width="2.536672910387006" stroke="black"></path><path d="M 281.29901560419313 106.74468579737388 A 24.431123749555194 24.431123749555194 0 0 0 284.35586834114133 94.58151700450904" fill="none" stroke-linejoin="round" stroke-linecap="round" stroke-width="2.536672910387006" stroke="black"></path><path d="M 272.61028713839636 115.78863523259088 A 24.431123749555194 24.431123749555194 0 0 0 281.29901560419313 106.74468579737388" fill="none" stroke-linejoin="round" stroke-linecap="round" stroke-width="2.536672910387006" stroke="black"></path><path d="M 285.21234546826605 184.50208422106908 A 171.10195158530308 171.10195158530308 0 0 0 272.61028713839636 183.094173309491" fill="none" stroke-linejoin="round" stroke-linecap="round" stroke-width="2.536672910387006" stroke="black"></path><path d="M 297.6755267842127 186.8394328835958 A 171.10195158530308 171.10195158530308 0 0 0 285.21234546826605 184.50208422106908" fill="none" stroke-linejoin="round" stroke-linecap="round" stroke-width="2.536672910387006" stroke="black"></path><path d="M 309.93137862596984 190.09338170268865 A 171.10195158530308 171.10195158530308 0 0 0 297.6755267842127 186.8394328835958" fill="none" stroke-linejoin="round" stroke-linecap="round" stroke-width="2.536672910387006" stroke="black"></path><path d="M 321.91258726440503 194.24605877256352 A 171.10195158530308 171.10195158530308 0 0 0 309.93137862596984 190.09338170268865" fill="none" stroke-linejoin="round" stroke-linecap="round" stroke-width="2.536672910387006" stroke="black"></path><path d="M 333.5533474137347 199.27465603523592 A 171.10195158530308 171.10195158530308 0 0 0 321.91258726440503 194.24605877256352" fill="none" stroke-linejoin="round" stroke-linecap="round" stroke-width="2.536672910387006" stroke="black"></path><path d="M 344.78972365880327 205.1515545509189 A 171.10195158530308 171.10195158530308 0 0 0 333.5533474137347 199.27465603523592" fill="none" stroke-linejoin="round" stroke-linecap="round" stroke-width="2.536672910387006" stroke="black"></path><path d="M 355.5600016123322 211.84447619158573 A 171.10195158530308 171.10195158530308 0 0 0 344.78972365880327 205.1515545509189" fill="none" stroke-linejoin="round" stroke-linecap="round" stroke-width="2.536672910387006" stroke="black"></path><path d="M 365.80502687345194 219.31666092454017 A 171.10195158530308 171.10195158530308 0 0 0 355.5600016123322 211.84447619158573" fill="none" stroke-linejoin="round" stroke-linecap="round" stroke-width="2.536672910387006" stroke="black"></path><path d="M 375.4685299258296 227.5270687122853 A 171.10195158530308 171.10195158530308 0 0 0 365.80502687345194 219.31666092454017" fill="none" stroke-linejoin="round" stroke-linecap="round" stroke-width="2.536672910387006" stroke="black"></path><path d="M 384.49743519093033 236.4306049197825 A 171.10195158530308 171.10195158530308 0 0 0 375.4685299258296 227.5270687122853" fill="none" stroke-linejoin="round" stroke-linecap="round" stroke-width="2.536672910387006" stroke="black"></path><path d="M 392.8421525389759 245.9783679910787 A 171.10195158530308 171.10195158530308 0 0 0 384.49743519093033 236.4306049197825" fill="none" stroke-linejoin="round" stroke-linecap="round" stroke-width="2.536672910387006" stroke="black"></path><path d="M 400.4568496565124 256.11791803496914 A 171.10195158530308 171.10195158530308 0 0 0 392.8421525389759 245.9783679910787" fill="none" stroke-linejoin="round" stroke-linecap="round" stroke-width="2.536672910387006" stroke="black"></path><path d="M 407.29970377464446 266.7935648445232 A 171.10195158530308 171.10195158530308 0 0 0 400.4568496565124 256.11791803496914" fill="none" stroke-linejoin="round" stroke-linecap="round" stroke-width="2.536672910387006" stroke="black"></path><path d="M 413.3331313753474 277.94667376856114 A 171.10195158530308 171.10195158530308 0 0 0 407.29970377464446 266.7935648445232" fill="none" stroke-linejoin="round" stroke-linecap="round" stroke-width="2.536672910387006" stroke="black"></path><path d="M 418.5239946142268 289.51598775512184 A 171.10195158530308 171.10195158530308 0 0 0 413.3331313753474 277.94667376856114" fill="none" stroke-linejoin="round" stroke-linecap="round" stroke-width="2.536672910387006" stroke="black"></path><path d="M 422.84378332597254 301.437963798138 A 171.10195158530308 171.10195158530308 0 0 0 418.5239946142268 289.51598775512184" fill="none" stroke-linejoin="round" stroke-linecap="round" stroke-width="2.536672910387006" stroke="black"></path><path d="M 426.26877161286586 313.6471219394278 A 171.10195158530308 171.10195158530308 0 0 0 422.84378332597254 301.437963798138" fill="none" stroke-linejoin="round" stroke-linecap="round" stroke-width="2.536672910387006" stroke="black"></path><path d="M 428.7801481562974 326.07640490915213 A 171.10195158530308 171.10195158530308 0 0 0 426.26877161286586 313.6471219394278" fill="none" stroke-linejoin="round" stroke-linecap="round" stroke-width="2.536672910387006" stroke="black"></path><path d="M 430.364119535575 338.6575464294598 A 171.10195158530308 171.10195158530308 0 0 0 428.7801481562974 326.07640490915213" fill="none" stroke-linejoin="round" stroke-linecap="round" stroke-width="2.536672910387006" stroke="black"></path><path d="M 431.01198598655697 351.32144615845596 A 171.10195158530308 171.10195158530308 0 0 0 430.364119535575 338.6575464294598" fill="none" stroke-linejoin="round" stroke-linecap="round" stroke-width="2.536672910387006" stroke="black"></path><path d="M 430.72018918401557 363.99854921516436 A 171.10195158530308 171.10195158530308 0 0 0 431.01198598655697 351.32144615845596" fill="none" stroke-linejoin="round" stroke-linecap="round" stroke-width="2.536672910387006" stroke="black"></path><path d="M 429.49033178529214 376.6192282009869 A 171.10195158530308 171.10195158530308 0 0 0 430.72018918401557 363.99854921516436" fill="none" stroke-linejoin="round" stroke-linecap="round" stroke-width="2.536672910387006" stroke="black"></path><path d="M 427.3291686279025 389.1141656194585 A 171.10195158530308 171.10195158530308 0 0 0 429.49033178529214 376.6192282009869" fill="none" stroke-linejoin="round" stroke-linecap="round" stroke-width="2.536672910387006" stroke="black"></path><path d="M 424.24856962943926 401.4147345939021 A 171.10195158530308 171.10195158530308 0 0 0 427.3291686279025 389.1141656194585" fill="none" stroke-linejoin="round" stroke-linecap="round" stroke-width="2.536672910387006" stroke="black"></path><path d="M 420.26545459353775 413.45337579194245 A 171.10195158530308 171.10195158530308 0 0 0 424.24856962943926 401.4147345939021" fill="none" stroke-linejoin="round" stroke-linecap="round" stroke-width="2.536672910387006" stroke="black"></path><path d="M 415.40170027997715 425.1639684866654 A 171.10195158530308 171.10195158530308 0 0 0 420.26545459353775 413.45337579194245" fill="none" stroke-linejoin="round" stroke-linecap="round" stroke-width="2.536672910387006" stroke="black"></path><path d="M 409.6840202493208 436.4821937164182 A 171.10195158530308 171.10195158530308 0 0 0 415.40170027997715 425.1639684866654" fill="none" stroke-linejoin="round" stroke-linecap="round" stroke-width="2.536672910387006" stroke="black"></path><path d="M 403.14381814203523 447.3458875486391 A 171.10195158530308 171.10195158530308 0 0 0 409.6840202493208 436.4821937164182" fill="none" stroke-linejoin="round" stroke-linecap="round" stroke-width="2.536672910387006" stroke="black"></path><path d="M 395.8170151979334 457.695382507461 A 171.10195158530308 171.10195158530308 0 0 0 403.14381814203523 447.3458875486391" fill="none" stroke-linejoin="round" stroke-linecap="round" stroke-width="2.536672910387006" stroke="black"></path><path d="M 387.7438529632706 467.47383528983886 A 171.10195158530308 171.10195158530308 0 0 0 395.8170151979334 457.695382507461" fill="none" stroke-linejoin="round" stroke-linecap="round" stroke-width="2.536672910387006" stroke="black"></path><path d="M 378.96867226909825 476.62753897026255 A 171.10195158530308 171.10195158530308 0 0 0 387.7438529632706 467.47383528983886" fill="none" stroke-linejoin="round" stroke-linecap="round" stroke-width="2.536672910387006" stroke="black"></path><path d="M 369.5396696948105 485.1062179793096 A 171.10195158530308 171.10195158530308 0 0 0 378.96867226909825 476.62753897026255" fill="none" stroke-linejoin="round" stroke-linecap="round" stroke-width="2.536672910387006" stroke="black"></path><path d="M 359.5086328544772 492.8633042359045 A 171.10195158530308 171.10195158530308 0 0 0 369.5396696948105 485.1062179793096" fill="none" stroke-linejoin="round" stroke-linecap="round" stroke-width="2.536672910387006" stroke="black"></path><path d="M 348.9306559598678 499.85619291666353 A 171.10195158530308 171.10195158530308 0 0 0 359.5086328544772 492.8633042359045" fill="none" stroke-linejoin="round" stroke-linecap="round" stroke-width="2.536672910387006" stroke="black"></path><path d="M 337.86383722240396 506.04647645754414 A 171.10195158530308 171.10195158530308 0 0 0 348.9306559598678 499.85619291666353" fill="none" stroke-linejoin="round" stroke-linecap="round" stroke-width="2.536672910387006" stroke="black"></path><path d="M 326.3689597560193 511.40015550257294 A 171.10195158530308 171.10195158530308 0 0 0 337.86383722240396 506.04647645754414" fill="none" stroke-linejoin="round" stroke-linecap="round" stroke-width="2.536672910387006" stroke="black"></path><path d="M 314.5091577335297 515.8878256410446 A 171.10195158530308 171.10195158530308 0 0 0 326.3689597560193 511.40015550257294" fill="none" stroke-linejoin="round" stroke-linecap="round" stroke-width="2.536672910387006" stroke="black"></path><path d="M 302.3495696301073 519.4848389075596 A 171.10195158530308 171.10195158530308 0 0 0 314.5091577335297 515.8878256410446" fill="none" stroke-linejoin="round" stroke-linecap="round" stroke-width="2.536672910387006" stroke="black"></path><path d="M 289.9569804583748 522.171439157883 A 171.10195158530308 171.10195158530308 0 0 0 302.3495696301073 519.4848389075596" fill="none" stroke-linejoin="round" stroke-linecap="round" stroke-width="2.536672910387006" stroke="black"></path><path d="M 277.3994549601004 523.9328705770888 A 171.10195158530308 171.10195158530308 0 0 0 289.9569804583748 522.171439157883" fill="none" stroke-linejoin="round" stroke-linecap="round" stroke-width="2.536672910387006" stroke="black"></path><path d="M 264.74596376913945 524.7594587240227 A 171.10195158530308 171.10195158530308 0 0 0 277.3994549601004 523.9328705770888" fill="none" stroke-linejoin="round" stroke-linecap="round" stroke-width="2.536672910387006" stroke="black"></path><path d="M 252.0660045988787 524.646663666957 A 171.10195158530308 171.10195158530308 0 0 0 264.74596376913945 524.7594587240227" fill="none" stroke-linejoin="round" stroke-linecap="round" stroke-width="2.536672910387006" stroke="black"></path><path d="M 239.4292205347616 523.5951049185962 A 171.10195158530308 171.10195158530308 0 0 0 252.0660045988787 524.646663666957" fill="none" stroke-linejoin="round" stroke-linecap="round" stroke-width="2.536672910387006" stroke="black"></path><path d="M 226.90501752837605 521.6105580334809 A 171.10195158530308 171.10195158530308 0 0 0 239.4292205347616 523.5951049185962" fill="none" stroke-linejoin="round" stroke-linecap="round" stroke-width="2.536672910387006" stroke="black"></path><path d="M 214.5621831939701 518.703922886479 A 171.10195158530308 171.10195158530308 0 0 0 226.90501752837605 521.6105580334809" fill="none" stroke-linejoin="round" stroke-linecap="round" stroke-width="2.536672910387006" stroke="black"></path><path d="M 202.46850900110786 514.8911638065899 A 171.10195158530308 171.10195158530308 0 0 0 214.5621831939701 518.703922886479" fill="none" stroke-linejoin="round" stroke-linecap="round" stroke-width="2.536672910387006" stroke="black"></path><path d="M 190.69041793852534 510.19322189487036 A 171.10195158530308 171.10195158530308 0 0 0 202.46850900110786 514.8911638065899" fill="none" stroke-linejoin="round" stroke-linecap="round" stroke-width="2.536672910387006" stroke="black"></path><path d="M 179.2925996941953 504.6359000080623 A 171.10195158530308 171.10195158530308 0 0 0 190.69041793852534 510.19322189487036" fill="none" stroke-linejoin="round" stroke-linecap="round" stroke-width="2.536672910387006" stroke="black"></path><path d="M 168.3376553553295 498.2497210396392 A 171.10195158530308 171.10195158530308 0 0 0 179.2925996941953 504.6359000080623" fill="none" stroke-linejoin="round" stroke-linecap="round" stroke-width="2.536672910387006" stroke="black"></path><path d="M 157.8857535797584 491.0697602766411 A 171.10195158530308 171.10195158530308 0 0 0 168.3376553553295 498.2497210396392" fill="none" stroke-linejoin="round" stroke-linecap="round" stroke-width="2.536672910387006" stroke="black"></path><path d="M 147.99430012712432 483.1354527530603 A 171.10195158530308 171.10195158530308 0 0 0 157.8857535797584 491.0697602766411" fill="none" stroke-linejoin="round" stroke-linecap="round" stroke-width="2.536672910387006" stroke="black"></path><path d="M 138.7176225649464 474.4903766578624 A 171.10195158530308 171.10195158530308 0 0 0 147.99430012712432 483.1354527530603" fill="none" stroke-linejoin="round" stroke-linecap="round" stroke-width="2.536672910387006" stroke="black"></path><path d="M 130.10667188126953 465.1820139872493 A 171.10195158530308 171.10195158530308 0 0 0 138.7176225649464 474.4903766578624" fill="none" stroke-linejoin="round" stroke-linecap="round" stroke-width="2.536672910387006" stroke="black"></path><path d="M 122.20874264275284 455.2614897557502 A 171.10195158530308 171.10195158530308 0 0 0 130.10667188126953 465.1820139872493" fill="none" stroke-linejoin="round" stroke-linecap="round" stroke-width="2.536672910387006" stroke="black"></path><path d="M 115.0672132351938 444.78329119849104 A 171.10195158530308 171.10195158530308 0 0 0 122.20874264275284 455.2614897557502" fill="none" stroke-linejoin="round" stroke-linecap="round" stroke-width="2.536672910387006" stroke="black"></path><path d="M 108.72130761318482 433.8049685068895 A 171.10195158530308 171.10195158530308 0 0 0 115.0672132351938 444.78329119849104" fill="none" stroke-linejoin="round" stroke-linecap="round" stroke-width="2.536672910387006" stroke="black"></path><path d="M 103.2058798674619 422.38681874144646 A 171.10195158530308 171.10195158530308 0 0 0 108.72130761318482 433.8049685068895" fill="none" stroke-linejoin="round" stroke-linecap="round" stroke-width="2.536672910387006" stroke="black"></path><path d="M 98.5512227931828 410.5915546577033 A 171.10195158530308 171.10195158530308 0 0 0 103.2058798674619 422.38681874144646" fill="none" stroke-linejoin="round" stroke-linecap="round" stroke-width="2.536672910387006" stroke="black"></path><path d="M 94.78290151054867 398.48396026429776 A 171.10195158530308 171.10195158530308 0 0 0 98.5512227931828 410.5915546577033" fill="none" stroke-linejoin="round" stroke-linecap="round" stroke-width="2.536672910387006" stroke="black"></path><path d="M 91.92161305158785 386.1305350049215 A 171.10195158530308 171.10195158530308 0 0 0 94.78290151054867 398.48396026429776" fill="none" stroke-linejoin="round" stroke-linecap="round" stroke-width="2.536672910387006" stroke="black"></path><path d="M 89.98307268430318 373.59912851846576 A 171.10195158530308 171.10195158530308 0 0 0 91.92161305158785 386.1305350049215" fill="none" stroke-linejoin="round" stroke-linecap="round" stroke-width="2.536672910387006" stroke="black"></path><path d="M 88.97792759853346 360.95856798338934 A 171.10195158530308 171.10195158530308 0 0 0 89.98307268430318 373.59912851846576" fill="none" stroke-linejoin="round" stroke-linecap="round" stroke-width="2.536672910387006" stroke="black"></path></g><g id="letters"></g><g id="strands"></g><g></g><g></g><g></g><g></g><g></g><g></g><g></g><g></g><g></g><g></g><g></g><g></g><g></g><g></g><g></g><g></g><g></g><g></g><g></g><g></g><g></g><g></g><g></g><g></g><g></g><g></g><g></g><g></g><g></g><g></g><g></g><g></g><g></g><g></g><g></g><g></g><g></g><g></g><g></g><g></g><g></g><g></g><g></g><g></g><g></g><g></g><g></g><g></g><g></g><g></g><g></g><g></g><g></g><g></g><g><rect width="15" height="15" fill="#900c00" x="530" y="50"></rect><rect width="15" height="15" fill="#900c00" x="530" y="55"></rect><rect width="15" height="15" fill="#920c00" x="530" y="60"></rect><rect width="15" height="15" fill="#950c00" x="530" y="65"></rect><rect width="15" height="15" fill="#980e00" x="530" y="70"></rect><rect width="15" height="15" fill="#9d1000" x="530" y="75"></rect><rect width="15" height="15" fill="#a21202" x="530" y="80"></rect><rect width="15" height="15" fill="#a71503" x="530" y="85"></rect><rect width="15" height="15" fill="#ad1905" x="530" y="90"></rect><rect width="15" height="15" fill="#b41d07" x="530" y="95"></rect><rect width="15" height="15" fill="#ba2208" x="530" y="100"></rect><rect width="15" height="15" fill="#c1260a" x="530" y="105"></rect><rect width="15" height="15" fill="#c72c0c" x="530" y="110"></rect><rect width="15" height="15" fill="#ce310d" x="530" y="115"></rect><rect width="15" height="15" fill="#d5370f" x="530" y="120"></rect><rect width="15" height="15" fill="#db3d11" x="530" y="125"></rect><rect width="15" height="15" fill="#e14412" x="530" y="130"></rect><rect width="15" height="15" fill="#e74a13" x="530" y="135"></rect><rect width="15" height="15" fill="#ec5115" x="530" y="140"></rect><rect width="15" height="15" fill="#f15816" x="530" y="145"></rect><rect width="15" height="15" fill="#f65f18" x="530" y="150"></rect><rect width="15" height="15" fill="#fa6619" x="530" y="155"></rect><rect width="15" height="15" fill="#fd6d1a" x="530" y="160"></rect><rect width="15" height="15" fill="#ff741b" x="530" y="165"></rect><rect width="15" height="15" fill="#ff7b1c" x="530" y="170"></rect><rect width="15" height="15" fill="#ff821d" x="530" y="175"></rect><rect width="15" height="15" fill="#ff891e" x="530" y="180"></rect><rect width="15" height="15" fill="#ff9020" x="530" y="185"></rect><rect width="15" height="15" fill="#ff9721" x="530" y="190"></rect><rect width="15" height="15" fill="#ff9e22" x="530" y="195"></rect><rect width="15" height="15" fill="#ffa423" x="530" y="200"></rect><rect width="15" height="15" fill="#ffab24" x="530" y="205"></rect><rect width="15" height="15" fill="#ffb125" x="530" y="210"></rect><rect width="15" height="15" fill="#ffb727" x="530" y="215"></rect><rect width="15" height="15" fill="#fcbd28" x="530" y="220"></rect><rect width="15" height="15" fill="#f8c32a" x="530" y="225"></rect><rect width="15" height="15" fill="#f4c92b" x="530" y="230"></rect><rect width="15" height="15" fill="#efce2d" x="530" y="235"></rect><rect width="15" height="15" fill="#ead32e" x="530" y="240"></rect><rect width="15" height="15" fill="#e4d830" x="530" y="245"></rect><rect width="15" height="15" fill="#dedd32" x="530" y="250"></rect><rect width="15" height="15" fill="#d8e135" x="530" y="255"></rect><rect width="15" height="15" fill="#d1e537" x="530" y="260"></rect><rect width="15" height="15" fill="#cae93a" x="530" y="265"></rect><rect width="15" height="15" fill="#c3ec3c" x="530" y="270"></rect><rect width="15" height="15" fill="#bbf03f" x="530" y="275"></rect><rect width="15" height="15" fill="#b4f242" x="530" y="280"></rect><rect width="15" height="15" fill="#acf545" x="530" y="285"></rect><rect width="15" height="15" fill="#a4f749" x="530" y="290"></rect><rect width="15" height="15" fill="#9cf94d" x="530" y="295"></rect><rect width="15" height="15" fill="#95fb51" x="530" y="300"></rect><rect width="15" height="15" fill="#8dfc55" x="530" y="305"></rect><rect width="15" height="15" fill="#85fd59" x="530" y="310"></rect><rect width="15" height="15" fill="#7dfd5e" x="530" y="315"></rect><rect width="15" height="15" fill="#76fe63" x="530" y="320"></rect><rect width="15" height="15" fill="#6efe68" x="530" y="325"></rect><rect width="15" height="15" fill="#67fd6d" x="530" y="330"></rect><rect width="15" height="15" fill="#60fc72" x="530" y="335"></rect><rect width="15" height="15" fill="#59fb78" x="530" y="340"></rect><rect width="15" height="15" fill="#53fa7e" x="530" y="345"></rect><rect width="15" height="15" fill="#4df884" x="530" y="350"></rect><rect width="15" height="15" fill="#47f68a" x="530" y="355"></rect><rect width="15" height="15" fill="#42f490" x="530" y="360"></rect><rect width="15" height="15" fill="#3df196" x="530" y="365"></rect><rect width="15" height="15" fill="#38ee9d" x="530" y="370"></rect><rect width="15" height="15" fill="#34eba3" x="530" y="375"></rect><rect width="15" height="15" fill="#31e8aa" x="530" y="380"></rect><rect width="15" height="15" fill="#2de4b0" x="530" y="385"></rect><rect width="15" height="15" fill="#2be0b7" x="530" y="390"></rect><rect width="15" height="15" fill="#29dbbd" x="530" y="395"></rect><rect width="15" height="15" fill="#27d7c4" x="530" y="400"></rect><rect width="15" height="15" fill="#26d2ca" x="530" y="405"></rect><rect width="15" height="15" fill="#25cdd0" x="530" y="410"></rect><rect width="15" height="15" fill="#25c7d6" x="530" y="415"></rect><rect width="15" height="15" fill="#25c2dc" x="530" y="420"></rect><rect width="15" height="15" fill="#26bce1" x="530" y="425"></rect><rect width="15" height="15" fill="#27b6e6" x="530" y="430"></rect><rect width="15" height="15" fill="#29b0eb" x="530" y="435"></rect><rect width="15" height="15" fill="#2aaaef" x="530" y="440"></rect><rect width="15" height="15" fill="#2da4f2" x="530" y="445"></rect><rect width="15" height="15" fill="#2f9df5" x="530" y="450"></rect><rect width="15" height="15" fill="#3296f7" x="530" y="455"></rect><rect width="15" height="15" fill="#3590f8" x="530" y="460"></rect><rect width="15" height="15" fill="#3889f9" x="530" y="465"></rect><rect width="15" height="15" fill="#3b82f8" x="530" y="470"></rect><rect width="15" height="15" fill="#3e7bf7" x="530" y="475"></rect><rect width="15" height="15" fill="#4174f4" x="530" y="480"></rect><rect width="15" height="15" fill="#436df1" x="530" y="485"></rect><rect width="15" height="15" fill="#4666eb" x="530" y="490"></rect><rect width="15" height="15" fill="#485fe5" x="530" y="495"></rect><rect width="15" height="15" fill="#4a58dd" x="530" y="500"></rect><rect width="15" height="15" fill="#4b51d3" x="530" y="505"></rect><rect width="15" height="15" fill="#4b4ac7" x="530" y="510"></rect><rect width="15" height="15" fill="#4a43ba" x="530" y="515"></rect><rect width="15" height="15" fill="#493caa" x="530" y="520"></rect><rect width="15" height="15" fill="#463699" x="530" y="525"></rect><rect width="15" height="15" fill="#422f85" x="530" y="530"></rect><rect width="15" height="15" fill="#3d296e" x="530" y="535"></rect><rect width="15" height="15" fill="#362356" x="530" y="540"></rect><text font-weight="500" font-family="Avenir Next, Helvetica, Arial" font-size="13" x="547" y="62.681339263916016"><tspan dy="0" x="547">1.0</tspan></text><text font-weight="500" font-family="Avenir Next, Helvetica, Arial" font-size="13" x="547" y="112.68133926391602"><tspan dy="0" x="547">0.9</tspan></text><text font-weight="500" font-family="Avenir Next, Helvetica, Arial" font-size="13" x="547" y="162.68133926391602"><tspan dy="0" x="547">0.8</tspan></text><text font-weight="500" font-family="Avenir Next, Helvetica, Arial" font-size="13" x="547" y="212.68133926391602"><tspan dy="0" x="547">0.7</tspan></text><text font-weight="500" font-family="Avenir Next, Helvetica, Arial" font-size="13" x="547" y="262.681339263916"><tspan dy="0" x="547">0.6</tspan></text><text font-weight="500" font-family="Avenir Next, Helvetica, Arial" font-size="13" x="547" y="312.681339263916"><tspan dy="0" x="547">0.5</tspan></text><text font-weight="500" font-family="Avenir Next, Helvetica, Arial" font-size="13" x="547" y="362.681339263916"><tspan dy="0" x="547">0.4</tspan></text><text font-weight="500" font-family="Avenir Next, Helvetica, Arial" font-size="13" x="547" y="412.681339263916"><tspan dy="0" x="547">0.3</tspan></text><text font-weight="500" font-family="Avenir Next, Helvetica, Arial" font-size="13" x="547" y="462.681339263916"><tspan dy="0" x="547">0.2</tspan></text><text font-weight="500" font-family="Avenir Next, Helvetica, Arial" font-size="13" x="547" y="512.681339263916"><tspan dy="0" x="547">0.1</tspan></text><text font-weight="500" font-family="Avenir Next, Helvetica, Arial" font-size="13" x="547" y="562.681339263916"><tspan dy="0" x="547">0.0</tspan></text><text font-weight="500" font-family="Avenir Next, Helvetica, Arial" font-size="15" x="547" y="315.3987693786621" transform="matrix(6.123233995736766e-17,1,-1,6.123233995736766e-17,936.1090517044067,-315.2754240036011)"><tspan dy="0" x="547">Equilibrium Probability</tspan></text></g><g><text font-weight="500" font-family="Avenir Next, Helvetica, Arial" font-size="15" x="163.58078002929688" y="29.981955528259277"><tspan dy="0" x="163.58078002929688">MFE proxy structure at 40°C</tspan></text><text font-weight="500" font-family="Avenir Next, Helvetica, Arial" x="74.00466918945312" font-size="15" y="564.9819555282593"><tspan dy="0" x="74.00466918945312">Free energy of the secondary structure: -3.82 kcal/mol</tspan></text></g><g><line x1="88.97792759853348" y1="360.95856798338934" x2="88.62047557626815" y2="352.51055047831005" stroke-linecap="round" stroke-opacity="1" stroke-width="2.536672910387006" stroke="black"></line><line x1="88.97792759853348" y1="360.95856798338934" x2="88.62047557626815" y2="352.51055047831005" stroke-linecap="round" stroke-opacity="1" stroke-width="2.536672910387006" stroke="black" marker-end="url(#arrowblack)"></line></g><defs><marker markerWidth="3" markerHeight="3" refX="10" refY="10" viewBox="0 0 20 20" orient="auto" id="arrowblack" markerUnits="strokeWidth"><path d="M0 0 10 0 20 10 10 20 0 20 10 10Z" fill="black"></path></marker></defs><style>@font-face{font-family:Avenir Next, Helvetica, Arial;src:https://fonts.googleapis.com/css?family=Avenir+Next:300,400,500,600,700&amp;amp;lang=en;}</style><g></g><use xlink:href="#top"></use></svg>