<svg xmlns="http://www.w3.org/2000/svg" version="1.1" xmlns:xlink="http://www.w3.org/1999/xlink" xmlns:svgjs="http://svgjs.dev/svgjs" viewBox="0 0 650 600" width="100%"><g id="top"><g><circle r="3.6483364019416853" cx="339.10719610074744" cy="451.6840358479974" fill="#910c00" stroke-width="1.2161121339805618" stroke="#910c00"></circle></g><g><circle r="3.6483364019416853" cx="334.92030555062405" cy="475.5352441852101" fill="#9a0f00" stroke-width="1.2161121339805618" stroke="#9a0f00"></circle></g><g><circle r="3.6483364019416853" cx="323.3550801849319" cy="496.81095225485114" fill="#ff841e" stroke-width="1.2161121339805618" stroke="#ff841e"></circle></g><g><circle r="3.6483364019416853" cx="305.6160067652745" cy="513.2953529365818" fill="#9a0e00" stroke-width="1.2161121339805618" stroke="#9a0e00"></circle></g><g><circle r="3.6483364019416853" cx="283.55056153370344" cy="523.2716407409897" fill="#a51403" stroke-width="1.2161121339805618" stroke="#a51403"></circle></g><g><circle r="3.6483364019416853" cx="259.45680058769483" cy="525.7008124311814" fill="#fcbc28" stroke-width="1.2161121339805618" stroke="#fcbc28"></circle></g><g><circle r="3.6483364019416853" cx="235.84402358887002" cy="520.3298763835627" fill="#53fa7e" stroke-width="1.2161121339805618" stroke="#53fa7e"></circle></g><g><circle r="3.6483364019416853" cx="215.17143702914484" cy="507.7182009772375" fill="#d5e336" stroke-width="1.2161121339805618" stroke="#d5e336"></circle></g><g><circle r="3.6483364019416853" cx="199.59203456423788" cy="489.1792578989417" fill="#ff9a21" stroke-width="1.2161121339805618" stroke="#ff9a21"></circle></g><g><circle r="3.6483364019416853" cx="190.7283685810952" cy="466.64382763983383" fill="#cb2f0d" stroke-width="1.2161121339805618" stroke="#cb2f0d"></circle></g><g><circle r="3.6483364019416853" cx="189.50356578052808" cy="442.4589139595338" fill="#ff871e" stroke-width="1.2161121339805618" stroke="#ff871e"></circle></g><g><circle r="3.6483364019416853" cx="196.04518604245328" cy="419.14330982898196" fill="#fb6819" stroke-width="1.2161121339805618" stroke="#fb6819"></circle></g><g><circle r="3.6483364019416853" cx="209.67193741139374" cy="399.125271994246" fill="#d2e537" stroke-width="1.2161121339805618" stroke="#d2e537"></circle></g><g><circle r="3.6483364019416853" cx="228.96463080036108" cy="384.4896246418691" fill="#d1e537" stroke-width="1.2161121339805618" stroke="#d1e537"></circle></g><g><circle r="3.6483364019416853" cx="251.91398467372525" cy="376.7606306310715" fill="#25d0cd" stroke-width="1.2161121339805618" stroke="#25d0cd"></circle></g><g><circle r="3.6483364019416853" cx="251.91398467372525" cy="360.62708002542377" fill="#27d8c2" stroke-width="1.2161121339805618" stroke="#27d8c2"></circle></g><g><circle r="3.6483364019416853" cx="251.91398467372525" cy="344.493529419776" fill="#2be1b5" stroke-width="1.2161121339805618" stroke="#2be1b5"></circle></g><g><circle r="3.6483364019416853" cx="251.91398467372525" cy="328.3599788141282" fill="#2be1b5" stroke-width="1.2161121339805618" stroke="#2be1b5"></circle></g><g><circle r="3.6483364019416853" cx="251.91398467372525" cy="312.22642820848046" fill="#2de3b1" stroke-width="1.2161121339805618" stroke="#2de3b1"></circle></g><g><circle r="3.6483364019416853" cx="251.91398467372528" cy="296.0928776028327" fill="#2ce2b4" stroke-width="1.2161121339805618" stroke="#2ce2b4"></circle></g><g><circle r="3.6483364019416853" cx="231.76152905661795" cy="283.06906214981257" fill="#f35a17" stroke-width="1.2161121339805618" stroke="#f35a17"></circle></g><g><circle r="3.6483364019416853" cx="221.81763014671589" cy="261.23193525950353" fill="#fc6b1a" stroke-width="1.2161121339805618" stroke="#fc6b1a"></circle></g><g><circle r="3.6483364019416853" cx="225.2237803280968" cy="237.4803168452631" fill="#ff801d" stroke-width="1.2161121339805618" stroke="#ff801d"></circle></g><g><circle r="3.6483364019416853" cx="240.90390320951965" cy="219.31785603244134" fill="#ffa723" stroke-width="1.2161121339805618" stroke="#ffa723"></circle></g><g><circle r="3.6483364019416853" cx="236.3698186506131" cy="203.83452524227602" fill="#b11b06" stroke-width="1.2161121339805618" stroke="#b11b06"></circle></g><g><circle r="3.6483364019416853" cx="231.83573409170654" cy="188.3511944521107" fill="#960d00" stroke-width="1.2161121339805618" stroke="#960d00"></circle></g><g><circle r="3.6483364019416853" cx="227.30164953279998" cy="172.8678636619453" fill="#980e00" stroke-width="1.2161121339805618" stroke="#980e00"></circle></g><g><circle r="3.6483364019416853" cx="222.76756497389346" cy="157.38453287177995" fill="#fc6a19" stroke-width="1.2161121339805618" stroke="#fc6a19"></circle></g><g><circle r="3.6483364019416853" cx="199.77302099080765" cy="150.53235587499685" fill="#930c00" stroke-width="1.2161121339805618" stroke="#930c00"></circle></g><g><circle r="3.6483364019416853" cx="184.12006194930888" cy="132.34757499013406" fill="#9f1101" stroke-width="1.2161121339805618" stroke="#9f1101"></circle></g><g><circle r="3.6483364019416853" cx="180.7660385022529" cy="108.5893783139991" fill="#990e00" stroke-width="1.2161121339805618" stroke="#990e00"></circle></g><g><circle r="3.6483364019416853" cx="190.77318241558748" cy="86.78207556278471" fill="#900c00" stroke-width="1.2161121339805618" stroke="#900c00"></circle></g><g><circle r="3.6483364019416853" cx="210.97219379652736" cy="73.83212105251823" fill="#910b00" stroke-width="1.2161121339805618" stroke="#910b00"></circle></g><g><circle r="3.6483364019416853" cx="234.9659702192071" cy="73.84081379482583" fill="#920c00" stroke-width="1.2161121339805618" stroke="#920c00"></circle></g><g><circle r="3.6483364019416853" cx="255.15559298090065" cy="86.8054007657176" fill="#a81604" stroke-width="1.2161121339805618" stroke="#a81604"></circle></g><g><circle r="3.6483364019416853" cx="265.1469330665606" cy="108.61994879857852" fill="#900c00" stroke-width="1.2161121339805618" stroke="#900c00"></circle></g><g><circle r="3.6483364019416853" cx="261.77569571471497" cy="132.37570896959457" fill="#970d00" stroke-width="1.2161121339805618" stroke="#970d00"></circle></g><g><circle r="3.6483364019416853" cx="246.10956439931863" cy="150.54914321285398" fill="#fc6a19" stroke-width="1.2161121339805618" stroke="#fc6a19"></circle></g><g><circle r="3.6483364019416853" cx="250.64364895822519" cy="166.03247400301933" fill="#980e00" stroke-width="1.2161121339805618" stroke="#980e00"></circle></g><g><circle r="3.6483364019416853" cx="255.17773351713174" cy="181.51580479318469" fill="#960d00" stroke-width="1.2161121339805618" stroke="#960d00"></circle></g><g><circle r="3.6483364019416853" cx="259.7118180760383" cy="196.99913558335004" fill="#b11b06" stroke-width="1.2161121339805618" stroke="#b11b06"></circle></g><g><circle r="3.6483364019416853" cx="264.24590263494485" cy="212.48246637351536" fill="#ffa723" stroke-width="1.2161121339805618" stroke="#ffa723"></circle></g><g><circle r="3.6483364019416853" cx="287.24630881754206" cy="219.31785603244128" fill="#a31302" stroke-width="1.2161121339805618" stroke="#a31302"></circle></g><g><circle r="3.6483364019416853" cx="302.92643169896496" cy="237.48031684526305" fill="#a81604" stroke-width="1.2161121339805618" stroke="#a81604"></circle></g><g><circle r="3.6483364019416853" cx="306.3325818803459" cy="261.23193525950353" fill="#a71503" stroke-width="1.2161121339805618" stroke="#a71503"></circle></g><g><circle r="3.6483364019416853" cx="296.3886829704438" cy="283.06906214981245" fill="#940c00" stroke-width="1.2161121339805618" stroke="#940c00"></circle></g><g><circle r="3.6483364019416853" cx="276.2362273533365" cy="296.0928776028327" fill="#2ce2b4" stroke-width="1.2161121339805618" stroke="#2ce2b4"></circle></g><g><circle r="3.6483364019416853" cx="276.2362273533365" cy="312.22642820848046" fill="#2de3b1" stroke-width="1.2161121339805618" stroke="#2de3b1"></circle></g><g><circle r="3.6483364019416853" cx="276.2362273533365" cy="328.3599788141282" fill="#2be1b5" stroke-width="1.2161121339805618" stroke="#2be1b5"></circle></g><g><circle r="3.6483364019416853" cx="276.2362273533365" cy="344.493529419776" fill="#2be1b5" stroke-width="1.2161121339805618" stroke="#2be1b5"></circle></g><g><circle r="3.6483364019416853" cx="276.2362273533365" cy="360.62708002542377" fill="#27d8c2" stroke-width="1.2161121339805618" stroke="#27d8c2"></circle></g><g><circle r="3.6483364019416853" cx="276.23622735333646" cy="376.7606306310715" fill="#25d0cd" stroke-width="1.2161121339805618" stroke="#25d0cd"></circle></g><g><circle r="3.6483364019416853" cx="299.1855812267006" cy="384.4896246418691" fill="#930c00" stroke-width="1.2161121339805618" stroke="#930c00"></circle></g><g><circle r="3.6483364019416853" cx="318.47827461566794" cy="399.12527199424596" fill="#b01b06" stroke-width="1.2161121339805618" stroke="#b01b06"></circle></g><g><circle r="3.6483364019416853" cx="332.1050259846084" cy="419.1433098289819" fill="#920c00" stroke-width="1.2161121339805618" stroke="#920c00"></circle></g></g><g><g></g><g></g><g></g><g></g><g></g><g></g><g></g><g></g><g></g><g></g><g></g><g></g><g></g><g></g><g></g><g></g><g></g><g></g><g></g><g></g><g></g><g></g><g></g><g></g><g></g><g></g><g></g><g></g><g><line x1="251.91398467372525" y1="376.7606306310715" x2="264.0751060135309" y2="376.7606306310715" stroke-linecap="round" stroke-width="1.2161121339805618" stroke="black" fill="black"></line><g></g></g><g></g><g><line x1="251.91398467372525" y1="360.62708002542377" x2="264.0751060135309" y2="360.62708002542377" stroke-linecap="round" stroke-width="1.2161121339805618" stroke="black" fill="black"></line><g></g></g><g></g><g><line x1="251.91398467372525" y1="344.493529419776" x2="264.0751060135309" y2="344.493529419776" stroke-linecap="round" stroke-width="1.2161121339805618" stroke="black" fill="black"></line><g></g></g><g></g><g><line x1="251.91398467372525" y1="328.3599788141282" x2="264.0751060135309" y2="328.3599788141282" stroke-linecap="round" stroke-width="1.2161121339805618" stroke="black" fill="black"></line><g></g></g><g></g><g><line x1="251.91398467372525" y1="312.22642820848046" x2="264.0751060135309" y2="312.22642820848046" stroke-linecap="round" stroke-width="1.2161121339805618" stroke="black" fill="black"></line><g></g></g><g></g><g><line x1="251.91398467372528" y1="296.0928776028327" x2="264.0751060135309" y2="296.0928776028327" stroke-linecap="round" stroke-width="1.2161121339805618" stroke="black" fill="black"></line><g></g></g><g></g><g></g><g></g><g></g><g></g><g></g><g></g><g><line x1="240.90390320951965" y1="219.31785603244134" x2="252.57490292223224" y2="215.90016120297838" stroke-linecap="round" stroke-width="1.2161121339805618" stroke="black" fill="black"></line><g></g></g><g></g><g><line x1="236.3698186506131" y1="203.83452524227602" x2="248.04081836332568" y2="200.416830412813" stroke-linecap="round" stroke-width="1.2161121339805618" stroke="black" fill="black"></line><g></g></g><g></g><g><line x1="231.83573409170654" y1="188.3511944521107" x2="243.50673380441913" y2="184.9334996226477" stroke-linecap="round" stroke-width="1.2161121339805618" stroke="black" fill="black"></line><g></g></g><g></g><g><line x1="227.30164953279998" y1="172.8678636619453" x2="238.97264924551257" y2="169.4501688324823" stroke-linecap="round" stroke-width="1.2161121339805618" stroke="black" fill="black"></line><g></g></g><g></g><g><line x1="222.76756497389346" y1="157.38453287177995" x2="234.43856468660601" y2="153.96683804231694" stroke-linecap="round" stroke-width="1.2161121339805618" stroke="black" fill="black"></line><g></g></g><g></g><g></g><g></g><g></g><g></g><g></g><g></g><g></g><g></g><g></g><g></g><g></g><g></g><g></g><g></g><g></g><g></g><g></g><g></g><g><line x1="246.10956439931863" y1="150.54914321285398" x2="234.43856468660601" y2="153.96683804231694" stroke-linecap="round" stroke-width="1.2161121339805618" stroke="black" fill="black"></line><g></g></g><g></g><g><line x1="250.64364895822519" y1="166.03247400301933" x2="238.97264924551257" y2="169.4501688324823" stroke-linecap="round" stroke-width="1.2161121339805618" stroke="black" fill="black"></line><g></g></g><g></g><g><line x1="255.17773351713174" y1="181.51580479318469" x2="243.50673380441913" y2="184.9334996226477" stroke-linecap="round" stroke-width="1.2161121339805618" stroke="black" fill="black"></line><g></g></g><g></g><g><line x1="259.7118180760383" y1="196.99913558335004" x2="248.04081836332568" y2="200.416830412813" stroke-linecap="round" stroke-width="1.2161121339805618" stroke="black" fill="black"></line><g></g></g><g></g><g><line x1="264.24590263494485" y1="212.48246637351536" x2="252.57490292223224" y2="215.90016120297838" stroke-linecap="round" stroke-width="1.2161121339805618" stroke="black" fill="black"></line><g></g></g><g></g><g></g><g></g><g></g><g></g><g></g><g></g><g></g><g></g><g><line x1="276.2362273533365" y1="296.0928776028327" x2="264.0751060135309" y2="296.0928776028327" stroke-linecap="round" stroke-width="1.2161121339805618" stroke="black" fill="black"></line><g></g></g><g></g><g><line x1="276.2362273533365" y1="312.22642820848046" x2="264.0751060135309" y2="312.22642820848046" stroke-linecap="round" stroke-width="1.2161121339805618" stroke="black" fill="black"></line><g></g></g><g></g><g><line x1="276.2362273533365" y1="328.3599788141282" x2="264.0751060135309" y2="328.3599788141282" stroke-linecap="round" stroke-width="1.2161121339805618" stroke="black" fill="black"></line><g></g></g><g></g><g><line x1="276.2362273533365" y1="344.493529419776" x2="264.0751060135309" y2="344.493529419776" stroke-linecap="round" stroke-width="1.2161121339805618" stroke="black" fill="black"></line><g></g></g><g></g><g><line x1="276.2362273533365" y1="360.62708002542377" x2="264.0751060135309" y2="360.62708002542377" stroke-linecap="round" stroke-width="1.2161121339805618" stroke="black" fill="black"></line><g></g></g><g></g><g><line x1="276.23622735333646" y1="376.7606306310715" x2="264.0751060135309" y2="376.7606306310715" stroke-linecap="round" stroke-width="1.2161121339805618" stroke="black" fill="black"></line><g></g></g><g></g><g></g><g></g><g></g><g></g><g></g><g></g></g><g><line x1="251.91398467372525" y1="376.7606306310715" x2="251.91398467372525" y2="368.6938553282476" stroke-linecap="round" stroke-opacity="1" stroke-width="2.4322242679611237" stroke="black" fill="black"></line><line x1="251.91398467372525" y1="360.62708002542377" x2="251.91398467372525" y2="368.6938553282476" stroke-linecap="round" stroke-opacity="1" stroke-width="2.4322242679611237" stroke="black" fill="black"></line><line x1="251.91398467372525" y1="360.62708002542377" x2="251.91398467372525" y2="352.5603047225999" stroke-linecap="round" stroke-opacity="1" stroke-width="2.4322242679611237" stroke="black" fill="black"></line><line x1="251.91398467372525" y1="344.493529419776" x2="251.91398467372525" y2="352.5603047225999" stroke-linecap="round" stroke-opacity="1" stroke-width="2.4322242679611237" stroke="black" fill="black"></line><line x1="251.91398467372525" y1="344.493529419776" x2="251.91398467372525" y2="336.4267541169521" stroke-linecap="round" stroke-opacity="1" stroke-width="2.4322242679611237" stroke="black" fill="black"></line><line x1="251.91398467372525" y1="328.3599788141282" x2="251.91398467372525" y2="336.4267541169521" stroke-linecap="round" stroke-opacity="1" stroke-width="2.4322242679611237" stroke="black" fill="black"></line><line x1="251.91398467372525" y1="328.3599788141282" x2="251.91398467372525" y2="320.29320351130434" stroke-linecap="round" stroke-opacity="1" stroke-width="2.4322242679611237" stroke="black" fill="black"></line><line x1="251.91398467372525" y1="312.22642820848046" x2="251.91398467372525" y2="320.29320351130434" stroke-linecap="round" stroke-opacity="1" stroke-width="2.4322242679611237" stroke="black" fill="black"></line><line x1="251.91398467372525" y1="312.22642820848046" x2="251.91398467372525" y2="304.15965290565657" stroke-linecap="round" stroke-opacity="1" stroke-width="2.4322242679611237" stroke="black" fill="black"></line><line x1="251.91398467372528" y1="296.0928776028327" x2="251.91398467372525" y2="304.15965290565657" stroke-linecap="round" stroke-opacity="1" stroke-width="2.4322242679611237" stroke="black" fill="black"></line><line x1="240.90390320951965" y1="219.31785603244134" x2="238.63686093006638" y2="211.57619063735865" stroke-linecap="round" stroke-opacity="1" stroke-width="2.4322242679611237" stroke="black" fill="black"></line><line x1="236.3698186506131" y1="203.83452524227602" x2="238.63686093006638" y2="211.57619063735865" stroke-linecap="round" stroke-opacity="1" stroke-width="2.4322242679611237" stroke="black" fill="black"></line><line x1="236.3698186506131" y1="203.83452524227602" x2="234.10277637115982" y2="196.09285984719332" stroke-linecap="round" stroke-opacity="1" stroke-width="2.4322242679611237" stroke="black" fill="black"></line><line x1="231.83573409170654" y1="188.3511944521107" x2="234.10277637115982" y2="196.09285984719332" stroke-linecap="round" stroke-opacity="1" stroke-width="2.4322242679611237" stroke="black" fill="black"></line><line x1="231.83573409170654" y1="188.3511944521107" x2="229.56869181225326" y2="180.609529057028" stroke-linecap="round" stroke-opacity="1" stroke-width="2.4322242679611237" stroke="black" fill="black"></line><line x1="227.30164953279998" y1="172.8678636619453" x2="229.56869181225326" y2="180.609529057028" stroke-linecap="round" stroke-opacity="1" stroke-width="2.4322242679611237" stroke="black" fill="black"></line><line x1="227.30164953279998" y1="172.8678636619453" x2="225.0346072533467" y2="165.12619826686264" stroke-linecap="round" stroke-opacity="1" stroke-width="2.4322242679611237" stroke="black" fill="black"></line><line x1="222.76756497389346" y1="157.38453287177995" x2="225.0346072533467" y2="165.12619826686264" stroke-linecap="round" stroke-opacity="1" stroke-width="2.4322242679611237" stroke="black" fill="black"></line><line x1="246.10956439931863" y1="150.54914321285398" x2="248.3766066787719" y2="158.29080860793667" stroke-linecap="round" stroke-opacity="1" stroke-width="2.4322242679611237" stroke="black" fill="black"></line><line x1="250.64364895822519" y1="166.03247400301933" x2="248.3766066787719" y2="158.29080860793667" stroke-linecap="round" stroke-opacity="1" stroke-width="2.4322242679611237" stroke="black" fill="black"></line><line x1="250.64364895822519" y1="166.03247400301933" x2="252.91069123767846" y2="173.77413939810202" stroke-linecap="round" stroke-opacity="1" stroke-width="2.4322242679611237" stroke="black" fill="black"></line><line x1="255.17773351713174" y1="181.51580479318469" x2="252.91069123767846" y2="173.77413939810202" stroke-linecap="round" stroke-opacity="1" stroke-width="2.4322242679611237" stroke="black" fill="black"></line><line x1="255.17773351713174" y1="181.51580479318469" x2="257.444775796585" y2="189.25747018826738" stroke-linecap="round" stroke-opacity="1" stroke-width="2.4322242679611237" stroke="black" fill="black"></line><line x1="259.7118180760383" y1="196.99913558335004" x2="257.444775796585" y2="189.25747018826738" stroke-linecap="round" stroke-opacity="1" stroke-width="2.4322242679611237" stroke="black" fill="black"></line><line x1="259.7118180760383" y1="196.99913558335004" x2="261.9788603554916" y2="204.7408009784327" stroke-linecap="round" stroke-opacity="1" stroke-width="2.4322242679611237" stroke="black" fill="black"></line><line x1="264.24590263494485" y1="212.48246637351536" x2="261.9788603554916" y2="204.7408009784327" stroke-linecap="round" stroke-opacity="1" stroke-width="2.4322242679611237" stroke="black" fill="black"></line><line x1="276.2362273533365" y1="296.0928776028327" x2="276.2362273533365" y2="304.15965290565657" stroke-linecap="round" stroke-opacity="1" stroke-width="2.4322242679611237" stroke="black" fill="black"></line><line x1="276.2362273533365" y1="312.22642820848046" x2="276.2362273533365" y2="304.15965290565657" stroke-linecap="round" stroke-opacity="1" stroke-width="2.4322242679611237" stroke="black" fill="black"></line><line x1="276.2362273533365" y1="312.22642820848046" x2="276.2362273533365" y2="320.29320351130434" stroke-linecap="round" stroke-opacity="1" stroke-width="2.4322242679611237" stroke="black" fill="black"></line><line x1="276.2362273533365" y1="328.3599788141282" x2="276.2362273533365" y2="320.29320351130434" stroke-linecap="round" stroke-opacity="1" stroke-width="2.4322242679611237" stroke="black" fill="black"></line><line x1="276.2362273533365" y1="328.3599788141282" x2="276.2362273533365" y2="336.4267541169521" stroke-linecap="round" stroke-opacity="1" stroke-width="2.4322242679611237" stroke="black" fill="black"></line><line x1="276.2362273533365" y1="344.493529419776" x2="276.2362273533365" y2="336.4267541169521" stroke-linecap="round" stroke-opacity="1" stroke-width="2.4322242679611237" stroke="black" fill="black"></line><line x1="276.2362273533365" y1="344.493529419776" x2="276.2362273533365" y2="352.5603047225999" stroke-linecap="round" stroke-opacity="1" stroke-width="2.4322242679611237" stroke="black" fill="black"></line><line x1="276.2362273533365" y1="360.62708002542377" x2="276.2362273533365" y2="352.5603047225999" stroke-linecap="round" stroke-opacity="1" stroke-width="2.4322242679611237" stroke="black" fill="black"></line><line x1="276.2362273533365" y1="360.62708002542377" x2="276.23622735333646" y2="368.6938553282476" stroke-linecap="round" stroke-opacity="1" stroke-width="2.4322242679611237" stroke="black" fill="black"></line><line x1="276.23622735333646" y1="376.7606306310715" x2="276.23622735333646" y2="368.6938553282476" stroke-linecap="round" stroke-opacity="1" stroke-width="2.4322242679611237" stroke="black" fill="black"></line></g><g><path d="M 337.9822500648333 463.77965238054173 A 75.03722924222326 75.03722924222326 0 0 0 339.10719610074744 451.6840358479974" fill="none" stroke-linejoin="round" stroke-linecap="round" stroke-width="2.4322242679611237" stroke="black"></path><path d="M 334.92030555062405 475.5352441852101 A 75.03722924222326 75.03722924222326 0 0 0 337.9822500648333 463.77965238054173" fill="none" stroke-linejoin="round" stroke-linecap="round" stroke-width="2.4322242679611237" stroke="black"></path><path d="M 330.0016116590798 486.64271434215254 A 75.03722924222326 75.03722924222326 0 0 0 334.92030555062405 475.5352441852101" fill="none" stroke-linejoin="round" stroke-linecap="round" stroke-width="2.4322242679611237" stroke="black"></path><path d="M 323.3550801849319 496.81095225485114 A 75.03722924222326 75.03722924222326 0 0 0 330.0016116590798 486.64271434215254" fill="none" stroke-linejoin="round" stroke-linecap="round" stroke-width="2.4322242679611237" stroke="black"></path><path d="M 315.15490702651505 505.7734632343736 A 75.03722924222326 75.03722924222326 0 0 0 323.3550801849319 496.81095225485114" fill="none" stroke-linejoin="round" stroke-linecap="round" stroke-width="2.4322242679611237" stroke="black"></path><path d="M 305.6160067652745 513.2953529365818 A 75.03722924222326 75.03722924222326 0 0 0 315.15490702651505 505.7734632343736" fill="none" stroke-linejoin="round" stroke-linecap="round" stroke-width="2.4322242679611237" stroke="black"></path><path d="M 294.9883800679633 519.1794836003825 A 75.03722924222326 75.03722924222326 0 0 0 305.6160067652745 513.2953529365818" fill="none" stroke-linejoin="round" stroke-linecap="round" stroke-width="2.4322242679611237" stroke="black"></path><path d="M 283.55056153370344 523.2716407409897 A 75.03722924222326 75.03722924222326 0 0 0 294.9883800679633 519.1794836003825" fill="none" stroke-linejoin="round" stroke-linecap="round" stroke-width="2.4322242679611237" stroke="black"></path><path d="M 271.6023197082866 525.4645748867041 A 75.03722924222326 75.03722924222326 0 0 0 283.55056153370344 523.2716407409897" fill="none" stroke-linejoin="round" stroke-linecap="round" stroke-width="2.4322242679611237" stroke="black"></path><path d="M 259.45680058769483 525.7008124311814 A 75.03722924222326 75.03722924222326 0 0 0 271.6023197082866 525.4645748867041" fill="none" stroke-linejoin="round" stroke-linecap="round" stroke-width="2.4322242679611237" stroke="black"></path><path d="M 247.43232051815795 523.974161932849 A 75.03722924222326 75.03722924222326 0 0 0 259.45680058769483 525.7008124311814" fill="none" stroke-linejoin="round" stroke-linecap="round" stroke-width="2.4322242679611237" stroke="black"></path><path d="M 235.84402358887002 520.3298763835627 A 75.03722924222326 75.03722924222326 0 0 0 247.43232051815795 523.974161932849" fill="none" stroke-linejoin="round" stroke-linecap="round" stroke-width="2.4322242679611237" stroke="black"></path><path d="M 224.99562216493723 514.8634671936745 A 75.03722924222326 75.03722924222326 0 0 0 235.84402358887002 520.3298763835627" fill="none" stroke-linejoin="round" stroke-linecap="round" stroke-width="2.4322242679611237" stroke="black"></path><path d="M 215.17143702914484 507.7182009772375 A 75.03722924222326 75.03722924222326 0 0 0 224.99562216493723 514.8634671936745" fill="none" stroke-linejoin="round" stroke-linecap="round" stroke-width="2.4322242679611237" stroke="black"></path><path d="M 206.62894574882128 499.0813447429543 A 75.03722924222326 75.03722924222326 0 0 0 215.17143702914484 507.7182009772375" fill="none" stroke-linejoin="round" stroke-linecap="round" stroke-width="2.4322242679611237" stroke="black"></path><path d="M 199.59203456423788 489.1792578989417 A 75.03722924222326 75.03722924222326 0 0 0 206.62894574882128 499.0813447429543" fill="none" stroke-linejoin="round" stroke-linecap="round" stroke-width="2.4322242679611237" stroke="black"></path><path d="M 194.24513065670976 478.27145970270885 A 75.03722924222326 75.03722924222326 0 0 0 199.59203456423788 489.1792578989417" fill="none" stroke-linejoin="round" stroke-linecap="round" stroke-width="2.4322242679611237" stroke="black"></path><path d="M 190.7283685810952 466.64382763983383 A 75.03722924222326 75.03722924222326 0 0 0 194.24513065670976 478.27145970270885" fill="none" stroke-linejoin="round" stroke-linecap="round" stroke-width="2.4322242679611237" stroke="black"></path><path d="M 189.13391754344903 454.60110499191774 A 75.03722924222326 75.03722924222326 0 0 0 190.7283685810952 466.64382763983383" fill="none" stroke-linejoin="round" stroke-linecap="round" stroke-width="2.4322242679611237" stroke="black"></path><path d="M 189.50356578052808 442.4589139595338 A 75.03722924222326 75.03722924222326 0 0 0 189.13391754344903 454.60110499191774" fill="none" stroke-linejoin="round" stroke-linecap="round" stroke-width="2.4322242679611237" stroke="black"></path><path d="M 191.82762535103905 430.53548366457267 A 75.03722924222326 75.03722924222326 0 0 0 189.50356578052808 442.4589139595338" fill="none" stroke-linejoin="round" stroke-linecap="round" stroke-width="2.4322242679611237" stroke="black"></path><path d="M 196.04518604245328 419.14330982898196 A 75.03722924222326 75.03722924222326 0 0 0 191.82762535103905 430.53548366457267" fill="none" stroke-linejoin="round" stroke-linecap="round" stroke-width="2.4322242679611237" stroke="black"></path><path d="M 202.04571173886146 408.5809647175577 A 75.03722924222326 75.03722924222326 0 0 0 196.04518604245328 419.14330982898196" fill="none" stroke-linejoin="round" stroke-linecap="round" stroke-width="2.4322242679611237" stroke="black"></path><path d="M 209.67193741139374 399.12527199424596 A 75.03722924222326 75.03722924222326 0 0 0 202.04571173886146 408.5809647175577" fill="none" stroke-linejoin="round" stroke-linecap="round" stroke-width="2.4322242679611237" stroke="black"></path><path d="M 218.72399080531144 391.0240515775591 A 75.03722924222326 75.03722924222326 0 0 0 209.67193741139374 399.12527199424596" fill="none" stroke-linejoin="round" stroke-linecap="round" stroke-width="2.4322242679611237" stroke="black"></path><path d="M 228.96463080036108 384.4896246418691 A 75.03722924222326 75.03722924222326 0 0 0 218.72399080531144 391.0240515775591" fill="none" stroke-linejoin="round" stroke-linecap="round" stroke-width="2.4322242679611237" stroke="black"></path><path d="M 240.12546515460448 379.6932489890223 A 75.03722924222326 75.03722924222326 0 0 0 228.96463080036108 384.4896246418691" fill="none" stroke-linejoin="round" stroke-linecap="round" stroke-width="2.4322242679611237" stroke="black"></path><path d="M 251.9139846737252 376.7606306310715 A 75.03722924222326 75.03722924222326 0 0 0 240.12546515460448 379.6932489890223" fill="none" stroke-linejoin="round" stroke-linecap="round" stroke-width="2.4322242679611237" stroke="black"></path><path d="M 240.90390320951968 291.0259722580198 A 42.68978944126905 42.68978944126905 0 0 0 251.91398467372528 296.0928776028327" fill="none" stroke-linejoin="round" stroke-linecap="round" stroke-width="2.4322242679611237" stroke="black"></path><path d="M 231.76152905661795 283.06906214981257 A 42.68978944126905 42.68978944126905 0 0 0 240.90390320951968 291.0259722580198" fill="none" stroke-linejoin="round" stroke-linecap="round" stroke-width="2.4322242679611237" stroke="black"></path><path d="M 225.2237803280968 272.86351144519807 A 42.68978944126905 42.68978944126905 0 0 0 231.76152905661795 283.06906214981257" fill="none" stroke-linejoin="round" stroke-linecap="round" stroke-width="2.4322242679611237" stroke="black"></path><path d="M 221.81763014671589 261.23193525950353 A 42.68978944126905 42.68978944126905 0 0 0 225.2237803280968 272.86351144519807" fill="none" stroke-linejoin="round" stroke-linecap="round" stroke-width="2.4322242679611237" stroke="black"></path><path d="M 221.81763014671589 249.11189303095762 A 42.68978944126905 42.68978944126905 0 0 0 221.81763014671589 261.23193525950353" fill="none" stroke-linejoin="round" stroke-linecap="round" stroke-width="2.4322242679611237" stroke="black"></path><path d="M 225.2237803280968 237.48031684526313 A 42.68978944126905 42.68978944126905 0 0 0 221.81763014671589 249.11189303095762" fill="none" stroke-linejoin="round" stroke-linecap="round" stroke-width="2.4322242679611237" stroke="black"></path><path d="M 231.76152905661792 227.27476614064864 A 42.68978944126905 42.68978944126905 0 0 0 225.2237803280968 237.48031684526313" fill="none" stroke-linejoin="round" stroke-linecap="round" stroke-width="2.4322242679611237" stroke="black"></path><path d="M 240.90390320951963 219.31785603244134 A 42.68978944126905 42.68978944126905 0 0 0 231.76152905661792 227.27476614064864" fill="none" stroke-linejoin="round" stroke-linecap="round" stroke-width="2.4322242679611237" stroke="black"></path><path d="M 210.7783342424018 155.60936011723527 A 42.635566807282636 42.635566807282636 0 0 0 222.76756497389346 157.38453287177995" fill="none" stroke-linejoin="round" stroke-linecap="round" stroke-width="2.4322242679611237" stroke="black"></path><path d="M 199.77302099080765 150.53235587499682 A 42.635566807282636 42.635566807282636 0 0 0 210.7783342424018 155.60936011723527" fill="none" stroke-linejoin="round" stroke-linecap="round" stroke-width="2.4322242679611237" stroke="black"></path><path d="M 190.6409473655042 142.5637849150657 A 42.635566807282636 42.635566807282636 0 0 0 199.77302099080765 150.53235587499682" fill="none" stroke-linejoin="round" stroke-linecap="round" stroke-width="2.4322242679611237" stroke="black"></path><path d="M 184.12006194930885 132.34757499013404 A 42.635566807282636 42.635566807282636 0 0 0 190.6409473655042 142.5637849150657" fill="none" stroke-linejoin="round" stroke-linecap="round" stroke-width="2.4322242679611237" stroke="black"></path><path d="M 180.73730729098327 120.70928204129493 A 42.635566807282636 42.635566807282636 0 0 0 184.12006194930885 132.34757499013404" fill="none" stroke-linejoin="round" stroke-linecap="round" stroke-width="2.4322242679611237" stroke="black"></path><path d="M 180.7660385022529 108.58937831399908 A 42.635566807282636 42.635566807282636 0 0 0 180.73730729098327 120.70928204129493" fill="none" stroke-linejoin="round" stroke-linecap="round" stroke-width="2.4322242679611237" stroke="black"></path><path d="M 184.20393385888423 96.96725426723921 A 42.635566807282636 42.635566807282636 0 0 0 180.7660385022529 108.58937831399908" fill="none" stroke-linejoin="round" stroke-linecap="round" stroke-width="2.4322242679611237" stroke="black"></path><path d="M 190.77318241558748 86.78207556278471 A 42.635566807282636 42.635566807282636 0 0 0 184.20393385888423 96.96725426723921" fill="none" stroke-linejoin="round" stroke-linecap="round" stroke-width="2.4322242679611237" stroke="black"></path><path d="M 199.94293347387918 78.85689055734926 A 42.635566807282636 42.635566807282636 0 0 0 190.77318241558748 86.78207556278471" fill="none" stroke-linejoin="round" stroke-linecap="round" stroke-width="2.4322242679611237" stroke="black"></path><path d="M 210.97219379652736 73.83212105251823 A 42.635566807282636 42.635566807282636 0 0 0 199.94293347387918 78.85689055734926" fill="none" stroke-linejoin="round" stroke-linecap="round" stroke-width="2.4322242679611237" stroke="black"></path><path d="M 222.96970611179134 72.11381081088243 A 42.635566807282636 42.635566807282636 0 0 0 210.97219379652736 73.83212105251823" fill="none" stroke-linejoin="round" stroke-linecap="round" stroke-width="2.4322242679611237" stroke="black"></path><path d="M 234.9659702192071 73.84081379482583 A 42.635566807282636 42.635566807282636 0 0 0 222.96970611179134 72.11381081088243" fill="none" stroke-linejoin="round" stroke-linecap="round" stroke-width="2.4322242679611237" stroke="black"></path><path d="M 245.9915867840341 78.87357359505808 A 42.635566807282636 42.635566807282636 0 0 0 234.9659702192071 73.84081379482583" fill="none" stroke-linejoin="round" stroke-linecap="round" stroke-width="2.4322242679611237" stroke="black"></path><path d="M 255.15559298090065 86.8054007657176 A 42.635566807282636 42.635566807282636 0 0 0 245.9915867840341 78.87357359505808" fill="none" stroke-linejoin="round" stroke-linecap="round" stroke-width="2.4322242679611237" stroke="black"></path><path d="M 261.7174598058388 96.99533676223876 A 42.635566807282636 42.635566807282636 0 0 0 255.15559298090065 86.8054007657176" fill="none" stroke-linejoin="round" stroke-linecap="round" stroke-width="2.4322242679611237" stroke="black"></path><path d="M 265.1469330665606 108.61994879857852 A 42.635566807282636 42.635566807282636 0 0 0 261.7174598058388 96.99533676223876" fill="none" stroke-linejoin="round" stroke-linecap="round" stroke-width="2.4322242679611237" stroke="black"></path><path d="M 265.16688239417067 120.73987016242197 A 42.635566807282636 42.635566807282636 0 0 0 265.1469330665606 108.61994879857852" fill="none" stroke-linejoin="round" stroke-linecap="round" stroke-width="2.4322242679611237" stroke="black"></path><path d="M 261.77569571471497 132.37570896959454 A 42.635566807282636 42.635566807282636 0 0 0 265.16688239417067 120.73987016242197" fill="none" stroke-linejoin="round" stroke-linecap="round" stroke-width="2.4322242679611237" stroke="black"></path><path d="M 255.2474095183548 142.5871912899942 A 42.635566807282636 42.635566807282636 0 0 0 261.77569571471497 132.37570896959454" fill="none" stroke-linejoin="round" stroke-linecap="round" stroke-width="2.4322242679611237" stroke="black"></path><path d="M 246.1095643993187 150.54914321285392 A 42.635566807282636 42.635566807282636 0 0 0 255.2474095183548 142.5871912899942" fill="none" stroke-linejoin="round" stroke-linecap="round" stroke-width="2.4322242679611237" stroke="black"></path><path d="M 276.23622735333646 214.2509506876284 A 42.68978944126905 42.68978944126905 0 0 0 264.24590263494485 212.48246637351536" fill="none" stroke-linejoin="round" stroke-linecap="round" stroke-width="2.4322242679611237" stroke="black"></path><path d="M 287.24630881754206 219.31785603244128 A 42.68978944126905 42.68978944126905 0 0 0 276.23622735333646 214.2509506876284" fill="none" stroke-linejoin="round" stroke-linecap="round" stroke-width="2.4322242679611237" stroke="black"></path><path d="M 296.3886829704438 227.27476614064858 A 42.68978944126905 42.68978944126905 0 0 0 287.24630881754206 219.31785603244128" fill="none" stroke-linejoin="round" stroke-linecap="round" stroke-width="2.4322242679611237" stroke="black"></path><path d="M 302.92643169896496 237.48031684526305 A 42.68978944126905 42.68978944126905 0 0 0 296.3886829704438 227.27476614064858" fill="none" stroke-linejoin="round" stroke-linecap="round" stroke-width="2.4322242679611237" stroke="black"></path><path d="M 306.33258188034586 249.11189303095756 A 42.68978944126905 42.68978944126905 0 0 0 302.92643169896496 237.48031684526305" fill="none" stroke-linejoin="round" stroke-linecap="round" stroke-width="2.4322242679611237" stroke="black"></path><path d="M 306.3325818803459 261.23193525950353 A 42.68978944126905 42.68978944126905 0 0 0 306.33258188034586 249.11189303095756" fill="none" stroke-linejoin="round" stroke-linecap="round" stroke-width="2.4322242679611237" stroke="black"></path><path d="M 302.92643169896496 272.863511445198 A 42.68978944126905 42.68978944126905 0 0 0 306.3325818803459 261.23193525950353" fill="none" stroke-linejoin="round" stroke-linecap="round" stroke-width="2.4322242679611237" stroke="black"></path><path d="M 296.3886829704438 283.0690621498125 A 42.68978944126905 42.68978944126905 0 0 0 302.92643169896496 272.863511445198" fill="none" stroke-linejoin="round" stroke-linecap="round" stroke-width="2.4322242679611237" stroke="black"></path><path d="M 287.2463088175421 291.0259722580198 A 42.68978944126905 42.68978944126905 0 0 0 296.3886829704438 283.0690621498125" fill="none" stroke-linejoin="round" stroke-linecap="round" stroke-width="2.4322242679611237" stroke="black"></path><path d="M 276.2362273533365 296.0928776028327 A 42.68978944126905 42.68978944126905 0 0 0 287.2463088175421 291.0259722580198" fill="none" stroke-linejoin="round" stroke-linecap="round" stroke-width="2.4322242679611237" stroke="black"></path><path d="M 288.02474687245723 379.6932489890223 A 75.03722924222326 75.03722924222326 0 0 0 276.23622735333646 376.7606306310715" fill="none" stroke-linejoin="round" stroke-linecap="round" stroke-width="2.4322242679611237" stroke="black"></path><path d="M 299.1855812267006 384.4896246418691 A 75.03722924222326 75.03722924222326 0 0 0 288.02474687245723 379.6932489890223" fill="none" stroke-linejoin="round" stroke-linecap="round" stroke-width="2.4322242679611237" stroke="black"></path><path d="M 309.42622122175027 391.0240515775591 A 75.03722924222326 75.03722924222326 0 0 0 299.1855812267006 384.4896246418691" fill="none" stroke-linejoin="round" stroke-linecap="round" stroke-width="2.4322242679611237" stroke="black"></path><path d="M 318.47827461566794 399.12527199424596 A 75.03722924222326 75.03722924222326 0 0 0 309.42622122175027 391.0240515775591" fill="none" stroke-linejoin="round" stroke-linecap="round" stroke-width="2.4322242679611237" stroke="black"></path><path d="M 326.1045002882002 408.58096471755766 A 75.03722924222326 75.03722924222326 0 0 0 318.47827461566794 399.12527199424596" fill="none" stroke-linejoin="round" stroke-linecap="round" stroke-width="2.4322242679611237" stroke="black"></path><path d="M 332.10502598460835 419.14330982898184 A 75.03722924222326 75.03722924222326 0 0 0 326.1045002882002 408.58096471755766" fill="none" stroke-linejoin="round" stroke-linecap="round" stroke-width="2.4322242679611237" stroke="black"></path></g><g id="letters"></g><g id="strands"></g><g></g><g></g><g></g><g></g><g></g><g></g><g></g><g></g><g></g><g></g><g></g><g></g><g></g><g></g><g></g><g></g><g></g><g></g><g></g><g></g><g></g><g></g><g></g><g></g><g></g><g></g><g></g><g></g><g></g><g></g><g></g><g></g><g></g><g></g><g></g><g></g><g></g><g></g><g></g><g></g><g></g><g></g><g></g><g></g><g></g><g></g><g></g><g></g><g></g><g></g><g></g><g></g><g></g><g></g><g></g><g><rect width="15" height="15" fill="#900c00" x="530" y="50"></rect><rect width="15" height="15" fill="#900c00" x="530" y="55"></rect><rect width="15" height="15" fill="#920c00" x="530" y="60"></rect><rect width="15" height="15" fill="#950c00" x="530" y="65"></rect><rect width="15" height="15" fill="#980e00" x="530" y="70"></rect><rect width="15" height="15" fill="#9d1000" x="530" y="75"></rect><rect width="15" height="15" fill="#a21202" x="530" y="80"></rect><rect width="15" height="15" fill="#a71503" x="530" y="85"></rect><rect width="15" height="15" fill="#ad1905" x="530" y="90"></rect><rect width="15" height="15" fill="#b41d07" x="530" y="95"></rect><rect width="15" height="15" fill="#ba2208" x="530" y="100"></rect><rect width="15" height="15" fill="#c1260a" x="530" y="105"></rect><rect width="15" height="15" fill="#c72c0c" x="530" y="110"></rect><rect width="15" height="15" fill="#ce310d" x="530" y="115"></rect><rect width="15" height="15" fill="#d5370f" x="530" y="120"></rect><rect width="15" height="15" fill="#db3d11" x="530" y="125"></rect><rect width="15" height="15" fill="#e14412" x="530" y="130"></rect><rect width="15" height="15" fill="#e74a13" x="530" y="135"></rect><rect width="15" height="15" fill="#ec5115" x="530" y="140"></rect><rect width="15" height="15" fill="#f15816" x="530" y="145"></rect><rect width="15" height="15" fill="#f65f18" x="530" y="150"></rect><rect width="15" height="15" fill="#fa6619" x="530" y="155"></rect><rect width="15" height="15" fill="#fd6d1a" x="530" y="160"></rect><rect width="15" height="15" fill="#ff741b" x="530" y="165"></rect><rect width="15" height="15" fill="#ff7b1c" x="530" y="170"></rect><rect width="15" height="15" fill="#ff821d" x="530" y="175"></rect><rect width="15" height="15" fill="#ff891e" x="530" y="180"></rect><rect width="15" height="15" fill="#ff9020" x="530" y="185"></rect><rect width="15" height="15" fill="#ff9721" x="530" y="190"></rect><rect width="15" height="15" fill="#ff9e22" x="530" y="195"></rect><rect width="15" height="15" fill="#ffa423" x="530" y="200"></rect><rect width="15" height="15" fill="#ffab24" x="530" y="205"></rect><rect width="15" height="15" fill="#ffb125" x="530" y="210"></rect><rect width="15" height="15" fill="#ffb727" x="530" y="215"></rect><rect width="15" height="15" fill="#fcbd28" x="530" y="220"></rect><rect width="15" height="15" fill="#f8c32a" x="530" y="225"></rect><rect width="15" height="15" fill="#f4c92b" x="530" y="230"></rect><rect width="15" height="15" fill="#efce2d" x="530" y="235"></rect><rect width="15" height="15" fill="#ead32e" x="530" y="240"></rect><rect width="15" height="15" fill="#e4d830" x="530" y="245"></rect><rect width="15" height="15" fill="#dedd32" x="530" y="250"></rect><rect width="15" height="15" fill="#d8e135" x="530" y="255"></rect><rect width="15" height="15" fill="#d1e537" x="530" y="260"></rect><rect width="15" height="15" fill="#cae93a" x="530" y="265"></rect><rect width="15" height="15" fill="#c3ec3c" x="530" y="270"></rect><rect width="15" height="15" fill="#bbf03f" x="530" y="275"></rect><rect width="15" height="15" fill="#b4f242" x="530" y="280"></rect><rect width="15" height="15" fill="#acf545" x="530" y="285"></rect><rect width="15" height="15" fill="#a4f749" x="530" y="290"></rect><rect width="15" height="15" fill="#9cf94d" x="530" y="295"></rect><rect width="15" height="15" fill="#95fb51" x="530" y="300"></rect><rect width="15" height="15" fill="#8dfc55" x="530" y="305"></rect><rect width="15" height="15" fill="#85fd59" x="530" y="310"></rect><rect width="15" height="15" fill="#7dfd5e" x="530" y="315"></rect><rect width="15" height="15" fill="#76fe63" x="530" y="320"></rect><rect width="15" height="15" fill="#6efe68" x="530" y="325"></rect><rect width="15" height="15" fill="#67fd6d" x="530" y="330"></rect><rect width="15" height="15" fill="#60fc72" x="530" y="335"></rect><rect width="15" height="15" fill="#59fb78" x="530" y="340"></rect><rect width="15" height="15" fill="#53fa7e" x="530" y="345"></rect><rect width="15" height="15" fill="#4df884" x="530" y="350"></rect><rect width="15" height="15" fill="#47f68a" x="530" y="355"></rect><rect width="15" height="15" fill="#42f490" x="530" y="360"></rect><rect width="15" height="15" fill="#3df196" x="530" y="365"></rect><rect width="15" height="15" fill="#38ee9d" x="530" y="370"></rect><rect width="15" height="15" fill="#34eba3" x="530" y="375"></rect><rect width="15" height="15" fill="#31e8aa" x="530" y="380"></rect><rect width="15" height="15" fill="#2de4b0" x="530" y="385"></rect><rect width="15" height="15" fill="#2be0b7" x="530" y="390"></rect><rect width="15" height="15" fill="#29dbbd" x="530" y="395"></rect><rect width="15" height="15" fill="#27d7c4" x="530" y="400"></rect><rect width="15" height="15" fill="#26d2ca" x="530" y="405"></rect><rect width="15" height="15" fill="#25cdd0" x="530" y="410"></rect><rect width="15" height="15" fill="#25c7d6" x="530" y="415"></rect><rect width="15" height="15" fill="#25c2dc" x="530" y="420"></rect><rect width="15" height="15" fill="#26bce1" x="530" y="425"></rect><rect width="15" height="15" fill="#27b6e6" x="530" y="430"></rect><rect width="15" height="15" fill="#29b0eb" x="530" y="435"></rect><rect width="15" height="15" fill="#2aaaef" x="530" y="440"></rect><rect width="15" height="15" fill="#2da4f2" x="530" y="445"></rect><rect width="15" height="15" fill="#2f9df5" x="530" y="450"></rect><rect width="15" height="15" fill="#3296f7" x="530" y="455"></rect><rect width="15" height="15" fill="#3590f8" x="530" y="460"></rect><rect width="15" height="15" fill="#3889f9" x="530" y="465"></rect><rect width="15" height="15" fill="#3b82f8" x="530" y="470"></rect><rect width="15" height="15" fill="#3e7bf7" x="530" y="475"></rect><rect width="15" height="15" fill="#4174f4" x="530" y="480"></rect><rect width="15" height="15" fill="#436df1" x="530" y="485"></rect><rect width="15" height="15" fill="#4666eb" x="530" y="490"></rect><rect width="15" height="15" fill="#485fe5" x="530" y="495"></rect><rect width="15" height="15" fill="#4a58dd" x="530" y="500"></rect><rect width="15" height="15" fill="#4b51d3" x="530" y="505"></rect><rect width="15" height="15" fill="#4b4ac7" x="530" y="510"></rect><rect width="15" height="15" fill="#4a43ba" x="530" y="515"></rect><rect width="15" height="15" fill="#493caa" x="530" y="520"></rect><rect width="15" height="15" fill="#463699" x="530" y="525"></rect><rect width="15" height="15" fill="#422f85" x="530" y="530"></rect><rect width="15" height="15" fill="#3d296e" x="530" y="535"></rect><rect width="15" height="15" fill="#362356" x="530" y="540"></rect><text font-weight="500" font-family="Avenir Next, Helvetica, Arial" font-size="13" x="547" y="62.681339263916016"><tspan dy="0" x="547">1.0</tspan></text><text font-weight="500" font-family="Avenir Next, Helvetica, Arial" font-size="13" x="547" y="112.68133926391602"><tspan dy="0" x="547">0.9</tspan></text><text font-weight="500" font-family="Avenir Next, Helvetica, Arial" font-size="13" x="547" y="162.68133926391602"><tspan dy="0" x="547">0.8</tspan></text><text font-weight="500" font-family="Avenir Next, Helvetica, Arial" font-size="13" x="547" y="212.68133926391602"><tspan dy="0" x="547">0.7</tspan></text><text font-weight="500" font-family="Avenir Next, Helvetica, Arial" font-size="13" x="547" y="262.681339263916"><tspan dy="0" x="547">0.6</tspan></text><text font-weight="500" font-family="Avenir Next, Helvetica, Arial" font-size="13" x="547" y="312.681339263916"><tspan dy="0" x="547">0.5</tspan></text><text font-weight="500" font-family="Avenir Next, Helvetica, Arial" font-size="13" x="547" y="362.681339263916"><tspan dy="0" x="547">0.4</tspan></text><text font-weight="500" font-family="Avenir Next, Helvetica, Arial" font-size="13" x="547" y="412.681339263916"><tspan dy="0" x="547">0.3</tspan></text><text font-weight="500" font-family="Avenir Next, Helvetica, Arial" font-size="13" x="547" y="462.681339263916"><tspan dy="0" x="547">0.2</tspan></text><text font-weight="500" font-family="Avenir Next, Helvetica, Arial" font-size="13" x="547" y="512.681339263916"><tspan dy="0" x="547">0.1</tspan></text><text font-weight="500" font-family="Avenir Next, Helvetica, Arial" font-size="13" x="547" y="562.681339263916"><tspan dy="0" x="547">0.0</tspan></text><text font-weight="500" font-family="Avenir Next, Helvetica, Arial" font-size="15" x="547" y="315.3987693786621" transform="matrix(6.123233995736766e-17,1,-1,6.123233995736766e-17,936.1090517044067,-315.2754240036011)"><tspan dy="0" x="547">Equilibrium Probability</tspan></text></g><g><text font-weight="500" font-family="Avenir Next, Helvetica, Arial" font-size="15" x="163.58078002929688" y="29.981955528259277"><tspan dy="0" x="163.58078002929688">MFE proxy structure at 40°C</tspan></text><text font-weight="500" font-family="Avenir Next, Helvetica, Arial" x="74.00466918945312" font-size="15" y="564.9819555282593"><tspan dy="0" x="74.00466918945312">Free energy of the secondary structure: -5.09 kcal/mol</tspan></text></g><g><line x1="332.1050259846084" y1="419.1433098289819" x2="335.52601104777216" y2="426.4936177571075" stroke-linecap="round" stroke-opacity="1" stroke-width="2.4322242679611237" stroke="black"></line><line x1="332.1050259846084" y1="419.1433098289819" x2="335.52601104777216" y2="426.4936177571075" stroke-linecap="round" stroke-opacity="1" stroke-width="2.4322242679611237" stroke="black" marker-end="url(#arrowblack)"></line></g><defs><marker markerWidth="3" markerHeight="3" refX="10" refY="10" viewBox="0 0 20 20" orient="auto" id="arrowblack" markerUnits="strokeWidth"><path d="M0 0 10 0 20 10 10 20 0 20 10 10Z" fill="black"></path></marker></defs><style>@font-face{font-family:Avenir Next, Helvetica, Arial;src:https://fonts.googleapis.com/css?family=Avenir+Next:300,400,500,600,700&amp;amp;lang=en;}</style><g></g><use xlink:href="#top"></use></svg>